SplineFontDB: 3.2
FontName: ArialRoundedMTBold
FullName: Arial Rounded MT Bold
FamilyName: Arial Rounded MT Bold
Weight: Book
Copyright: Copyright (c) 1993 , Monotype Typography ltd.
Version: 1.51
ItalicAngle: 0
UnderlinePosition: -256
UnderlineWidth: 102
Ascent: 1638
Descent: 410
InvalidEm: 0
sfntRevision: 0x0001828f
LayerCount: 2
Layer: 0 1 "Back" 1
Layer: 1 1 "Fore" 0
XUID: [1021 280 -22418016 15243]
StyleMap: 0x0040
FSType: 8
OS2Version: 1
OS2_WeightWidthSlopeOnly: 0
OS2_UseTypoMetrics: 0
CreationTime: 806935405
ModificationTime: 1699256171
PfmFamily: 17
TTFWeight: 400
TTFWidth: 5
LineGap: 0
VLineGap: 0
Panose: 2 15 7 4 3 5 4 3 2 4
OS2TypoAscent: 1491
OS2TypoAOffset: 0
OS2TypoDescent: -430
OS2TypoDOffset: 0
OS2TypoLinegap: 270
OS2WinAscent: 1938
OS2WinAOffset: 0
OS2WinDescent: 432
OS2WinDOffset: 0
HheadAscent: 1938
HheadAOffset: 0
HheadDescent: -432
HheadDOffset: 0
OS2SubXSize: 1434
OS2SubYSize: 1331
OS2SubXOff: 0
OS2SubYOff: 129
OS2SupXSize: 1434
OS2SupYSize: 1331
OS2SupXOff: 0
OS2SupYOff: 447
OS2StrikeYSize: 102
OS2StrikeYPos: 530
OS2FamilyClass: 2053
OS2Vendor: 'MONO'
OS2CodePages: 20000001.00000000
OS2UnicodeRanges: 00000003.00000000.00000000.00000000
Lookup: 258 0 0 "'kern' Horizontal Kerning in Latin lookup 0" { "'kern' Horizontal Kerning in Latin lookup 0 subtable"  } ['kern' ('DFLT' <'dflt' > 'latn' <'dflt' > ) ]
DEI: 91125
TtTable: prep
NPUSHB
 81
 64
 86
 58
 5
 57
 54
 54
 4
 53
 52
 52
 4
 51
 48
 48
 4
 47
 45
 46
 4
 44
 32
 41
 4
 31
 32
 5
 31
 14
 31
 4
 13
 14
 5
 0
 52
 176
 160
 5
 159
 146
 157
 4
 145
 146
 5
 145
 139
 141
 4
 138
 131
 136
 4
 130
 131
 5
 130
 87
 128
 4
 86
 87
 5
 0
 136
 0
 13
 12
 11
 10
 9
 8
 7
 6
 8
 6
 73
 0
 48
 0
SCANTYPE
PUSHW_1
 868
SCANCTRL
SCVTCI
SZPS
SVTCA[y-axis]
SROUND
LOOPCALL
SMD
RTG
MIAP[rnd]
CALL
CALL
CALL
CALL
CALL
CALL
CALL
CALL
RTG
MIAP[rnd]
CALL
CALL
CALL
CALL
CALL
CALL
CALL
CALL
CALL
SMD
RTG
EndTTInstrs
TtTable: fpgm
PUSHB_5
 15
 14
 13
 12
 11
PUSHB_5
 10
 9
 8
 7
 6
PUSHB_5
 5
 4
 3
 2
 1

StartChar: .notdef
Encoding: 65536 -1 0
Width: 1024
GlyphClass: 1
Flags: W
LayerCount: 2
Fore
SplineSet
82 1365 m 1,0,-1
 942 1365 l 1,1,-1
 942 0 l 1,2,-1
 82 0 l 1,3,-1
 82 1365 l 1,0,-1
123 1324 m 1,4,-1
 123 41 l 1,5,-1
 901 41 l 1,6,-1
 901 1324 l 1,7,-1
 123 1324 l 1,4,-1
EndSplineSet
Validated: 1
EndChar

StartChar: exclam
Encoding: 33 33 4
Width: 682
GlyphClass: 1
Flags: W
LayerCount: 2
Fore
SplineSet
231 635 m 2,0,-1
 199 1114 l 2,1,2
 190 1254 190 1254 190 1315 c 0,3,4
 190 1398 190 1398 233.5 1444.5 c 128,-1,5
 277 1491 277 1491 348 1491 c 0,6,7
 434 1491 434 1491 463 1431.5 c 128,-1,8
 492 1372 492 1372 492 1260 c 0,9,10
 492 1194 492 1194 485 1126 c 2,11,-1
 442 633 l 2,12,13
 435 545 435 545 412 498 c 128,-1,14
 389 451 389 451 336 451 c 0,15,16
 282 451 282 451 261 496.5 c 128,-1,17
 240 542 240 542 231 635 c 2,0,-1
342 -23 m 0,18,19
 281 -23 281 -23 235.5 16.5 c 128,-1,20
 190 56 190 56 190 127 c 0,21,22
 190 189 190 189 233.5 232.5 c 128,-1,23
 277 276 277 276 340 276 c 256,24,25
 403 276 403 276 447.5 232.5 c 128,-1,26
 492 189 492 189 492 127 c 0,27,28
 492 57 492 57 447 17 c 128,-1,29
 402 -23 402 -23 342 -23 c 0,18,19
EndSplineSet
Validated: 1
EndChar

StartChar: quotedbl
Encoding: 34 34 5
Width: 981
GlyphClass: 1
Flags: W
LayerCount: 2
Fore
SplineSet
373 944 m 1,0,-1
 166 944 l 1,1,-1
 113 1219 l 1,2,-1
 113 1466 l 1,3,-1
 420 1466 l 1,4,-1
 420 1219 l 1,5,-1
 373 944 l 1,0,-1
823 944 m 1,6,-1
 616 944 l 1,7,-1
 563 1219 l 1,8,-1
 563 1466 l 1,9,-1
 870 1466 l 1,10,-1
 870 1219 l 1,11,-1
 823 944 l 1,6,-1
EndSplineSet
Validated: 1
EndChar

StartChar: numbersign
Encoding: 35 35 6
Width: 1130
GlyphClass: 1
Flags: W
LayerCount: 2
Fore
SplineSet
117 178 m 2,0,-1
 154 365 l 1,1,2
 16 368 16 368 16 475 c 0,3,4
 16 525 16 525 50.5 556.5 c 128,-1,5
 85 588 85 588 152 588 c 2,6,-1
 199 588 l 1,7,-1
 256 879 l 1,8,-1
 152 879 l 2,9,10
 87 879 87 879 51.5 911.5 c 128,-1,11
 16 944 16 944 16 991 c 0,12,13
 16 1041 16 1041 50.5 1071.5 c 128,-1,14
 85 1102 85 1102 152 1102 c 2,15,-1
 301 1102 l 1,16,-1
 348 1331 l 2,17,18
 359 1389 359 1389 372.5 1422 c 128,-1,19
 386 1455 386 1455 409.5 1472 c 128,-1,20
 433 1489 433 1489 471 1489 c 0,21,22
 524 1489 524 1489 552 1461 c 128,-1,23
 580 1433 580 1433 580 1389 c 0,24,25
 580 1379 580 1379 563 1288 c 2,26,-1
 526 1102 l 1,27,-1
 745 1102 l 1,28,-1
 793 1331 l 2,29,30
 803 1383 803 1383 812 1415 c 128,-1,31
 821 1447 821 1447 844.5 1469 c 128,-1,32
 868 1491 868 1491 913 1491 c 0,33,34
 965 1491 965 1491 993.5 1464 c 128,-1,35
 1022 1437 1022 1437 1022 1391 c 0,36,37
 1022 1370 1022 1370 1019.5 1350 c 128,-1,38
 1017 1330 1017 1330 1013 1311.5 c 128,-1,39
 1009 1293 1009 1293 1008 1288 c 2,40,-1
 971 1100 l 1,41,42
 1114 1097 1114 1097 1114 989 c 0,43,44
 1114 939 1114 939 1080 909 c 128,-1,45
 1046 879 1046 879 979 879 c 2,46,-1
 928 879 l 1,47,-1
 868 588 l 1,48,-1
 979 588 l 2,49,50
 1046 588 1046 588 1080 556 c 128,-1,51
 1114 524 1114 524 1114 475 c 256,52,53
 1114 426 1114 426 1080.5 395.5 c 128,-1,54
 1047 365 1047 365 979 365 c 2,55,-1
 825 365 l 1,56,-1
 778 135 l 2,57,58
 767 80 767 80 758.5 50 c 128,-1,59
 750 20 750 20 726 -2.5 c 128,-1,60
 702 -25 702 -25 657 -25 c 0,61,62
 607 -25 607 -25 578 3 c 128,-1,63
 549 31 549 31 549 76 c 0,64,65
 549 117 549 117 563 178 c 2,66,-1
 600 365 l 1,67,-1
 379 365 l 1,68,-1
 332 135 l 2,69,70
 314 50 314 50 294.5 12.5 c 128,-1,71
 275 -25 275 -25 211 -25 c 0,72,73
 160 -25 160 -25 131 3 c 128,-1,74
 102 31 102 31 102 76 c 0,75,76
 102 99 102 99 107.5 127.5 c 128,-1,77
 113 156 113 156 117 178 c 2,0,-1
702 879 m 1,78,-1
 481 879 l 1,79,-1
 422 588 l 1,80,-1
 645 588 l 1,81,-1
 702 879 l 1,78,-1
EndSplineSet
Validated: 1
EndChar

StartChar: dollar
Encoding: 36 36 7
Width: 1217
GlyphClass: 1
Flags: W
LayerCount: 2
Fore
SplineSet
670 1593 m 2,0,-1
 670 1485 l 1,1,2
 777 1474 777 1474 853.5 1441 c 128,-1,3
 930 1408 930 1408 987 1341 c 0,4,5
 1032 1290 1032 1290 1056.5 1236 c 128,-1,6
 1081 1182 1081 1182 1081 1137 c 0,7,8
 1081 1087 1081 1087 1044.5 1050.5 c 128,-1,9
 1008 1014 1008 1014 956 1014 c 0,10,11
 858 1014 858 1014 829 1120 c 0,12,13
 796 1245 796 1245 670 1286 c 1,14,-1
 670 870 l 1,15,16
 794 836 794 836 867.5 808 c 128,-1,17
 941 780 941 780 999 727 c 0,18,19
 1061 672 1061 672 1094.5 595.5 c 128,-1,20
 1128 519 1128 519 1128 428 c 0,21,22
 1128 314 1128 314 1074.5 214.5 c 128,-1,23
 1021 115 1021 115 917 52 c 128,-1,24
 813 -11 813 -11 670 -23 c 1,25,-1
 670 -272 l 2,26,27
 670 -331 670 -331 658.5 -358 c 128,-1,28
 647 -385 647 -385 608 -385 c 0,29,30
 572 -385 572 -385 557.5 -363 c 128,-1,31
 543 -341 543 -341 543 -295 c 2,32,-1
 543 -25 l 1,33,34
 426 -12 426 -12 338.5 30 c 128,-1,35
 251 72 251 72 192.5 134.5 c 128,-1,36
 134 197 134 197 106 264.5 c 128,-1,37
 78 332 78 332 78 397 c 0,38,39
 78 445 78 445 115.5 483.5 c 128,-1,40
 153 522 153 522 209 522 c 0,41,42
 254 522 254 522 285 501 c 128,-1,43
 316 480 316 480 328 442 c 0,44,45
 355 360 355 360 375 316.5 c 128,-1,46
 395 273 395 273 435.5 237 c 128,-1,47
 476 201 476 201 543 182 c 1,48,-1
 543 647 l 1,49,50
 409 684 409 684 319 729.5 c 128,-1,51
 229 775 229 775 173 859 c 128,-1,52
 117 943 117 943 117 1075 c 0,53,54
 117 1247 117 1247 226.5 1357 c 128,-1,55
 336 1467 336 1467 543 1485 c 1,56,-1
 543 1591 l 2,57,58
 543 1675 543 1675 606 1675 c 0,59,60
 670 1675 670 1675 670 1593 c 2,0,-1
543 907 m 1,61,-1
 543 1290 l 1,62,63
 459 1265 459 1265 412 1224 c 128,-1,64
 365 1183 365 1183 365 1100 c 0,65,66
 365 1021 365 1021 409 980.5 c 128,-1,67
 453 940 453 940 543 907 c 1,61,-1
670 610 m 1,68,-1
 670 172 l 1,69,70
 771 192 771 192 826 253 c 128,-1,71
 881 314 881 314 881 395 c 0,72,73
 881 482 881 482 827.5 529.5 c 128,-1,74
 774 577 774 577 670 610 c 1,68,-1
EndSplineSet
Validated: 1
EndChar

StartChar: percent
Encoding: 37 37 8
Width: 1749
GlyphClass: 1
Flags: W
LayerCount: 2
Fore
SplineSet
676 1090 m 0,0,1
 676 899 676 899 592 806 c 128,-1,2
 508 713 508 713 362 713 c 0,3,4
 272 713 272 713 200.5 752.5 c 128,-1,5
 129 792 129 792 89 876 c 128,-1,6
 49 960 49 960 49 1081 c 0,7,8
 49 1211 49 1211 80 1298 c 128,-1,9
 111 1385 111 1385 180.5 1430 c 128,-1,10
 250 1475 250 1475 358 1475 c 0,11,12
 436 1475 436 1475 495 1451 c 128,-1,13
 554 1427 554 1427 595 1377.5 c 128,-1,14
 636 1328 636 1328 656 1257 c 128,-1,15
 676 1186 676 1186 676 1090 c 0,0,1
489 1100 m 0,16,17
 489 1231 489 1231 461 1290.5 c 128,-1,18
 433 1350 433 1350 362 1350 c 0,19,20
 314 1350 314 1350 285.5 1321.5 c 128,-1,21
 257 1293 257 1293 246.5 1237.5 c 128,-1,22
 236 1182 236 1182 236 1096 c 0,23,24
 236 1007 236 1007 246.5 951 c 128,-1,25
 257 895 257 895 285 866.5 c 128,-1,26
 313 838 313 838 362 838 c 0,27,28
 436 838 436 838 462.5 901 c 128,-1,29
 489 964 489 964 489 1100 c 0,16,17
1700 367 m 0,30,31
 1700 176 1700 176 1616 83 c 128,-1,32
 1532 -10 1532 -10 1386 -10 c 0,33,34
 1295 -10 1295 -10 1223.5 30 c 128,-1,35
 1152 70 1152 70 1111.5 153 c 128,-1,36
 1071 236 1071 236 1071 358 c 0,37,38
 1071 553 1071 553 1145.5 651.5 c 128,-1,39
 1220 750 1220 750 1382 750 c 0,40,41
 1460 750 1460 750 1518.5 726 c 128,-1,42
 1577 702 1577 702 1618.5 654 c 128,-1,43
 1660 606 1660 606 1680 534.5 c 128,-1,44
 1700 463 1700 463 1700 367 c 0,30,31
1513 377 m 0,45,46
 1513 506 1513 506 1485 565.5 c 128,-1,47
 1457 625 1457 625 1386 625 c 0,48,49
 1336 625 1336 625 1308 597 c 128,-1,50
 1280 569 1280 569 1268.5 514.5 c 128,-1,51
 1257 460 1257 460 1257 373 c 0,52,53
 1257 239 1257 239 1285.5 177 c 128,-1,54
 1314 115 1314 115 1386 115 c 0,55,56
 1459 115 1459 115 1486 178.5 c 128,-1,57
 1513 242 1513 242 1513 377 c 0,45,46
1343 1343 m 2,58,-1
 510 0 l 2,59,60
 478 -55 478 -55 438 -55 c 0,61,62
 415 -55 415 -55 392 -37.5 c 128,-1,63
 369 -20 369 -20 369 8 c 0,64,65
 369 29 369 29 389 59 c 2,66,-1
 1227 1413 l 2,67,68
 1249 1450 1249 1450 1265.5 1468.5 c 128,-1,69
 1282 1487 1282 1487 1313 1487 c 0,70,71
 1343 1487 1343 1487 1361.5 1469.5 c 128,-1,72
 1380 1452 1380 1452 1380 1423 c 0,73,74
 1380 1402 1380 1402 1343 1343 c 2,58,-1
EndSplineSet
Validated: 1
EndChar

StartChar: ampersand
Encoding: 38 38 9
Width: 1556
GlyphClass: 1
Flags: W
LayerCount: 2
Fore
SplineSet
317 1155 m 0,0,1
 317 1248 317 1248 365.5 1324.5 c 128,-1,2
 414 1401 414 1401 508 1446 c 128,-1,3
 602 1491 602 1491 729 1491 c 0,4,5
 855 1491 855 1491 947 1444 c 128,-1,6
 1039 1397 1039 1397 1084.5 1321 c 128,-1,7
 1130 1245 1130 1245 1130 1163 c 0,8,9
 1130 1051 1130 1051 1056 968 c 128,-1,10
 982 885 982 885 838 799 c 1,11,12
 888 740 888 740 931 688 c 128,-1,13
 974 636 974 636 1014 591 c 128,-1,14
 1054 546 1054 546 1087 514 c 1,15,16
 1102 542 1102 542 1133.5 619 c 128,-1,17
 1165 696 1165 696 1192.5 730 c 128,-1,18
 1220 764 1220 764 1270 764 c 0,19,20
 1317 764 1317 764 1353 730.5 c 128,-1,21
 1389 697 1389 697 1389 649 c 0,22,23
 1389 605 1389 605 1358 524.5 c 128,-1,24
 1327 444 1327 444 1268 346 c 1,25,26
 1305 314 1305 314 1385.5 249 c 128,-1,27
 1466 184 1466 184 1484.5 160.5 c 128,-1,28
 1503 137 1503 137 1503 98 c 0,29,30
 1503 46 1503 46 1465.5 10.5 c 128,-1,31
 1428 -25 1428 -25 1382 -25 c 0,32,33
 1335 -25 1335 -25 1291 5 c 128,-1,34
 1247 35 1247 35 1104 152 c 1,35,36
 1039 91 1039 91 969.5 52 c 128,-1,37
 900 13 900 13 820.5 -6 c 128,-1,38
 741 -25 741 -25 643 -25 c 0,39,40
 518 -25 518 -25 418.5 11.5 c 128,-1,41
 319 48 319 48 253 110 c 128,-1,42
 187 172 187 172 155 247.5 c 128,-1,43
 123 323 123 323 123 401 c 0,44,45
 123 476 123 476 147 538.5 c 128,-1,46
 171 601 171 601 214.5 651.5 c 128,-1,47
 258 702 258 702 321.5 747.5 c 128,-1,48
 385 793 385 793 469 836 c 1,49,50
 394 930 394 930 355.5 1003.5 c 128,-1,51
 317 1077 317 1077 317 1155 c 0,0,1
600 676 m 1,52,53
 498 617 498 617 447.5 558 c 128,-1,54
 397 499 397 499 397 418 c 0,55,56
 397 372 397 372 415.5 330 c 128,-1,57
 434 288 434 288 469.5 252 c 128,-1,58
 505 216 505 216 552 197 c 128,-1,59
 599 178 599 178 651 178 c 0,60,61
 702 178 702 178 750 194 c 128,-1,62
 798 210 798 210 841 239.5 c 128,-1,63
 884 269 884 269 930 313 c 1,64,65
 841 395 841 395 770 475.5 c 128,-1,66
 699 556 699 556 600 676 c 1,52,53
702 950 m 1,67,68
 804 1015 804 1015 849.5 1059.5 c 128,-1,69
 895 1104 895 1104 895 1167 c 0,70,71
 895 1229 895 1229 849.5 1271 c 128,-1,72
 804 1313 804 1313 735 1313 c 256,73,74
 666 1313 666 1313 619.5 1270 c 128,-1,75
 573 1227 573 1227 573 1169 c 0,76,77
 573 1139 573 1139 590.5 1104.5 c 128,-1,78
 608 1070 608 1070 634 1036 c 128,-1,79
 660 1002 660 1002 702 950 c 1,67,68
EndSplineSet
Validated: 1
EndChar

StartChar: quotesingle
Encoding: 39 39 10
Width: 492
GlyphClass: 1
Flags: W
LayerCount: 2
Fore
SplineSet
352 944 m 1,0,-1
 145 944 l 1,1,-1
 92 1219 l 1,2,-1
 92 1466 l 1,3,-1
 399 1466 l 1,4,-1
 399 1219 l 1,5,-1
 352 944 l 1,0,-1
EndSplineSet
Validated: 1
EndChar

StartChar: parenleft
Encoding: 40 40 11
Width: 725
GlyphClass: 1
Flags: W
LayerCount: 2
Fore
SplineSet
129 530 m 0,0,1
 129 681 129 681 155 812.5 c 128,-1,2
 181 944 181 944 234 1071.5 c 128,-1,3
 287 1199 287 1199 365 1327 c 0,4,5
 412 1405 412 1405 444 1439.5 c 128,-1,6
 476 1474 476 1474 504.5 1482.5 c 128,-1,7
 533 1491 533 1491 578 1491 c 0,8,9
 627 1491 627 1491 627 1464 c 0,10,11
 627 1455 627 1455 581 1355.5 c 128,-1,12
 535 1256 535 1256 494.5 1147 c 128,-1,13
 454 1038 454 1038 419.5 875 c 128,-1,14
 385 712 385 712 385 530 c 0,15,16
 385 350 385 350 419 189 c 128,-1,17
 453 28 453 28 496.5 -90 c 128,-1,18
 540 -208 540 -208 583.5 -301.5 c 128,-1,19
 627 -395 627 -395 627 -403 c 0,20,21
 627 -430 627 -430 578 -430 c 0,22,23
 532 -430 532 -430 503.5 -420.5 c 128,-1,24
 475 -411 475 -411 444 -376 c 128,-1,25
 413 -341 413 -341 365 -264 c 0,26,27
 286 -132 286 -132 234.5 -9.5 c 128,-1,28
 183 113 183 113 156 245 c 128,-1,29
 129 377 129 377 129 530 c 0,0,1
EndSplineSet
Validated: 1
EndChar

StartChar: parenright
Encoding: 41 41 12
Width: 725
GlyphClass: 1
Flags: W
LayerCount: 2
Fore
SplineSet
598 530 m 0,0,1
 598 310 598 310 539.5 121 c 128,-1,2
 481 -68 481 -68 362 -264 c 0,3,4
 295 -374 295 -374 256 -402 c 128,-1,5
 217 -430 217 -430 150 -430 c 0,6,7
 100 -430 100 -430 100 -403 c 0,8,9
 100 -394 100 -394 142 -306.5 c 128,-1,10
 184 -219 184 -219 229.5 -98 c 128,-1,11
 275 23 275 23 308.5 186.5 c 128,-1,12
 342 350 342 350 342 530 c 0,13,14
 342 711 342 711 308 875 c 128,-1,15
 274 1039 274 1039 229 1159 c 128,-1,16
 184 1279 184 1279 142 1367.5 c 128,-1,17
 100 1456 100 1456 100 1464 c 0,18,19
 100 1491 100 1491 150 1491 c 0,20,21
 220 1491 220 1491 258 1464.5 c 128,-1,22
 296 1438 296 1438 362 1327 c 0,23,24
 421 1229 421 1229 465 1134 c 128,-1,25
 509 1039 509 1039 538.5 944 c 128,-1,26
 568 849 568 849 583 746 c 128,-1,27
 598 643 598 643 598 530 c 0,0,1
EndSplineSet
Validated: 1
EndChar

StartChar: asterisk
Encoding: 42 42 13
Width: 897
GlyphClass: 1
Flags: W
LayerCount: 2
Fore
SplineSet
504 1221 m 1,0,1
 569 1251 569 1251 628 1281 c 128,-1,2
 687 1311 687 1311 722 1325 c 128,-1,3
 757 1339 757 1339 778 1339 c 0,4,5
 813 1339 813 1339 838.5 1315.5 c 128,-1,6
 864 1292 864 1292 864 1257 c 0,7,8
 864 1237 864 1237 851.5 1215.5 c 128,-1,9
 839 1194 839 1194 825 1188 c 0,10,11
 696 1137 696 1137 541 1114 c 1,12,13
 569 1088 569 1088 610 1045 c 128,-1,14
 651 1002 651 1002 653 999 c 0,15,16
 668 978 668 978 695 947 c 128,-1,17
 722 916 722 916 732.5 898.5 c 128,-1,18
 743 881 743 881 743 856 c 0,19,20
 743 824 743 824 719 800 c 128,-1,21
 695 776 695 776 657 776 c 256,22,23
 619 776 619 776 571.5 835 c 128,-1,24
 524 894 524 894 449 1047 c 1,25,26
 373 909 373 909 347 865 c 128,-1,27
 321 821 321 821 297 798.5 c 128,-1,28
 273 776 273 776 242 776 c 0,29,30
 205 776 205 776 180.5 801.5 c 128,-1,31
 156 827 156 827 156 856 c 0,32,33
 156 883 156 883 166 897 c 0,34,35
 258 1022 258 1022 358 1114 c 1,36,37
 274 1127 274 1127 208 1143 c 128,-1,38
 142 1159 142 1159 68 1190 c 0,39,40
 56 1196 56 1196 44.5 1217.5 c 128,-1,41
 33 1239 33 1239 33 1257 c 0,42,43
 33 1292 33 1292 58.5 1315.5 c 128,-1,44
 84 1339 84 1339 117 1339 c 0,45,46
 141 1339 141 1339 177 1324.5 c 128,-1,47
 213 1310 213 1310 268.5 1282.5 c 128,-1,48
 324 1255 324 1255 395 1221 c 1,49,50
 382 1284 382 1284 373.5 1365.5 c 128,-1,51
 365 1447 365 1447 365 1477 c 0,52,53
 365 1514 365 1514 388.5 1540.5 c 128,-1,54
 412 1567 412 1567 449 1567 c 0,55,56
 485 1567 485 1567 508.5 1540.5 c 128,-1,57
 532 1514 532 1514 532 1470 c 0,58,59
 532 1458 532 1458 528.5 1422.5 c 128,-1,60
 525 1387 525 1387 518.5 1336.5 c 128,-1,61
 512 1286 512 1286 504 1221 c 1,0,1
EndSplineSet
Validated: 1
EndChar

StartChar: plus
Encoding: 43 43 14
Width: 1194
GlyphClass: 1
Flags: W
LayerCount: 2
Fore
SplineSet
725 211 m 1,0,-1
 467 211 l 1,1,-1
 467 592 l 1,2,-1
 84 592 l 1,3,-1
 84 854 l 1,4,-1
 467 854 l 1,5,-1
 467 1237 l 1,6,-1
 725 1237 l 1,7,-1
 725 854 l 1,8,-1
 1110 854 l 1,9,-1
 1110 592 l 1,10,-1
 725 592 l 1,11,-1
 725 211 l 1,0,-1
EndSplineSet
Validated: 1
EndChar

StartChar: comma
Encoding: 44 44 15
Width: 641
GlyphClass: 1
Flags: W
LayerCount: 2
Fore
SplineSet
326 -27 m 1,0,1
 260 -27 260 -27 212 13.5 c 128,-1,2
 164 54 164 54 164 127 c 0,3,4
 164 190 164 190 211 233 c 128,-1,5
 258 276 258 276 322 276 c 0,6,7
 370 276 370 276 409 250 c 128,-1,8
 448 224 448 224 470 173.5 c 128,-1,9
 492 123 492 123 492 49 c 0,10,11
 492 -50 492 -50 450 -136.5 c 128,-1,12
 408 -223 408 -223 347.5 -273.5 c 128,-1,13
 287 -324 287 -324 238 -324 c 0,14,15
 207 -324 207 -324 187.5 -303.5 c 128,-1,16
 168 -283 168 -283 168 -256 c 0,17,18
 168 -215 168 -215 209 -190 c 0,19,20
 326 -125 326 -125 326 -27 c 1,0,1
EndSplineSet
Validated: 1
EndChar

StartChar: hyphen
Encoding: 45 45 16
AltUni2: 0000ad.ffffffff.0 0000ad.ffffffff.0
Width: 682
GlyphClass: 1
Flags: W
LayerCount: 2
Fore
SplineSet
500 412 m 2,0,-1
 184 412 l 2,1,2
 112 412 112 412 74.5 445.5 c 128,-1,3
 37 479 37 479 37 532 c 0,4,5
 37 586 37 586 73.5 619.5 c 128,-1,6
 110 653 110 653 184 653 c 2,7,-1
 500 653 l 2,8,9
 574 653 574 653 610.5 619.5 c 128,-1,10
 647 586 647 586 647 532 c 0,11,12
 647 479 647 479 611 445.5 c 128,-1,13
 575 412 575 412 500 412 c 2,0,-1
EndSplineSet
Validated: 1
EndChar

StartChar: period
Encoding: 46 46 17
Width: 641
GlyphClass: 1
Flags: W
LayerCount: 2
Fore
SplineSet
322 -25 m 0,0,1
 260 -25 260 -25 215 15 c 128,-1,2
 170 55 170 55 170 127 c 0,3,4
 170 188 170 188 213 232 c 128,-1,5
 256 276 256 276 319 276 c 256,6,7
 382 276 382 276 426.5 232.5 c 128,-1,8
 471 189 471 189 471 127 c 0,9,10
 471 56 471 56 426.5 15.5 c 128,-1,11
 382 -25 382 -25 322 -25 c 0,0,1
EndSplineSet
Validated: 1
EndChar

StartChar: slash
Encoding: 47 47 18
Width: 575
GlyphClass: 1
Flags: W
LayerCount: 2
Fore
SplineSet
528 1288 m 2,0,-1
 248 135 l 2,1,2
 234 78 234 78 223.5 45 c 128,-1,3
 213 12 213 12 191.5 -6.5 c 128,-1,4
 170 -25 170 -25 129 -25 c 0,5,6
 27 -25 27 -25 27 63 c 0,7,8
 27 86 27 86 47 178 c 2,9,-1
 326 1331 l 2,10,11
 348 1423 348 1423 368 1457 c 128,-1,12
 388 1491 388 1491 446 1491 c 0,13,14
 496 1491 496 1491 522.5 1467 c 128,-1,15
 549 1443 549 1443 549 1401 c 0,16,17
 549 1370 549 1370 528 1288 c 2,0,-1
EndSplineSet
Validated: 1
EndChar

StartChar: zero
Encoding: 48 48 19
Width: 1217
GlyphClass: 1
Flags: W
LayerCount: 2
Fore
SplineSet
1120 719 m 0,0,1
 1120 555 1120 555 1100 437 c 128,-1,2
 1080 319 1080 319 1026 223 c 0,3,4
 958 105 958 105 850 41 c 128,-1,5
 742 -23 742 -23 610 -23 c 0,6,7
 458 -23 458 -23 337.5 63 c 128,-1,8
 217 149 217 149 156 301 c 0,9,10
 125 384 125 384 110.5 484.5 c 128,-1,11
 96 585 96 585 96 702 c 0,12,13
 96 853 96 853 112 974 c 128,-1,14
 128 1095 128 1095 162 1182 c 0,15,16
 221 1326 221 1326 333.5 1401.5 c 128,-1,17
 446 1477 446 1477 602 1477 c 0,18,19
 705 1477 705 1477 789 1443.5 c 128,-1,20
 873 1410 873 1410 936.5 1345.5 c 128,-1,21
 1000 1281 1000 1281 1044 1186 c 0,22,23
 1120 1021 1120 1021 1120 719 c 0,0,1
846 739 m 0,24,25
 846 922 846 922 824 1038.5 c 128,-1,26
 802 1155 802 1155 750 1214.5 c 128,-1,27
 698 1274 698 1274 606 1274 c 0,28,29
 474 1274 474 1274 422.5 1141 c 128,-1,30
 371 1008 371 1008 371 731 c 0,31,32
 371 543 371 543 393 423 c 128,-1,33
 415 303 415 303 467 241.5 c 128,-1,34
 519 180 519 180 608 180 c 0,35,36
 700 180 700 180 752 244 c 128,-1,37
 804 308 804 308 825 427 c 128,-1,38
 846 546 846 546 846 739 c 0,24,25
EndSplineSet
Validated: 1
EndChar

StartChar: one
Encoding: 49 49 20
Width: 1217
GlyphClass: 1
Flags: W
LayerCount: 2
Fore
SplineSet
578 137 m 2,0,-1
 578 1047 l 1,1,2
 324 852 324 852 236 852 c 0,3,4
 194 852 194 852 161.5 885.5 c 128,-1,5
 129 919 129 919 129 963 c 0,6,7
 129 1014 129 1014 161 1038 c 128,-1,8
 193 1062 193 1062 274 1100 c 0,9,10
 395 1157 395 1157 467.5 1220 c 128,-1,11
 540 1283 540 1283 596 1361 c 128,-1,12
 652 1439 652 1439 669 1457 c 128,-1,13
 686 1475 686 1475 733 1475 c 0,14,15
 786 1475 786 1475 818 1434 c 128,-1,16
 850 1393 850 1393 850 1321 c 2,17,-1
 850 176 l 2,18,19
 850 -25 850 -25 713 -25 c 0,20,21
 652 -25 652 -25 615 16 c 128,-1,22
 578 57 578 57 578 137 c 2,0,-1
EndSplineSet
Validated: 1
EndChar

StartChar: two
Encoding: 50 50 21
Width: 1217
GlyphClass: 1
Flags: W
LayerCount: 2
Fore
SplineSet
457 236 m 1,0,-1
 979 236 l 2,1,2
 1057 236 1057 236 1098 204 c 128,-1,3
 1139 172 1139 172 1139 117 c 0,4,5
 1139 68 1139 68 1106.5 34 c 128,-1,6
 1074 0 1074 0 1008 0 c 2,7,-1
 272 0 l 2,8,9
 197 0 197 0 155 41.5 c 128,-1,10
 113 83 113 83 113 139 c 0,11,12
 113 175 113 175 140 234.5 c 128,-1,13
 167 294 167 294 199 328 c 0,14,15
 332 466 332 466 439 564.5 c 128,-1,16
 546 663 546 663 592 694 c 0,17,18
 674 752 674 752 728.5 810.5 c 128,-1,19
 783 869 783 869 811.5 930.5 c 128,-1,20
 840 992 840 992 840 1051 c 0,21,22
 840 1115 840 1115 809.5 1165.5 c 128,-1,23
 779 1216 779 1216 726.5 1244 c 128,-1,24
 674 1272 674 1272 612 1272 c 0,25,26
 481 1272 481 1272 406 1157 c 0,27,28
 396 1142 396 1142 372.5 1075 c 128,-1,29
 349 1008 349 1008 319.5 972 c 128,-1,30
 290 936 290 936 233 936 c 0,31,32
 183 936 183 936 150 969 c 128,-1,33
 117 1002 117 1002 117 1059 c 0,34,35
 117 1128 117 1128 148 1203 c 128,-1,36
 179 1278 179 1278 240.5 1339 c 128,-1,37
 302 1400 302 1400 396.5 1437.5 c 128,-1,38
 491 1475 491 1475 618 1475 c 0,39,40
 771 1475 771 1475 879 1427 c 0,41,42
 949 1395 949 1395 1002 1339 c 128,-1,43
 1055 1283 1055 1283 1084.5 1209.5 c 128,-1,44
 1114 1136 1114 1136 1114 1057 c 0,45,46
 1114 933 1114 933 1052.5 831.5 c 128,-1,47
 991 730 991 730 927 672.5 c 128,-1,48
 863 615 863 615 712.5 492 c 128,-1,49
 562 369 562 369 506 301 c 0,50,51
 482 274 482 274 457 236 c 1,0,-1
EndSplineSet
Validated: 1
EndChar

StartChar: three
Encoding: 51 51 22
Width: 1217
GlyphClass: 1
Flags: W
LayerCount: 2
Fore
SplineSet
561 885 m 2,0,1
 653 885 653 885 719.5 939 c 128,-1,2
 786 993 786 993 786 1094 c 0,3,4
 786 1171 786 1171 733 1226.5 c 128,-1,5
 680 1282 680 1282 590 1282 c 0,6,7
 529 1282 529 1282 489.5 1265 c 128,-1,8
 450 1248 450 1248 427 1220 c 128,-1,9
 404 1192 404 1192 383.5 1148 c 128,-1,10
 363 1104 363 1104 346 1065 c 0,11,12
 336 1044 336 1044 310 1032 c 128,-1,13
 284 1020 284 1020 250 1020 c 0,14,15
 210 1020 210 1020 176.5 1052.5 c 128,-1,16
 143 1085 143 1085 143 1139 c 0,17,18
 143 1191 143 1191 174.5 1248.5 c 128,-1,19
 206 1306 206 1306 266.5 1358 c 128,-1,20
 327 1410 327 1410 417 1441.5 c 128,-1,21
 507 1473 507 1473 618 1473 c 0,22,23
 715 1473 715 1473 795 1446.5 c 128,-1,24
 875 1420 875 1420 934 1370 c 128,-1,25
 993 1320 993 1320 1023 1254 c 128,-1,26
 1053 1188 1053 1188 1053 1112 c 0,27,28
 1053 1012 1053 1012 1009.5 940.5 c 128,-1,29
 966 869 966 869 885 801 c 1,30,31
 963 759 963 759 1016.5 705 c 128,-1,32
 1070 651 1070 651 1097 585.5 c 128,-1,33
 1124 520 1124 520 1124 444 c 0,34,35
 1124 353 1124 353 1087.5 268 c 128,-1,36
 1051 183 1051 183 980 116.5 c 128,-1,37
 909 50 909 50 811.5 12.5 c 128,-1,38
 714 -25 714 -25 596 -25 c 0,39,40
 476 -25 476 -25 381 18 c 128,-1,41
 286 61 286 61 224.5 125.5 c 128,-1,42
 163 190 163 190 131.5 259 c 128,-1,43
 100 328 100 328 100 373 c 0,44,45
 100 431 100 431 137.5 466.5 c 128,-1,46
 175 502 175 502 231 502 c 0,47,48
 259 502 259 502 285 485.5 c 128,-1,49
 311 469 311 469 319 446 c 0,50,51
 371 307 371 307 430.5 239.5 c 128,-1,52
 490 172 490 172 598 172 c 0,53,54
 660 172 660 172 717.5 202.5 c 128,-1,55
 775 233 775 233 812.5 293 c 128,-1,56
 850 353 850 353 850 432 c 0,57,58
 850 549 850 549 786 615.5 c 128,-1,59
 722 682 722 682 608 682 c 0,60,61
 588 682 588 682 546 678 c 128,-1,62
 504 674 504 674 492 674 c 0,63,64
 437 674 437 674 407 701.5 c 128,-1,65
 377 729 377 729 377 778 c 0,66,67
 377 826 377 826 413 855.5 c 128,-1,68
 449 885 449 885 520 885 c 2,69,-1
 561 885 l 2,0,1
EndSplineSet
Validated: 1
EndChar

StartChar: four
Encoding: 52 52 23
Width: 1217
GlyphClass: 1
Flags: W
LayerCount: 2
Fore
SplineSet
717 127 m 2,0,-1
 717 313 l 1,1,-1
 215 313 l 2,2,3
 120 313 120 313 72.5 356 c 128,-1,4
 25 399 25 399 25 473 c 0,5,6
 25 492 25 492 32 511.5 c 128,-1,7
 39 531 39 531 53 552.5 c 128,-1,8
 67 574 67 574 82 594 c 128,-1,9
 97 614 97 614 119 643 c 2,10,-1
 649 1352 l 2,11,12
 701 1422 701 1422 734.5 1453.5 c 128,-1,13
 768 1485 768 1485 815 1485 c 0,14,15
 967 1485 967 1485 967 1311 c 2,16,-1
 967 537 l 1,17,-1
 1010 537 l 2,18,19
 1087 537 1087 537 1133.5 516 c 128,-1,20
 1180 495 1180 495 1180 424 c 0,21,22
 1180 366 1180 366 1142 339.5 c 128,-1,23
 1104 313 1104 313 1028 313 c 2,24,-1
 967 313 l 1,25,-1
 967 127 l 2,26,27
 967 50 967 50 933 12.5 c 128,-1,28
 899 -25 899 -25 842 -25 c 0,29,30
 786 -25 786 -25 751.5 13.5 c 128,-1,31
 717 52 717 52 717 127 c 2,0,-1
287 537 m 1,32,-1
 717 537 l 1,33,-1
 717 1118 l 1,34,-1
 287 537 l 1,32,-1
EndSplineSet
Validated: 1
EndChar

StartChar: five
Encoding: 53 53 24
Width: 1217
GlyphClass: 1
Flags: W
LayerCount: 2
Fore
SplineSet
948 1219 m 2,0,-1
 473 1219 l 1,1,-1
 416 895 l 1,2,3
 558 971 558 971 678 971 c 0,4,5
 774 971 774 971 857.5 935 c 128,-1,6
 941 899 941 899 1004 835.5 c 128,-1,7
 1067 772 1067 772 1103 685 c 128,-1,8
 1139 598 1139 598 1139 498 c 0,9,10
 1139 353 1139 353 1074 234 c 128,-1,11
 1009 115 1009 115 886.5 45 c 128,-1,12
 764 -25 764 -25 604 -25 c 0,13,14
 425 -25 425 -25 313.5 41 c 128,-1,15
 202 107 202 107 155.5 192.5 c 128,-1,16
 109 278 109 278 109 342 c 0,17,18
 109 381 109 381 141.5 416 c 128,-1,19
 174 451 174 451 223 451 c 0,20,21
 307 451 307 451 348 354 c 0,22,23
 388 265 388 265 456 215.5 c 128,-1,24
 524 166 524 166 608 166 c 0,25,26
 685 166 685 166 743 206 c 128,-1,27
 801 246 801 246 832.5 316 c 128,-1,28
 864 386 864 386 864 475 c 0,29,30
 864 571 864 571 830 639 c 128,-1,31
 796 707 796 707 739 740.5 c 128,-1,32
 682 774 682 774 612 774 c 0,33,34
 526 774 526 774 489 753 c 128,-1,35
 452 732 452 732 382.5 679.5 c 128,-1,36
 313 627 313 627 268 627 c 0,37,38
 219 627 219 627 181 662.5 c 128,-1,39
 143 698 143 698 143 743 c 0,40,41
 143 748 143 748 154 811 c 2,42,-1
 238 1290 l 2,43,44
 252 1376 252 1376 290 1415 c 128,-1,45
 328 1454 328 1454 414 1454 c 2,46,-1
 942 1454 l 2,47,48
 1098 1454 1098 1454 1098 1335 c 0,49,50
 1098 1283 1098 1283 1060 1251 c 128,-1,51
 1022 1219 1022 1219 948 1219 c 2,0,-1
EndSplineSet
Validated: 1
EndChar

StartChar: six
Encoding: 54 54 25
Width: 1217
GlyphClass: 1
Flags: W
LayerCount: 2
Fore
SplineSet
371 793 m 1,0,1
 439 874 439 874 519 913 c 128,-1,2
 599 952 599 952 698 952 c 0,3,4
 793 952 793 952 873.5 916.5 c 128,-1,5
 954 881 954 881 1014.5 815.5 c 128,-1,6
 1075 750 1075 750 1108 661 c 128,-1,7
 1141 572 1141 572 1141 475 c 0,8,9
 1141 334 1141 334 1076.5 219 c 128,-1,10
 1012 104 1012 104 896.5 39.5 c 128,-1,11
 781 -25 781 -25 635 -25 c 0,12,13
 467 -25 467 -25 345 57 c 128,-1,14
 223 139 223 139 158.5 299.5 c 128,-1,15
 94 460 94 460 94 692 c 0,16,17
 94 881 94 881 133 1030 c 128,-1,18
 172 1179 172 1179 245 1277 c 128,-1,19
 318 1375 318 1375 422 1425 c 128,-1,20
 526 1475 526 1475 659 1475 c 0,21,22
 787 1475 787 1475 884.5 1425 c 128,-1,23
 982 1375 982 1375 1031.5 1301 c 128,-1,24
 1081 1227 1081 1227 1081 1159 c 0,25,26
 1081 1118 1081 1118 1050 1084.5 c 128,-1,27
 1019 1051 1019 1051 971 1051 c 0,28,29
 929 1051 929 1051 893 1077.5 c 128,-1,30
 857 1104 857 1104 840 1151 c 0,31,32
 817 1211 817 1211 767 1247.5 c 128,-1,33
 717 1284 717 1284 651 1284 c 0,34,35
 598 1284 598 1284 545.5 1253.5 c 128,-1,36
 493 1223 493 1223 457 1171 c 0,37,38
 384 1065 384 1065 371 793 c 1,0,1
641 172 m 0,39,40
 742 172 742 172 808 254.5 c 128,-1,41
 874 337 874 337 874 471 c 0,42,43
 874 562 874 562 843 627.5 c 128,-1,44
 812 693 812 693 758 727.5 c 128,-1,45
 704 762 704 762 639 762 c 0,46,47
 577 762 577 762 520.5 729 c 128,-1,48
 464 696 464 696 429.5 633.5 c 128,-1,49
 395 571 395 571 395 487 c 0,50,51
 395 352 395 352 465 262 c 128,-1,52
 535 172 535 172 641 172 c 0,39,40
EndSplineSet
Validated: 1
EndChar

StartChar: seven
Encoding: 55 55 26
Width: 1217
GlyphClass: 1
Flags: W
LayerCount: 2
Fore
SplineSet
319 1452 m 2,0,-1
 985 1452 l 2,1,2
 1081 1452 1081 1452 1124 1422 c 128,-1,3
 1167 1392 1167 1392 1167 1323 c 0,4,5
 1167 1281 1167 1281 1116.5 1212 c 128,-1,6
 1066 1143 1066 1143 1001.5 1059.5 c 128,-1,7
 937 976 937 976 868.5 852 c 128,-1,8
 800 728 800 728 743 549 c 0,9,10
 719 470 719 470 709 418 c 128,-1,11
 699 366 699 366 687 283 c 128,-1,12
 675 200 675 200 666 156 c 0,13,14
 645 54 645 54 606.5 14.5 c 128,-1,15
 568 -25 568 -25 504 -25 c 0,16,17
 443 -25 443 -25 406 17.5 c 128,-1,18
 369 60 369 60 369 143 c 0,19,20
 369 207 369 207 396 317 c 128,-1,21
 423 427 423 427 484 580.5 c 128,-1,22
 545 734 545 734 636.5 895.5 c 128,-1,23
 728 1057 728 1057 854 1217 c 1,24,-1
 319 1217 l 2,25,26
 235 1217 235 1217 193.5 1247.5 c 128,-1,27
 152 1278 152 1278 152 1343 c 0,28,29
 152 1412 152 1412 196 1432 c 128,-1,30
 240 1452 240 1452 319 1452 c 2,0,-1
EndSplineSet
Validated: 1
EndChar

StartChar: eight
Encoding: 56 56 27
Width: 1217
GlyphClass: 1
Flags: W
LayerCount: 2
Fore
SplineSet
137 1094 m 0,0,1
 137 1194 137 1194 191.5 1282.5 c 128,-1,2
 246 1371 246 1371 351.5 1424 c 128,-1,3
 457 1477 457 1477 598 1477 c 0,4,5
 717 1477 717 1477 807 1446 c 128,-1,6
 897 1415 897 1415 957 1360.5 c 128,-1,7
 1017 1306 1017 1306 1046 1237.5 c 128,-1,8
 1075 1169 1075 1169 1075 1092 c 0,9,10
 1075 994 1075 994 1024.5 917 c 128,-1,11
 974 840 974 840 874 791 c 1,12,13
 959 758 959 758 1015 704.5 c 128,-1,14
 1071 651 1071 651 1099.5 580.5 c 128,-1,15
 1128 510 1128 510 1128 424 c 0,16,17
 1128 298 1128 298 1067 195.5 c 128,-1,18
 1006 93 1006 93 888 35 c 128,-1,19
 770 -23 770 -23 610 -23 c 0,20,21
 444 -23 444 -23 326 35 c 128,-1,22
 208 93 208 93 148 194.5 c 128,-1,23
 88 296 88 296 88 422 c 0,24,25
 88 691 88 691 342 791 c 1,26,27
 137 887 137 887 137 1094 c 0,0,1
854 432 m 256,28,29
 854 510 854 510 822 568 c 128,-1,30
 790 626 790 626 732 657 c 128,-1,31
 674 688 674 688 602 688 c 0,32,33
 500 688 500 688 431 620 c 128,-1,34
 362 552 362 552 362 430 c 0,35,36
 362 352 362 352 394.5 292.5 c 128,-1,37
 427 233 427 233 483 200.5 c 128,-1,38
 539 168 539 168 608 168 c 0,39,40
 678 168 678 168 734 201 c 128,-1,41
 790 234 790 234 822 294 c 128,-1,42
 854 354 854 354 854 432 c 256,28,29
604 1286 m 0,43,44
 510 1286 510 1286 452.5 1227.5 c 128,-1,45
 395 1169 395 1169 395 1077 c 0,46,47
 395 992 395 992 454 935.5 c 128,-1,48
 513 879 513 879 606 879 c 0,49,50
 653 879 653 879 691.5 894 c 128,-1,51
 730 909 730 909 757.5 935.5 c 128,-1,52
 785 962 785 962 800 998.5 c 128,-1,53
 815 1035 815 1035 815 1079 c 0,54,55
 815 1138 815 1138 788.5 1185 c 128,-1,56
 762 1232 762 1232 714 1259 c 128,-1,57
 666 1286 666 1286 604 1286 c 0,43,44
EndSplineSet
Validated: 1
EndChar

StartChar: nine
Encoding: 57 57 28
Width: 1217
GlyphClass: 1
Flags: W
LayerCount: 2
Fore
SplineSet
834 657 m 1,0,1
 768 579 768 579 686.5 539.5 c 128,-1,2
 605 500 605 500 506 500 c 0,3,4
 412 500 412 500 330.5 536.5 c 128,-1,5
 249 573 249 573 189.5 638.5 c 128,-1,6
 130 704 130 704 98 791.5 c 128,-1,7
 66 879 66 879 66 975 c 0,8,9
 66 1078 66 1078 102 1170.5 c 128,-1,10
 138 1263 138 1263 205 1331 c 128,-1,11
 272 1399 272 1399 364.5 1437 c 128,-1,12
 457 1475 457 1475 569 1475 c 0,13,14
 698 1475 698 1475 799 1428 c 128,-1,15
 900 1381 900 1381 969 1291.5 c 128,-1,16
 1038 1202 1038 1202 1075 1066 c 128,-1,17
 1112 930 1112 930 1112 758 c 0,18,19
 1112 566 1112 566 1073 419.5 c 128,-1,20
 1034 273 1034 273 959.5 173.5 c 128,-1,21
 885 74 885 74 781 25.5 c 128,-1,22
 677 -23 677 -23 545 -23 c 0,23,24
 415 -23 415 -23 319 26.5 c 128,-1,25
 223 76 223 76 173 149.5 c 128,-1,26
 123 223 123 223 123 291 c 0,27,28
 123 333 123 333 154 366 c 128,-1,29
 185 399 185 399 233 399 c 0,30,31
 277 399 277 399 312 374.5 c 128,-1,32
 347 350 347 350 365 301 c 0,33,34
 387 241 387 241 438 204.5 c 128,-1,35
 489 168 489 168 553 168 c 0,36,37
 610 168 610 168 661 197 c 128,-1,38
 712 226 712 226 748 279 c 0,39,40
 820 386 820 386 834 657 c 1,0,1
811 963 m 0,41,42
 811 1031 811 1031 792.5 1088.5 c 128,-1,43
 774 1146 774 1146 740.5 1188 c 128,-1,44
 707 1230 707 1230 660.5 1254 c 128,-1,45
 614 1278 614 1278 559 1278 c 0,46,47
 464 1278 464 1278 398 1196.5 c 128,-1,48
 332 1115 332 1115 332 981 c 0,49,50
 332 848 332 848 398 769 c 128,-1,51
 464 690 464 690 565 690 c 0,52,53
 627 690 627 690 683.5 722.5 c 128,-1,54
 740 755 740 755 775.5 817 c 128,-1,55
 811 879 811 879 811 963 c 0,41,42
EndSplineSet
Validated: 1
EndChar

StartChar: colon
Encoding: 58 58 29
Width: 641
GlyphClass: 1
Flags: W
LayerCount: 2
Fore
SplineSet
322 -25 m 0,0,1
 260 -25 260 -25 215 15 c 128,-1,2
 170 55 170 55 170 127 c 0,3,4
 170 188 170 188 213 232 c 128,-1,5
 256 276 256 276 319 276 c 256,6,7
 382 276 382 276 426.5 232.5 c 128,-1,8
 471 189 471 189 471 127 c 0,9,10
 471 56 471 56 426.5 15.5 c 128,-1,11
 382 -25 382 -25 322 -25 c 0,0,1
170 936 m 0,12,13
 170 1007 170 1007 214.5 1046 c 128,-1,14
 259 1085 259 1085 322 1085 c 0,15,16
 383 1085 383 1085 427 1045.5 c 128,-1,17
 471 1006 471 1006 471 936 c 0,18,19
 471 880 471 880 423 833 c 128,-1,20
 375 786 375 786 319 786 c 0,21,22
 258 786 258 786 214 831 c 128,-1,23
 170 876 170 876 170 936 c 0,12,13
EndSplineSet
Validated: 1
EndChar

StartChar: semicolon
Encoding: 59 59 30
Width: 641
GlyphClass: 1
Flags: W
LayerCount: 2
Fore
SplineSet
307 -27 m 1,0,1
 241 -27 241 -27 193 13.5 c 128,-1,2
 145 54 145 54 145 127 c 0,3,4
 145 190 145 190 192 233 c 128,-1,5
 239 276 239 276 303 276 c 0,6,7
 351 276 351 276 390 250 c 128,-1,8
 429 224 429 224 451 173.5 c 128,-1,9
 473 123 473 123 473 49 c 0,10,11
 473 -50 473 -50 431 -136.5 c 128,-1,12
 389 -223 389 -223 328.5 -273.5 c 128,-1,13
 268 -324 268 -324 219 -324 c 0,14,15
 188 -324 188 -324 169 -303.5 c 128,-1,16
 150 -283 150 -283 150 -256 c 0,17,18
 150 -215 150 -215 190 -190 c 0,19,20
 307 -126 307 -126 307 -27 c 1,0,1
170 936 m 0,21,22
 170 1007 170 1007 214.5 1046 c 128,-1,23
 259 1085 259 1085 322 1085 c 0,24,25
 383 1085 383 1085 427 1045.5 c 128,-1,26
 471 1006 471 1006 471 936 c 0,27,28
 471 879 471 879 424.5 832.5 c 128,-1,29
 378 786 378 786 322 786 c 0,30,31
 280 786 280 786 245.5 806 c 128,-1,32
 211 826 211 826 190.5 859.5 c 128,-1,33
 170 893 170 893 170 936 c 0,21,22
EndSplineSet
Validated: 1
EndChar

StartChar: less
Encoding: 60 60 31
Width: 1194
GlyphClass: 1
Flags: W
LayerCount: 2
Fore
SplineSet
1100 451 m 1,0,-1
 1100 168 l 1,1,-1
 94 604 l 1,2,-1
 94 846 l 1,3,-1
 1100 1282 l 1,4,-1
 1100 997 l 1,5,-1
 399 727 l 1,6,-1
 1100 451 l 1,0,-1
EndSplineSet
Validated: 1
EndChar

StartChar: equal
Encoding: 61 61 32
Width: 1194
GlyphClass: 1
Flags: W
LayerCount: 2
Fore
SplineSet
1110 371 m 1,0,-1
 84 371 l 1,1,-1
 84 633 l 1,2,-1
 1110 633 l 1,3,-1
 1110 371 l 1,0,-1
1110 815 m 1,4,-1
 84 815 l 1,5,-1
 84 1077 l 1,6,-1
 1110 1077 l 1,7,-1
 1110 815 l 1,4,-1
EndSplineSet
Validated: 1
EndChar

StartChar: greater
Encoding: 62 62 33
Width: 1194
GlyphClass: 1
Flags: W
LayerCount: 2
Fore
SplineSet
1100 604 m 1,0,-1
 94 166 l 1,1,-1
 94 449 l 1,2,-1
 797 725 l 1,3,-1
 94 997 l 1,4,-1
 94 1278 l 1,5,-1
 1100 844 l 1,6,-1
 1100 604 l 1,0,-1
EndSplineSet
Validated: 1
EndChar

StartChar: question
Encoding: 63 63 34
Width: 1174
GlyphClass: 1
Flags: W
LayerCount: 2
Fore
SplineSet
90 1073 m 0,0,1
 90 1168 90 1168 151 1265.5 c 128,-1,2
 212 1363 212 1363 329 1427 c 128,-1,3
 446 1491 446 1491 602 1491 c 0,4,5
 747 1491 747 1491 858 1437.5 c 128,-1,6
 969 1384 969 1384 1029.5 1292 c 128,-1,7
 1090 1200 1090 1200 1090 1092 c 0,8,9
 1090 1007 1090 1007 1055.5 943 c 128,-1,10
 1021 879 1021 879 973.5 832.5 c 128,-1,11
 926 786 926 786 803 676 c 0,12,13
 769 645 769 645 748.5 621.5 c 128,-1,14
 728 598 728 598 718 578.5 c 128,-1,15
 708 559 708 559 702.5 539.5 c 128,-1,16
 697 520 697 520 686 471 c 0,17,18
 667 367 667 367 567 367 c 0,19,20
 515 367 515 367 479.5 401 c 128,-1,21
 444 435 444 435 444 502 c 0,22,23
 444 586 444 586 470 647.5 c 128,-1,24
 496 709 496 709 539 755.5 c 128,-1,25
 582 802 582 802 655 866 c 0,26,27
 719 922 719 922 747.5 950.5 c 128,-1,28
 776 979 776 979 795.5 1014 c 128,-1,29
 815 1049 815 1049 815 1090 c 0,30,31
 815 1170 815 1170 755.5 1225 c 128,-1,32
 696 1280 696 1280 602 1280 c 0,33,34
 492 1280 492 1280 440 1224.5 c 128,-1,35
 388 1169 388 1169 352 1061 c 0,36,37
 318 948 318 948 223 948 c 0,38,39
 167 948 167 948 128.5 987.5 c 128,-1,40
 90 1027 90 1027 90 1073 c 0,0,1
578 -23 m 0,41,42
 517 -23 517 -23 471.5 16.5 c 128,-1,43
 426 56 426 56 426 127 c 0,44,45
 426 190 426 190 470 233 c 128,-1,46
 514 276 514 276 578 276 c 0,47,48
 641 276 641 276 684 233 c 128,-1,49
 727 190 727 190 727 127 c 0,50,51
 727 57 727 57 682 17 c 128,-1,52
 637 -23 637 -23 578 -23 c 0,41,42
EndSplineSet
Validated: 1
EndChar

StartChar: at
Encoding: 64 64 35
Width: 2005
GlyphClass: 1
Flags: W
LayerCount: 2
Fore
SplineSet
1243 948 m 1,0,-1
 1268 1059 l 1,1,-1
 1532 1059 l 1,2,-1
 1380 342 l 2,3,4
 1366 274 1366 274 1366 252 c 0,5,6
 1366 229 1366 229 1377.5 216 c 128,-1,7
 1389 203 1389 203 1405 203 c 0,8,9
 1459 203 1459 203 1544.5 273.5 c 128,-1,10
 1630 344 1630 344 1693.5 465.5 c 128,-1,11
 1757 587 1757 587 1757 731 c 0,12,13
 1757 851 1757 851 1711.5 957 c 128,-1,14
 1666 1063 1666 1063 1580 1141 c 128,-1,15
 1494 1219 1494 1219 1367.5 1263 c 128,-1,16
 1241 1307 1241 1307 1081 1307 c 0,17,18
 918 1307 918 1307 782 1264.5 c 128,-1,19
 646 1222 646 1222 543 1142.5 c 128,-1,20
 440 1063 440 1063 371 946 c 0,21,22
 310 844 310 844 278 720 c 128,-1,23
 246 596 246 596 246 467 c 0,24,25
 246 295 246 295 314.5 152.5 c 128,-1,26
 383 10 383 10 513.5 -86.5 c 128,-1,27
 644 -183 644 -183 829 -223.5 c 128,-1,28
 1014 -264 1014 -264 1247 -240 c 0,29,30
 1432 -218 1432 -218 1560.5 -156 c 128,-1,31
 1689 -94 1689 -94 1778 18 c 1,32,-1
 1991 18 l 1,33,34
 1939 -89 1939 -89 1855.5 -173 c 128,-1,35
 1772 -257 1772 -257 1660 -314.5 c 128,-1,36
 1548 -372 1548 -372 1409 -402 c 128,-1,37
 1270 -432 1270 -432 1106 -432 c 0,38,39
 860 -432 860 -432 663 -367.5 c 128,-1,40
 466 -303 466 -303 331.5 -181.5 c 128,-1,41
 197 -60 197 -60 128 108.5 c 128,-1,42
 59 277 59 277 59 481 c 0,43,44
 59 694 59 694 130 879 c 128,-1,45
 201 1064 201 1064 334.5 1200.5 c 128,-1,46
 468 1337 468 1337 660.5 1414 c 128,-1,47
 853 1491 853 1491 1085 1491 c 0,48,49
 1275 1491 1275 1491 1433.5 1435.5 c 128,-1,50
 1592 1380 1592 1380 1705 1276 c 128,-1,51
 1818 1172 1818 1172 1877.5 1029.5 c 128,-1,52
 1937 887 1937 887 1937 715 c 0,53,54
 1937 581 1937 581 1889 452.5 c 128,-1,55
 1841 324 1841 324 1751.5 221.5 c 128,-1,56
 1662 119 1662 119 1541 59.5 c 128,-1,57
 1420 0 1420 0 1280 0 c 0,58,59
 1199 0 1199 0 1154 27.5 c 128,-1,60
 1109 55 1109 55 1094 115 c 1,61,62
 1007 29 1007 29 894 6.5 c 128,-1,63
 781 -16 781 -16 675 27.5 c 128,-1,64
 569 71 569 71 503.5 174 c 128,-1,65
 438 277 438 277 438 428 c 0,66,67
 438 585 438 585 505.5 737 c 128,-1,68
 573 889 573 889 697.5 986 c 128,-1,69
 822 1083 822 1083 979 1083 c 0,70,71
 1159 1083 1159 1083 1243 948 c 1,0,-1
696 430 m 0,72,73
 696 310 696 310 746 246 c 128,-1,74
 796 182 796 182 877 182 c 0,75,76
 971 182 971 182 1042.5 257 c 128,-1,77
 1114 332 1114 332 1151 446.5 c 128,-1,78
 1188 561 1188 561 1188 668 c 0,79,80
 1188 721 1188 721 1175.5 763.5 c 128,-1,81
 1163 806 1163 806 1138.5 838 c 128,-1,82
 1114 870 1114 870 1079.5 886.5 c 128,-1,83
 1045 903 1045 903 1001 903 c 0,84,85
 913 903 913 903 842.5 834.5 c 128,-1,86
 772 766 772 766 734 656.5 c 128,-1,87
 696 547 696 547 696 430 c 0,72,73
EndSplineSet
Validated: 33
EndChar

StartChar: A
Encoding: 65 65 36
Width: 1473
GlyphClass: 1
Flags: W
LayerCount: 2
Fore
SplineSet
1098 166 m 2,0,-1
 1028 350 l 1,1,-1
 432 350 l 1,2,-1
 362 162 l 2,3,4
 321 52 321 52 292 13.5 c 128,-1,5
 263 -25 263 -25 197 -25 c 0,6,7
 141 -25 141 -25 98 16 c 128,-1,8
 55 57 55 57 55 109 c 0,9,10
 55 139 55 139 65 171 c 128,-1,11
 75 203 75 203 98 260 c 2,12,-1
 473 1212 l 2,13,14
 489 1253 489 1253 511.5 1310.5 c 128,-1,15
 534 1368 534 1368 559.5 1406 c 128,-1,16
 585 1444 585 1444 626.5 1467.5 c 128,-1,17
 668 1491 668 1491 729 1491 c 0,18,19
 791 1491 791 1491 832.5 1467.5 c 128,-1,20
 874 1444 874 1444 899.5 1407 c 128,-1,21
 925 1370 925 1370 942.5 1327.5 c 128,-1,22
 960 1285 960 1285 987 1214 c 2,23,-1
 1370 268 l 2,24,25
 1415 160 1415 160 1415 111 c 0,26,27
 1415 60 1415 60 1372.5 17.5 c 128,-1,28
 1330 -25 1330 -25 1270 -25 c 0,29,30
 1235 -25 1235 -25 1210 -12.5 c 128,-1,31
 1185 0 1185 0 1168 21.5 c 128,-1,32
 1151 43 1151 43 1131.5 87.5 c 128,-1,33
 1112 132 1112 132 1098 166 c 2,0,-1
510 573 m 1,34,-1
 948 573 l 1,35,-1
 727 1178 l 1,36,-1
 510 573 l 1,34,-1
EndSplineSet
Validated: 1
EndChar

StartChar: B
Encoding: 66 66 37
Width: 1473
GlyphClass: 1
Flags: W
LayerCount: 2
Fore
SplineSet
786 0 m 2,0,-1
 338 0 l 2,1,2
 241 0 241 0 199.5 43.5 c 128,-1,3
 158 87 158 87 158 182 c 2,4,-1
 158 1284 l 2,5,6
 158 1381 158 1381 200.5 1423.5 c 128,-1,7
 243 1466 243 1466 338 1466 c 2,8,-1
 813 1466 l 2,9,10
 918 1466 918 1466 995 1453 c 128,-1,11
 1072 1440 1072 1440 1133 1403 c 0,12,13
 1185 1372 1185 1372 1225 1324.5 c 128,-1,14
 1265 1277 1265 1277 1286 1219.5 c 128,-1,15
 1307 1162 1307 1162 1307 1098 c 0,16,17
 1307 878 1307 878 1087 776 c 1,18,19
 1376 684 1376 684 1376 418 c 0,20,21
 1376 295 1376 295 1313 196.5 c 128,-1,22
 1250 98 1250 98 1143 51 c 0,23,24
 1076 23 1076 23 989 11.5 c 128,-1,25
 902 0 902 0 786 0 c 2,0,-1
764 651 m 2,26,-1
 455 651 l 1,27,-1
 455 223 l 1,28,-1
 774 223 l 2,29,30
 1075 223 1075 223 1075 440 c 0,31,32
 1075 551 1075 551 997 601 c 128,-1,33
 919 651 919 651 764 651 c 2,26,-1
455 1243 m 1,34,-1
 455 864 l 1,35,-1
 727 864 l 2,36,37
 838 864 838 864 898.5 885 c 128,-1,38
 959 906 959 906 991 965 c 0,39,40
 1016 1007 1016 1007 1016 1059 c 0,41,42
 1016 1170 1016 1170 937 1206.5 c 128,-1,43
 858 1243 858 1243 696 1243 c 2,44,-1
 455 1243 l 1,34,-1
EndSplineSet
Validated: 1
EndChar

StartChar: C
Encoding: 67 67 38
Width: 1516
GlyphClass: 1
Flags: W
LayerCount: 2
Fore
SplineSet
1409 463 m 0,0,1
 1409 393 1409 393 1374.5 311.5 c 128,-1,2
 1340 230 1340 230 1266 151.5 c 128,-1,3
 1192 73 1192 73 1077 24 c 128,-1,4
 962 -25 962 -25 809 -25 c 0,5,6
 693 -25 693 -25 598 -3 c 128,-1,7
 503 19 503 19 425.5 65.5 c 128,-1,8
 348 112 348 112 283 188 c 0,9,10
 225 257 225 257 184 342.5 c 128,-1,11
 143 428 143 428 122.5 525 c 128,-1,12
 102 622 102 622 102 731 c 0,13,14
 102 908 102 908 153.5 1048 c 128,-1,15
 205 1188 205 1188 301 1287.5 c 128,-1,16
 397 1387 397 1387 526 1439 c 128,-1,17
 655 1491 655 1491 801 1491 c 0,18,19
 979 1491 979 1491 1118 1420 c 128,-1,20
 1257 1349 1257 1349 1331 1244.5 c 128,-1,21
 1405 1140 1405 1140 1405 1047 c 0,22,23
 1405 996 1405 996 1369 957 c 128,-1,24
 1333 918 1333 918 1282 918 c 0,25,26
 1225 918 1225 918 1196.5 945 c 128,-1,27
 1168 972 1168 972 1133 1038 c 0,28,29
 1075 1147 1075 1147 996.5 1201 c 128,-1,30
 918 1255 918 1255 803 1255 c 0,31,32
 620 1255 620 1255 511.5 1116 c 128,-1,33
 403 977 403 977 403 721 c 0,34,35
 403 550 403 550 451 436.5 c 128,-1,36
 499 323 499 323 587 267 c 128,-1,37
 675 211 675 211 793 211 c 0,38,39
 921 211 921 211 1009.5 274.5 c 128,-1,40
 1098 338 1098 338 1143 461 c 0,41,42
 1162 519 1162 519 1190 555.5 c 128,-1,43
 1218 592 1218 592 1280 592 c 0,44,45
 1333 592 1333 592 1371 555 c 128,-1,46
 1409 518 1409 518 1409 463 c 0,0,1
EndSplineSet
Validated: 1
EndChar

StartChar: D
Encoding: 68 68 39
Width: 1516
GlyphClass: 1
Flags: W
LayerCount: 2
Fore
SplineSet
344 1466 m 2,0,-1
 731 1466 l 2,1,2
 882 1466 882 1466 990 1438 c 128,-1,3
 1098 1410 1098 1410 1186 1333 c 0,4,5
 1415 1137 1415 1137 1415 737 c 0,6,7
 1415 605 1415 605 1392 496 c 128,-1,8
 1369 387 1369 387 1321 299.5 c 128,-1,9
 1273 212 1273 212 1198 143 c 0,10,11
 1139 90 1139 90 1069 58 c 128,-1,12
 999 26 999 26 918.5 13 c 128,-1,13
 838 0 838 0 737 0 c 2,14,-1
 350 0 l 2,15,16
 269 0 269 0 228 24.5 c 128,-1,17
 187 49 187 49 174.5 93.5 c 128,-1,18
 162 138 162 138 162 209 c 2,19,-1
 162 1284 l 2,20,21
 162 1380 162 1380 205 1423 c 128,-1,22
 248 1466 248 1466 344 1466 c 2,0,-1
459 1231 m 1,23,-1
 459 236 l 1,24,-1
 684 236 l 2,25,26
 758 236 758 236 800 240 c 128,-1,27
 842 244 842 244 887 260 c 128,-1,28
 932 276 932 276 965 305 c 0,29,30
 1114 431 1114 431 1114 739 c 0,31,32
 1114 956 1114 956 1048.5 1064 c 128,-1,33
 983 1172 983 1172 887 1201.5 c 128,-1,34
 791 1231 791 1231 655 1231 c 2,35,-1
 459 1231 l 1,23,-1
EndSplineSet
Validated: 1
EndChar

StartChar: E
Encoding: 69 69 40
Width: 1366
GlyphClass: 1
Flags: W
LayerCount: 2
Fore
SplineSet
1126 1237 m 2,0,-1
 457 1237 l 1,1,-1
 457 877 l 1,2,-1
 1073 877 l 2,3,4
 1141 877 1141 877 1174.5 846.5 c 128,-1,5
 1208 816 1208 816 1208 766 c 256,6,7
 1208 716 1208 716 1175 684.5 c 128,-1,8
 1142 653 1142 653 1073 653 c 2,9,-1
 457 653 l 1,10,-1
 457 236 l 1,11,-1
 1149 236 l 2,12,13
 1219 236 1219 236 1254.5 203.5 c 128,-1,14
 1290 171 1290 171 1290 117 c 0,15,16
 1290 65 1290 65 1254.5 32.5 c 128,-1,17
 1219 0 1219 0 1149 0 c 2,18,-1
 342 0 l 2,19,20
 245 0 245 0 202.5 43 c 128,-1,21
 160 86 160 86 160 182 c 2,22,-1
 160 1284 l 2,23,24
 160 1348 160 1348 179 1388.5 c 128,-1,25
 198 1429 198 1429 238.5 1447.5 c 128,-1,26
 279 1466 279 1466 342 1466 c 2,27,-1
 1126 1466 l 2,28,29
 1197 1466 1197 1466 1231.5 1434.5 c 128,-1,30
 1266 1403 1266 1403 1266 1352 c 0,31,32
 1266 1300 1266 1300 1231.5 1268.5 c 128,-1,33
 1197 1237 1197 1237 1126 1237 c 2,0,-1
EndSplineSet
Validated: 1
EndChar

StartChar: F
Encoding: 70 70 41
Width: 1237
GlyphClass: 1
Flags: W
LayerCount: 2
Fore
SplineSet
1036 1237 m 2,0,-1
 451 1237 l 1,1,-1
 451 862 l 1,2,-1
 940 862 l 2,3,4
 1008 862 1008 862 1041.5 831.5 c 128,-1,5
 1075 801 1075 801 1075 750 c 256,6,7
 1075 699 1075 699 1041 669 c 128,-1,8
 1007 639 1007 639 940 639 c 2,9,-1
 451 639 l 1,10,-1
 451 156 l 2,11,12
 451 64 451 64 409.5 19.5 c 128,-1,13
 368 -25 368 -25 303 -25 c 0,14,15
 237 -25 237 -25 195.5 20 c 128,-1,16
 154 65 154 65 154 156 c 2,17,-1
 154 1284 l 2,18,19
 154 1348 154 1348 173 1388.5 c 128,-1,20
 192 1429 192 1429 232.5 1447.5 c 128,-1,21
 273 1466 273 1466 336 1466 c 2,22,-1
 1036 1466 l 2,23,24
 1107 1466 1107 1466 1141.5 1434.5 c 128,-1,25
 1176 1403 1176 1403 1176 1352 c 0,26,27
 1176 1300 1176 1300 1141.5 1268.5 c 128,-1,28
 1107 1237 1107 1237 1036 1237 c 2,0,-1
EndSplineSet
Validated: 1
EndChar

StartChar: G
Encoding: 71 71 42
Width: 1622
GlyphClass: 1
Flags: W
LayerCount: 2
Fore
SplineSet
1499 596 m 2,0,-1
 1499 315 l 2,1,2
 1499 259 1499 259 1488 225.5 c 128,-1,3
 1477 192 1477 192 1447.5 165 c 128,-1,4
 1418 138 1418 138 1372 113 c 0,5,6
 1239 41 1239 41 1116 8 c 128,-1,7
 993 -25 993 -25 848 -25 c 0,8,9
 679 -25 679 -25 540 27 c 128,-1,10
 401 79 401 79 303 178 c 128,-1,11
 205 277 205 277 152.5 418 c 128,-1,12
 100 559 100 559 100 733 c 0,13,14
 100 904 100 904 151 1046 c 128,-1,15
 202 1188 202 1188 301 1287 c 128,-1,16
 400 1386 400 1386 542 1438.5 c 128,-1,17
 684 1491 684 1491 864 1491 c 0,18,19
 1012 1491 1012 1491 1126 1451.5 c 128,-1,20
 1240 1412 1240 1412 1311 1352 c 128,-1,21
 1382 1292 1382 1292 1418 1225 c 128,-1,22
 1454 1158 1454 1158 1454 1106 c 0,23,24
 1454 1050 1454 1050 1412.5 1010.5 c 128,-1,25
 1371 971 1371 971 1313 971 c 0,26,27
 1281 971 1281 971 1251.5 986 c 128,-1,28
 1222 1001 1222 1001 1202 1028 c 0,29,30
 1147 1114 1147 1114 1109 1158 c 128,-1,31
 1071 1202 1071 1202 1006.5 1232 c 128,-1,32
 942 1262 942 1262 842 1262 c 0,33,34
 739 1262 739 1262 658 1226.5 c 128,-1,35
 577 1191 577 1191 519.5 1123.5 c 128,-1,36
 462 1056 462 1056 431.5 958 c 128,-1,37
 401 860 401 860 401 741 c 0,38,39
 401 483 401 483 519.5 344 c 128,-1,40
 638 205 638 205 850 205 c 0,41,42
 953 205 953 205 1043.5 232 c 128,-1,43
 1134 259 1134 259 1227 309 c 1,44,-1
 1227 547 l 1,45,-1
 997 547 l 2,46,47
 914 547 914 547 871.5 572 c 128,-1,48
 829 597 829 597 829 657 c 0,49,50
 829 706 829 706 864.5 738 c 128,-1,51
 900 770 900 770 961 770 c 2,52,-1
 1298 770 l 2,53,54
 1360 770 1360 770 1403 759 c 128,-1,55
 1446 748 1446 748 1472.5 710 c 128,-1,56
 1499 672 1499 672 1499 596 c 2,0,-1
EndSplineSet
Validated: 1
EndChar

StartChar: H
Encoding: 72 72 43
Width: 1556
GlyphClass: 1
Flags: W
LayerCount: 2
Fore
SplineSet
459 1311 m 2,0,-1
 459 891 l 1,1,-1
 1100 891 l 1,2,-1
 1100 1311 l 2,3,4
 1100 1401 1100 1401 1140.5 1446 c 128,-1,5
 1181 1491 1181 1491 1247 1491 c 0,6,7
 1314 1491 1314 1491 1355.5 1446.5 c 128,-1,8
 1397 1402 1397 1402 1397 1311 c 2,9,-1
 1397 156 l 2,10,11
 1397 65 1397 65 1355 20 c 128,-1,12
 1313 -25 1313 -25 1247 -25 c 0,13,14
 1180 -25 1180 -25 1140 20.5 c 128,-1,15
 1100 66 1100 66 1100 156 c 2,16,-1
 1100 649 l 1,17,-1
 459 649 l 1,18,-1
 459 156 l 2,19,20
 459 65 459 65 417 20 c 128,-1,21
 375 -25 375 -25 309 -25 c 0,22,23
 242 -25 242 -25 202 20.5 c 128,-1,24
 162 66 162 66 162 156 c 2,25,-1
 162 1311 l 2,26,27
 162 1401 162 1401 201.5 1446 c 128,-1,28
 241 1491 241 1491 309 1491 c 0,29,30
 376 1491 376 1491 417.5 1446.5 c 128,-1,31
 459 1402 459 1402 459 1311 c 2,0,-1
EndSplineSet
Validated: 1
EndChar

StartChar: I
Encoding: 73 73 44
Width: 641
GlyphClass: 1
Flags: W
LayerCount: 2
Fore
SplineSet
172 156 m 2,0,-1
 172 1311 l 2,1,2
 172 1401 172 1401 213 1446 c 128,-1,3
 254 1491 254 1491 319 1491 c 0,4,5
 386 1491 386 1491 427.5 1446.5 c 128,-1,6
 469 1402 469 1402 469 1311 c 2,7,-1
 469 156 l 2,8,9
 469 65 469 65 427.5 20 c 128,-1,10
 386 -25 386 -25 319 -25 c 0,11,12
 255 -25 255 -25 213.5 20.5 c 128,-1,13
 172 66 172 66 172 156 c 2,0,-1
EndSplineSet
Validated: 1
EndChar

StartChar: J
Encoding: 74 74 45
Width: 1174
GlyphClass: 1
Flags: W
LayerCount: 2
Fore
SplineSet
1012 1311 m 2,0,-1
 1012 543 l 2,1,2
 1012 443 1012 443 1003.5 373 c 128,-1,3
 995 303 995 303 965 231 c 0,4,5
 915 110 915 110 800 42.5 c 128,-1,6
 685 -25 685 -25 520 -25 c 0,7,8
 371 -25 371 -25 271.5 22 c 128,-1,9
 172 69 172 69 111 174 c 0,10,11
 79 230 79 230 59 303 c 128,-1,12
 39 376 39 376 39 442 c 0,13,14
 39 512 39 512 78 549 c 128,-1,15
 117 586 117 586 178 586 c 0,16,17
 237 586 237 586 267 552 c 128,-1,18
 297 518 297 518 313 446 c 0,19,20
 330 369 330 369 347 323 c 128,-1,21
 364 277 364 277 404 244 c 128,-1,22
 444 211 444 211 518 211 c 0,23,24
 715 211 715 211 715 500 c 2,25,-1
 715 1311 l 2,26,27
 715 1401 715 1401 754.5 1446 c 128,-1,28
 794 1491 794 1491 862 1491 c 0,29,30
 931 1491 931 1491 971.5 1446 c 128,-1,31
 1012 1401 1012 1401 1012 1311 c 2,0,-1
EndSplineSet
Validated: 1
EndChar

StartChar: K
Encoding: 75 75 46
Width: 1516
GlyphClass: 1
Flags: W
LayerCount: 2
Fore
SplineSet
459 1311 m 2,0,-1
 459 797 l 1,1,-1
 1042 1405 l 2,2,3
 1084 1449 1084 1449 1113.5 1470 c 128,-1,4
 1143 1491 1143 1491 1192 1491 c 0,5,6
 1256 1491 1256 1491 1295.5 1453.5 c 128,-1,7
 1335 1416 1335 1416 1335 1362 c 0,8,9
 1335 1297 1335 1297 1268 1233 c 2,10,-1
 907 891 l 1,11,-1
 1323 295 l 2,12,13
 1367 233 1367 233 1389 186.5 c 128,-1,14
 1411 140 1411 140 1411 96 c 0,15,16
 1411 47 1411 47 1372.5 11 c 128,-1,17
 1334 -25 1334 -25 1268 -25 c 0,18,19
 1206 -25 1206 -25 1167 1.5 c 128,-1,20
 1128 28 1128 28 1101 72 c 128,-1,21
 1074 116 1074 116 1053 152 c 2,22,-1
 702 692 l 1,23,-1
 459 459 l 1,24,-1
 459 156 l 2,25,26
 459 64 459 64 417 19.5 c 128,-1,27
 375 -25 375 -25 309 -25 c 0,28,29
 271 -25 271 -25 236 -5 c 128,-1,30
 201 15 201 15 182 49 c 0,31,32
 168 77 168 77 165 114 c 128,-1,33
 162 151 162 151 162 221 c 2,34,-1
 162 1311 l 2,35,36
 162 1401 162 1401 201.5 1446 c 128,-1,37
 241 1491 241 1491 309 1491 c 0,38,39
 376 1491 376 1491 417.5 1446.5 c 128,-1,40
 459 1402 459 1402 459 1311 c 2,0,-1
EndSplineSet
Validated: 1
EndChar

StartChar: L
Encoding: 76 76 47
Width: 1237
GlyphClass: 1
Flags: W
LayerCount: 2
Fore
SplineSet
451 1311 m 2,0,-1
 451 244 l 1,1,-1
 1053 244 l 2,2,3
 1125 244 1125 244 1163.5 209 c 128,-1,4
 1202 174 1202 174 1202 121 c 0,5,6
 1202 67 1202 67 1164 33.5 c 128,-1,7
 1126 0 1126 0 1053 0 c 2,8,-1
 336 0 l 2,9,10
 239 0 239 0 196.5 43 c 128,-1,11
 154 86 154 86 154 182 c 2,12,-1
 154 1311 l 2,13,14
 154 1401 154 1401 194.5 1446 c 128,-1,15
 235 1491 235 1491 301 1491 c 0,16,17
 368 1491 368 1491 409.5 1446.5 c 128,-1,18
 451 1402 451 1402 451 1311 c 2,0,-1
EndSplineSet
Validated: 1
EndChar

StartChar: M
Encoding: 77 77 48
Width: 1706
GlyphClass: 1
Flags: W
LayerCount: 2
Fore
SplineSet
655 221 m 2,0,-1
 420 1155 l 1,1,-1
 420 143 l 2,2,3
 420 59 420 59 382.5 17 c 128,-1,4
 345 -25 345 -25 283 -25 c 0,5,6
 223 -25 223 -25 185 16.5 c 128,-1,7
 147 58 147 58 147 143 c 2,8,-1
 147 1303 l 2,9,10
 147 1399 147 1399 197 1432.5 c 128,-1,11
 247 1466 247 1466 332 1466 c 2,12,-1
 424 1466 l 2,13,14
 507 1466 507 1466 544.5 1451 c 128,-1,15
 582 1436 582 1436 600 1397 c 128,-1,16
 618 1358 618 1358 641 1270 c 2,17,-1
 854 467 l 1,18,-1
 1067 1270 l 2,19,20
 1090 1358 1090 1358 1108 1397 c 128,-1,21
 1126 1436 1126 1436 1163.5 1451 c 128,-1,22
 1201 1466 1201 1466 1284 1466 c 2,23,-1
 1376 1466 l 2,24,25
 1461 1466 1461 1466 1511 1432.5 c 128,-1,26
 1561 1399 1561 1399 1561 1303 c 2,27,-1
 1561 143 l 2,28,29
 1561 59 1561 59 1523.5 17 c 128,-1,30
 1486 -25 1486 -25 1423 -25 c 0,31,32
 1364 -25 1364 -25 1326 17 c 128,-1,33
 1288 59 1288 59 1288 143 c 2,34,-1
 1288 1155 l 1,35,-1
 1053 221 l 2,36,37
 1030 130 1030 130 1015.5 87.5 c 128,-1,38
 1001 45 1001 45 962 10 c 128,-1,39
 923 -25 923 -25 854 -25 c 0,40,41
 802 -25 802 -25 766 -2.5 c 128,-1,42
 730 20 730 20 710 55 c 128,-1,43
 690 90 690 90 678.5 132.5 c 128,-1,44
 667 175 667 175 655 221 c 2,0,-1
EndSplineSet
Validated: 1
EndChar

StartChar: N
Encoding: 78 78 49
Width: 1556
GlyphClass: 1
Flags: W
LayerCount: 2
Fore
SplineSet
547 1313 m 2,0,-1
 1118 449 l 1,1,-1
 1118 1321 l 2,2,3
 1118 1406 1118 1406 1154.5 1448.5 c 128,-1,4
 1191 1491 1191 1491 1253 1491 c 0,5,6
 1317 1491 1317 1491 1354 1448.5 c 128,-1,7
 1391 1406 1391 1406 1391 1321 c 2,8,-1
 1391 168 l 2,9,10
 1391 -25 1391 -25 1231 -25 c 0,11,12
 1191 -25 1191 -25 1159 -13.5 c 128,-1,13
 1127 -2 1127 -2 1099 23 c 128,-1,14
 1071 48 1071 48 1047 81.5 c 128,-1,15
 1023 115 1023 115 999 150 c 2,16,-1
 442 1004 l 1,17,-1
 442 145 l 2,18,19
 442 61 442 61 403 18 c 128,-1,20
 364 -25 364 -25 303 -25 c 0,21,22
 240 -25 240 -25 202 18.5 c 128,-1,23
 164 62 164 62 164 145 c 2,24,-1
 164 1276 l 2,25,26
 164 1348 164 1348 180 1389 c 0,27,28
 199 1434 199 1434 243 1462.5 c 128,-1,29
 287 1491 287 1491 338 1491 c 0,30,31
 378 1491 378 1491 406.5 1478 c 128,-1,32
 435 1465 435 1465 456.5 1443 c 128,-1,33
 478 1421 478 1421 500.5 1386 c 128,-1,34
 523 1351 523 1351 547 1313 c 2,0,-1
EndSplineSet
Validated: 1
EndChar

StartChar: O
Encoding: 79 79 50
Width: 1622
GlyphClass: 1
Flags: W
LayerCount: 2
Fore
SplineSet
805 1491 m 0,0,1
 1033 1491 1033 1491 1196.5 1398.5 c 128,-1,2
 1360 1306 1360 1306 1444 1135.5 c 128,-1,3
 1528 965 1528 965 1528 735 c 0,4,5
 1528 565 1528 565 1482 426 c 128,-1,6
 1436 287 1436 287 1344 185 c 128,-1,7
 1252 83 1252 83 1118 29 c 128,-1,8
 984 -25 984 -25 811 -25 c 0,9,10
 639 -25 639 -25 503 30.5 c 128,-1,11
 367 86 367 86 276 187 c 128,-1,12
 185 288 185 288 138.5 430 c 128,-1,13
 92 572 92 572 92 737 c 0,14,15
 92 906 92 906 140.5 1047 c 128,-1,16
 189 1188 189 1188 281 1287 c 128,-1,17
 373 1386 373 1386 505 1438.5 c 128,-1,18
 637 1491 637 1491 805 1491 c 0,0,1
1227 737 m 0,19,20
 1227 898 1227 898 1175 1016 c 128,-1,21
 1123 1134 1123 1134 1026.5 1194.5 c 128,-1,22
 930 1255 930 1255 805 1255 c 0,23,24
 716 1255 716 1255 640.5 1221.5 c 128,-1,25
 565 1188 565 1188 510.5 1124 c 128,-1,26
 456 1060 456 1060 424.5 960.5 c 128,-1,27
 393 861 393 861 393 737 c 0,28,29
 393 612 393 612 424.5 511 c 128,-1,30
 456 410 456 410 513.5 343.5 c 128,-1,31
 571 277 571 277 645.5 244 c 128,-1,32
 720 211 720 211 809 211 c 0,33,34
 923 211 923 211 1018.5 268 c 128,-1,35
 1114 325 1114 325 1170.5 444 c 128,-1,36
 1227 563 1227 563 1227 737 c 0,19,20
EndSplineSet
Validated: 1
EndChar

StartChar: P
Encoding: 80 80 51
Width: 1366
GlyphClass: 1
Flags: W
LayerCount: 2
Fore
SplineSet
729 571 m 2,0,-1
 457 571 l 1,1,-1
 457 156 l 2,2,3
 457 67 457 67 415 21 c 128,-1,4
 373 -25 373 -25 309 -25 c 0,5,6
 242 -25 242 -25 201 20.5 c 128,-1,7
 160 66 160 66 160 154 c 2,8,-1
 160 1284 l 2,9,10
 160 1382 160 1382 205 1424 c 128,-1,11
 250 1466 250 1466 348 1466 c 2,12,-1
 729 1466 l 2,13,14
 898 1466 898 1466 989 1440 c 0,15,16
 1079 1415 1079 1415 1144.5 1357 c 128,-1,17
 1210 1299 1210 1299 1244 1215 c 128,-1,18
 1278 1131 1278 1131 1278 1026 c 0,19,20
 1278 802 1278 802 1140 686.5 c 128,-1,21
 1002 571 1002 571 729 571 c 2,0,-1
657 1243 m 2,22,-1
 457 1243 l 1,23,-1
 457 795 l 1,24,-1
 657 795 l 2,25,26
 762 795 762 795 832.5 817 c 128,-1,27
 903 839 903 839 940 889 c 128,-1,28
 977 939 977 939 977 1020 c 0,29,30
 977 1117 977 1117 920 1178 c 0,31,32
 856 1243 856 1243 657 1243 c 2,22,-1
EndSplineSet
Validated: 1
EndChar

StartChar: Q
Encoding: 81 81 52
Width: 1622
GlyphClass: 1
Flags: W
LayerCount: 2
Fore
SplineSet
1339 182 m 1,0,1
 1404 138 1404 138 1481 96.5 c 128,-1,2
 1558 55 1558 55 1583 30.5 c 128,-1,3
 1608 6 1608 6 1608 -39 c 0,4,5
 1608 -71 1608 -71 1578.5 -103 c 128,-1,6
 1549 -135 1549 -135 1507 -135 c 0,7,8
 1473 -135 1473 -135 1424.5 -113 c 128,-1,9
 1376 -91 1376 -91 1310.5 -49 c 128,-1,10
 1245 -7 1245 -7 1167 49 c 1,11,12
 1022 -25 1022 -25 811 -25 c 0,13,14
 640 -25 640 -25 504.5 29.5 c 128,-1,15
 369 84 369 84 277 186.5 c 128,-1,16
 185 289 185 289 138.5 430 c 128,-1,17
 92 571 92 571 92 737 c 0,18,19
 92 906 92 906 140.5 1047 c 128,-1,20
 189 1188 189 1188 281 1287 c 128,-1,21
 373 1386 373 1386 505 1438.5 c 128,-1,22
 637 1491 637 1491 805 1491 c 0,23,24
 1033 1491 1033 1491 1196.5 1398.5 c 128,-1,25
 1360 1306 1360 1306 1444 1135.5 c 128,-1,26
 1528 965 1528 965 1528 735 c 0,27,28
 1528 386 1528 386 1339 182 c 1,0,1
1106 344 m 1,29,30
 1168 415 1168 415 1197.5 512 c 128,-1,31
 1227 609 1227 609 1227 737 c 0,32,33
 1227 898 1227 898 1175 1016 c 128,-1,34
 1123 1134 1123 1134 1026.5 1194.5 c 128,-1,35
 930 1255 930 1255 805 1255 c 0,36,37
 716 1255 716 1255 640.5 1221.5 c 128,-1,38
 565 1188 565 1188 510.5 1124 c 128,-1,39
 456 1060 456 1060 424.5 960.5 c 128,-1,40
 393 861 393 861 393 737 c 0,41,42
 393 484 393 484 511 347.5 c 128,-1,43
 629 211 629 211 809 211 c 0,44,45
 883 211 883 211 961 242 c 1,46,47
 914 277 914 277 843.5 312 c 128,-1,48
 773 347 773 347 747 366 c 128,-1,49
 721 385 721 385 721 420 c 0,50,51
 721 450 721 450 746 473 c 128,-1,52
 771 496 771 496 801 496 c 0,53,54
 892 496 892 496 1106 344 c 1,29,30
EndSplineSet
Validated: 1
EndChar

StartChar: R
Encoding: 82 82 53
Width: 1473
GlyphClass: 1
Flags: W
LayerCount: 2
Fore
SplineSet
559 627 m 2,0,-1
 455 627 l 1,1,-1
 455 156 l 2,2,3
 455 63 455 63 414 19 c 128,-1,4
 373 -25 373 -25 307 -25 c 0,5,6
 236 -25 236 -25 197 21 c 128,-1,7
 158 67 158 67 158 156 c 2,8,-1
 158 1284 l 2,9,10
 158 1380 158 1380 201 1423 c 128,-1,11
 244 1466 244 1466 340 1466 c 2,12,-1
 823 1466 l 2,13,14
 923 1466 923 1466 994 1457.5 c 128,-1,15
 1065 1449 1065 1449 1122 1423 c 0,16,17
 1191 1394 1191 1394 1244 1340 c 128,-1,18
 1297 1286 1297 1286 1324.5 1214.5 c 128,-1,19
 1352 1143 1352 1143 1352 1063 c 0,20,21
 1352 899 1352 899 1259.5 801 c 128,-1,22
 1167 703 1167 703 979 662 c 1,23,24
 1058 620 1058 620 1130 538 c 128,-1,25
 1202 456 1202 456 1258.5 363.5 c 128,-1,26
 1315 271 1315 271 1346.5 196.5 c 128,-1,27
 1378 122 1378 122 1378 94 c 0,28,29
 1378 65 1378 65 1359.5 36.5 c 128,-1,30
 1341 8 1341 8 1309 -8.5 c 128,-1,31
 1277 -25 1277 -25 1235 -25 c 0,32,33
 1185 -25 1185 -25 1151 -1.5 c 128,-1,34
 1117 22 1117 22 1092.5 58 c 128,-1,35
 1068 94 1068 94 1026 164 c 2,36,-1
 907 362 l 2,37,38
 843 471 843 471 792.5 528 c 128,-1,39
 742 585 742 585 690 606 c 128,-1,40
 638 627 638 627 559 627 c 2,0,-1
729 1243 m 2,41,-1
 455 1243 l 1,42,-1
 455 840 l 1,43,-1
 721 840 l 2,44,45
 828 840 828 840 901 858.5 c 128,-1,46
 974 877 974 877 1012.5 921.5 c 128,-1,47
 1051 966 1051 966 1051 1044 c 0,48,49
 1051 1105 1051 1105 1020 1151.5 c 128,-1,50
 989 1198 989 1198 934 1221 c 0,51,52
 882 1243 882 1243 729 1243 c 2,41,-1
EndSplineSet
Validated: 1
EndChar

StartChar: S
Encoding: 83 83 54
Width: 1366
GlyphClass: 1
Flags: W
LayerCount: 2
Fore
SplineSet
1274 440 m 0,0,1
 1274 307 1274 307 1205.5 201 c 128,-1,2
 1137 95 1137 95 1005 35 c 128,-1,3
 873 -25 873 -25 692 -25 c 0,4,5
 475 -25 475 -25 334 57 c 0,6,7
 234 116 234 116 171.5 214.5 c 128,-1,8
 109 313 109 313 109 406 c 0,9,10
 109 460 109 460 146.5 498.5 c 128,-1,11
 184 537 184 537 242 537 c 0,12,13
 289 537 289 537 321.5 507 c 128,-1,14
 354 477 354 477 377 418 c 0,15,16
 405 348 405 348 437.5 301 c 128,-1,17
 470 254 470 254 529 223.5 c 128,-1,18
 588 193 588 193 684 193 c 0,19,20
 816 193 816 193 898.5 254.5 c 128,-1,21
 981 316 981 316 981 408 c 0,22,23
 981 481 981 481 936.5 526.5 c 128,-1,24
 892 572 892 572 821.5 596 c 128,-1,25
 751 620 751 620 633 647 c 0,26,27
 475 684 475 684 368.5 733.5 c 128,-1,28
 262 783 262 783 199.5 868.5 c 128,-1,29
 137 954 137 954 137 1081 c 0,30,31
 137 1202 137 1202 203 1296 c 128,-1,32
 269 1390 269 1390 394 1440.5 c 128,-1,33
 519 1491 519 1491 688 1491 c 0,34,35
 823 1491 823 1491 921.5 1457.5 c 128,-1,36
 1020 1424 1020 1424 1085 1368.5 c 128,-1,37
 1150 1313 1150 1313 1180 1252 c 128,-1,38
 1210 1191 1210 1191 1210 1133 c 0,39,40
 1210 1080 1210 1080 1172.5 1037.5 c 128,-1,41
 1135 995 1135 995 1079 995 c 0,42,43
 1028 995 1028 995 1001.5 1020.5 c 128,-1,44
 975 1046 975 1046 944 1104 c 0,45,46
 904 1187 904 1187 848 1233.5 c 128,-1,47
 792 1280 792 1280 668 1280 c 0,48,49
 553 1280 553 1280 482.5 1229.5 c 128,-1,50
 412 1179 412 1179 412 1108 c 0,51,52
 412 1064 412 1064 436 1032 c 128,-1,53
 460 1000 460 1000 502 977 c 128,-1,54
 544 954 544 954 587 941 c 128,-1,55
 630 928 630 928 729 903 c 0,56,57
 853 874 853 874 953.5 839 c 128,-1,58
 1054 804 1054 804 1124.5 754 c 128,-1,59
 1195 704 1195 704 1234.5 627.5 c 128,-1,60
 1274 551 1274 551 1274 440 c 0,0,1
EndSplineSet
Validated: 1
EndChar

StartChar: T
Encoding: 84 84 55
Width: 1280
GlyphClass: 1
Flags: W
LayerCount: 2
Fore
SplineSet
1112 1221 m 2,0,-1
 788 1221 l 1,1,-1
 788 156 l 2,2,3
 788 64 788 64 747 19.5 c 128,-1,4
 706 -25 706 -25 641 -25 c 0,5,6
 575 -25 575 -25 533.5 20 c 128,-1,7
 492 65 492 65 492 156 c 2,8,-1
 492 1221 l 1,9,-1
 168 1221 l 2,10,11
 92 1221 92 1221 55 1254.5 c 128,-1,12
 18 1288 18 1288 18 1343 c 0,13,14
 18 1400 18 1400 56.5 1433 c 128,-1,15
 95 1466 95 1466 168 1466 c 2,16,-1
 1112 1466 l 2,17,18
 1189 1466 1189 1466 1226.5 1432 c 128,-1,19
 1264 1398 1264 1398 1264 1343 c 256,20,21
 1264 1288 1264 1288 1226 1254.5 c 128,-1,22
 1188 1221 1188 1221 1112 1221 c 2,0,-1
EndSplineSet
Validated: 1
EndChar

StartChar: U
Encoding: 85 85 56
Width: 1556
GlyphClass: 1
Flags: W
LayerCount: 2
Fore
SplineSet
162 606 m 2,0,-1
 162 1311 l 2,1,2
 162 1401 162 1401 202.5 1446 c 128,-1,3
 243 1491 243 1491 309 1491 c 0,4,5
 378 1491 378 1491 418.5 1446 c 128,-1,6
 459 1401 459 1401 459 1311 c 2,7,-1
 459 590 l 2,8,9
 459 467 459 467 486.5 384.5 c 128,-1,10
 514 302 514 302 584 256.5 c 128,-1,11
 654 211 654 211 780 211 c 0,12,13
 954 211 954 211 1026 303.5 c 128,-1,14
 1098 396 1098 396 1098 584 c 2,15,-1
 1098 1311 l 2,16,17
 1098 1402 1098 1402 1138 1446.5 c 128,-1,18
 1178 1491 1178 1491 1245 1491 c 256,19,20
 1312 1491 1312 1491 1353.5 1446.5 c 128,-1,21
 1395 1402 1395 1402 1395 1311 c 2,22,-1
 1395 606 l 2,23,24
 1395 434 1395 434 1361.5 319 c 128,-1,25
 1328 204 1328 204 1235 117 c 0,26,27
 1155 43 1155 43 1049 9 c 128,-1,28
 943 -25 943 -25 801 -25 c 0,29,30
 632 -25 632 -25 510 11.5 c 128,-1,31
 388 48 388 48 311 124.5 c 128,-1,32
 234 201 234 201 198 320.5 c 128,-1,33
 162 440 162 440 162 606 c 2,0,-1
EndSplineSet
Validated: 1
EndChar

StartChar: V
Encoding: 86 86 57
Width: 1409
GlyphClass: 1
Flags: W
LayerCount: 2
Fore
SplineSet
377 1296 m 2,0,-1
 709 313 l 1,1,-1
 1042 1303 l 2,2,3
 1068 1381 1068 1381 1081 1411.5 c 128,-1,4
 1094 1442 1094 1442 1124 1466.5 c 128,-1,5
 1154 1491 1154 1491 1206 1491 c 0,6,7
 1244 1491 1244 1491 1276.5 1472 c 128,-1,8
 1309 1453 1309 1453 1327.5 1421.5 c 128,-1,9
 1346 1390 1346 1390 1346 1358 c 0,10,11
 1346 1336 1346 1336 1340 1310.5 c 128,-1,12
 1334 1285 1334 1285 1325 1260.5 c 128,-1,13
 1316 1236 1316 1236 1307 1210 c 2,14,-1
 952 252 l 2,15,16
 933 197 933 197 914 147.5 c 128,-1,17
 895 98 895 98 870 60.5 c 128,-1,18
 845 23 845 23 803.5 -1 c 128,-1,19
 762 -25 762 -25 702 -25 c 256,20,21
 642 -25 642 -25 600.5 -1.5 c 128,-1,22
 559 22 559 22 533.5 60.5 c 128,-1,23
 508 99 508 99 489 148 c 128,-1,24
 470 197 470 197 451 252 c 2,25,-1
 102 1202 l 2,26,27
 93 1228 93 1228 83.5 1253 c 128,-1,28
 74 1278 74 1278 67.5 1307 c 128,-1,29
 61 1336 61 1336 61 1356 c 0,30,31
 61 1407 61 1407 102 1449 c 128,-1,32
 143 1491 143 1491 205 1491 c 0,33,34
 281 1491 281 1491 312.5 1444.5 c 128,-1,35
 344 1398 344 1398 377 1296 c 2,0,-1
EndSplineSet
Validated: 1
EndChar

StartChar: W
Encoding: 87 87 58
Width: 1921
GlyphClass: 1
Flags: W
LayerCount: 2
Fore
SplineSet
1198 231 m 2,0,-1
 961 1110 l 1,1,-1
 721 231 l 2,2,3
 693 131 693 131 676.5 87.5 c 128,-1,4
 660 44 660 44 619 9.5 c 128,-1,5
 578 -25 578 -25 510 -25 c 0,6,7
 455 -25 455 -25 419.5 -4.5 c 128,-1,8
 384 16 384 16 362 53.5 c 128,-1,9
 340 91 340 91 326 142.5 c 128,-1,10
 312 194 312 194 301 238 c 2,11,-1
 57 1225 l 2,12,13
 35 1311 35 1311 35 1356 c 0,14,15
 35 1413 35 1413 75 1452 c 128,-1,16
 115 1491 115 1491 174 1491 c 0,17,18
 255 1491 255 1491 283 1439 c 128,-1,19
 311 1387 311 1387 332 1288 c 2,20,-1
 524 432 l 1,21,-1
 739 1233 l 2,22,23
 763 1325 763 1325 782 1373 c 128,-1,24
 801 1421 801 1421 844 1456 c 128,-1,25
 887 1491 887 1491 961 1491 c 0,26,27
 1036 1491 1036 1491 1077.5 1454.5 c 128,-1,28
 1119 1418 1119 1418 1135 1375 c 128,-1,29
 1151 1332 1151 1332 1178 1233 c 2,30,-1
 1395 432 l 1,31,-1
 1587 1288 l 2,32,33
 1601 1355 1601 1355 1613.5 1393 c 128,-1,34
 1626 1431 1626 1431 1656.5 1461 c 128,-1,35
 1687 1491 1687 1491 1745 1491 c 256,36,37
 1803 1491 1803 1491 1843.5 1452.5 c 128,-1,38
 1884 1414 1884 1414 1884 1356 c 0,39,40
 1884 1315 1884 1315 1862 1225 c 2,41,-1
 1618 238 l 2,42,43
 1593 138 1593 138 1576.5 91.5 c 128,-1,44
 1560 45 1560 45 1520.5 10 c 128,-1,45
 1481 -25 1481 -25 1409 -25 c 0,46,47
 1341 -25 1341 -25 1300 9 c 128,-1,48
 1259 43 1259 43 1243 85.5 c 128,-1,49
 1227 128 1227 128 1198 231 c 2,0,-1
EndSplineSet
Validated: 1
EndChar

StartChar: X
Encoding: 88 88 59
Width: 1237
GlyphClass: 1
Flags: W
LayerCount: 2
Fore
SplineSet
106 285 m 2,0,-1
 434 764 l 1,1,-1
 158 1190 l 2,2,3
 119 1252 119 1252 99.5 1296.5 c 128,-1,4
 80 1341 80 1341 80 1382 c 0,5,6
 80 1424 80 1424 117.5 1457.5 c 128,-1,7
 155 1491 155 1491 209 1491 c 0,8,9
 271 1491 271 1491 305.5 1454.5 c 128,-1,10
 340 1418 340 1418 401 1319 c 2,11,-1
 621 963 l 1,12,-1
 856 1319 l 2,13,14
 885 1364 885 1364 905.5 1396 c 128,-1,15
 926 1428 926 1428 945 1449 c 128,-1,16
 964 1470 964 1470 987.5 1480.5 c 128,-1,17
 1011 1491 1011 1491 1042 1491 c 0,18,19
 1098 1491 1098 1491 1133.5 1457.5 c 128,-1,20
 1169 1424 1169 1424 1169 1378 c 0,21,22
 1169 1311 1169 1311 1092 1196 c 2,23,-1
 803 764 l 1,24,-1
 1114 285 l 2,25,26
 1156 222 1156 222 1175 180.5 c 128,-1,27
 1194 139 1194 139 1194 102 c 0,28,29
 1194 67 1194 67 1177 38 c 128,-1,30
 1160 9 1160 9 1129 -8 c 128,-1,31
 1098 -25 1098 -25 1059 -25 c 0,32,33
 1017 -25 1017 -25 988 -7.5 c 128,-1,34
 959 10 959 10 941 36 c 128,-1,35
 923 62 923 62 874 137 c 2,36,-1
 616 543 l 1,37,-1
 342 125 l 2,38,39
 310 75 310 75 296.5 55 c 128,-1,40
 283 35 283 35 264 16 c 128,-1,41
 245 -3 245 -3 219 -14 c 128,-1,42
 193 -25 193 -25 158 -25 c 0,43,44
 104 -25 104 -25 68.5 8 c 128,-1,45
 33 41 33 41 33 104 c 0,46,47
 33 178 33 178 106 285 c 2,0,-1
EndSplineSet
Validated: 1
EndChar

StartChar: Y
Encoding: 89 89 60
Width: 1280
GlyphClass: 1
Flags: W
LayerCount: 2
Fore
SplineSet
487 156 m 2,0,-1
 487 621 l 1,1,-1
 129 1176 l 2,2,3
 82 1251 82 1251 62.5 1293 c 128,-1,4
 43 1335 43 1335 43 1366 c 0,5,6
 43 1417 43 1417 82.5 1454 c 128,-1,7
 122 1491 122 1491 180 1491 c 0,8,9
 241 1491 241 1491 272.5 1456.5 c 128,-1,10
 304 1422 304 1422 367 1319 c 2,11,-1
 641 874 l 1,12,-1
 918 1319 l 2,13,14
 943 1360 943 1360 960 1388 c 128,-1,15
 977 1416 977 1416 997.5 1440.5 c 128,-1,16
 1018 1465 1018 1465 1043 1478 c 128,-1,17
 1068 1491 1068 1491 1104 1491 c 0,18,19
 1160 1491 1160 1491 1197.5 1454.5 c 128,-1,20
 1235 1418 1235 1418 1235 1370 c 0,21,22
 1235 1331 1235 1331 1216 1292 c 128,-1,23
 1197 1253 1197 1253 1151 1184 c 2,24,-1
 784 621 l 1,25,-1
 784 156 l 2,26,27
 784 65 784 65 742 20 c 128,-1,28
 700 -25 700 -25 635 -25 c 0,29,30
 569 -25 569 -25 528 19.5 c 128,-1,31
 487 64 487 64 487 156 c 2,0,-1
EndSplineSet
Validated: 1
EndChar

StartChar: Z
Encoding: 90 90 61
Width: 1323
GlyphClass: 1
Flags: W
LayerCount: 2
Fore
SplineSet
121 342 m 2,0,-1
 874 1243 l 1,1,-1
 227 1243 l 2,2,3
 159 1243 159 1243 124.5 1273 c 128,-1,4
 90 1303 90 1303 90 1352 c 0,5,6
 90 1403 90 1403 124.5 1434.5 c 128,-1,7
 159 1466 159 1466 227 1466 c 2,8,-1
 1061 1466 l 2,9,10
 1223 1466 1223 1466 1223 1315 c 0,11,12
 1223 1243 1223 1243 1196 1200 c 128,-1,13
 1169 1157 1169 1157 1087 1061 c 2,14,-1
 383 223 l 1,15,-1
 1159 223 l 2,16,17
 1228 223 1228 223 1262 194.5 c 128,-1,18
 1296 166 1296 166 1296 115 c 0,19,20
 1296 62 1296 62 1262 31 c 128,-1,21
 1228 0 1228 0 1159 0 c 2,22,-1
 207 0 l 2,23,24
 110 0 110 0 61 43.5 c 128,-1,25
 12 87 12 87 12 160 c 0,26,27
 12 185 12 185 20 206 c 128,-1,28
 28 227 28 227 41.5 245.5 c 128,-1,29
 55 264 55 264 79 292.5 c 128,-1,30
 103 321 103 321 121 342 c 2,0,-1
EndSplineSet
Validated: 1
EndChar

StartChar: bracketleft
Encoding: 91 91 62
Width: 725
GlyphClass: 1
Flags: W
LayerCount: 2
Fore
SplineSet
573 1278 m 2,0,-1
 406 1278 l 1,1,-1
 406 -172 l 1,2,-1
 573 -172 l 2,3,4
 702 -172 702 -172 702 -279 c 0,5,6
 702 -385 702 -385 573 -385 c 2,7,-1
 324 -385 l 2,8,9
 263 -385 263 -385 223.5 -365 c 128,-1,10
 184 -345 184 -345 165.5 -304.5 c 128,-1,11
 147 -264 147 -264 147 -203 c 2,12,-1
 147 1309 l 2,13,14
 147 1403 147 1403 189 1447 c 128,-1,15
 231 1491 231 1491 324 1491 c 2,16,-1
 573 1491 l 2,17,18
 638 1491 638 1491 670 1462 c 128,-1,19
 702 1433 702 1433 702 1384 c 0,20,21
 702 1278 702 1278 573 1278 c 2,0,-1
EndSplineSet
Validated: 1
EndChar

StartChar: backslash
Encoding: 92 92 63
Width: 575
GlyphClass: 1
Flags: W
LayerCount: 2
Fore
SplineSet
248 1331 m 2,0,-1
 528 178 l 2,1,2
 549 96 549 96 549 63 c 0,3,4
 549 -25 549 -25 446 -25 c 0,5,6
 404 -25 404 -25 382.5 -6.5 c 128,-1,7
 361 12 361 12 352 38.5 c 128,-1,8
 343 65 343 65 326 135 c 2,9,-1
 47 1288 l 2,10,11
 27 1374 27 1374 27 1401 c 0,12,13
 27 1443 27 1443 53.5 1467 c 128,-1,14
 80 1491 80 1491 129 1491 c 0,15,16
 188 1491 188 1491 207 1457 c 128,-1,17
 226 1423 226 1423 248 1331 c 2,0,-1
EndSplineSet
Validated: 1
EndChar

StartChar: bracketright
Encoding: 93 93 64
Width: 725
GlyphClass: 1
Flags: W
LayerCount: 2
Fore
SplineSet
319 -172 m 1,0,-1
 319 1278 l 1,1,-1
 154 1278 l 2,2,3
 90 1278 90 1278 56.5 1307.5 c 128,-1,4
 23 1337 23 1337 23 1384 c 0,5,6
 23 1432 23 1432 56.5 1461.5 c 128,-1,7
 90 1491 90 1491 154 1491 c 2,8,-1
 401 1491 l 2,9,10
 493 1491 493 1491 535.5 1447 c 128,-1,11
 578 1403 578 1403 578 1309 c 2,12,-1
 578 -203 l 2,13,14
 578 -296 578 -296 536 -340.5 c 128,-1,15
 494 -385 494 -385 401 -385 c 2,16,-1
 154 -385 l 2,17,18
 90 -385 90 -385 56.5 -355.5 c 128,-1,19
 23 -326 23 -326 23 -279 c 0,20,21
 23 -231 23 -231 56.5 -201.5 c 128,-1,22
 90 -172 90 -172 154 -172 c 2,23,-1
 319 -172 l 1,0,-1
EndSplineSet
Validated: 1
EndChar

StartChar: asciicircum
Encoding: 94 94 65
Width: 1194
GlyphClass: 1
Flags: W
LayerCount: 2
Fore
SplineSet
401 692 m 1,0,-1
 115 692 l 1,1,-1
 492 1491 l 1,2,-1
 713 1491 l 1,3,-1
 1079 692 l 1,4,-1
 797 692 l 1,5,-1
 598 1182 l 1,6,-1
 401 692 l 1,0,-1
EndSplineSet
Validated: 1
EndChar

StartChar: underscore
Encoding: 95 95 66
Width: 1024
GlyphClass: 1
Flags: W
LayerCount: 2
Fore
SplineSet
-12 -256 m 1,0,-1
 -12 -154 l 1,1,-1
 1036 -154 l 1,2,-1
 1036 -256 l 1,3,-1
 -12 -256 l 1,0,-1
EndSplineSet
Validated: 1
EndChar

StartChar: grave
Encoding: 96 96 67
Width: 682
GlyphClass: 1
Flags: W
LayerCount: 2
Fore
SplineSet
424 1364 m 2,0,-1
 469 1280 l 2,1,2
 496 1237 496 1237 496 1221 c 0,3,4
 496 1196 496 1196 453 1196 c 0,5,6
 387 1196 387 1196 330 1225 c 0,7,8
 302 1239 302 1239 192 1344 c 128,-1,9
 82 1449 82 1449 82 1462 c 0,10,11
 82 1477 82 1477 133 1477 c 2,12,-1
 268 1477 l 2,13,14
 327 1477 327 1477 357 1456 c 128,-1,15
 387 1435 387 1435 424 1364 c 2,0,-1
EndSplineSet
Validated: 1
EndChar

StartChar: a
Encoding: 97 97 68
Width: 1217
GlyphClass: 1
Flags: W
LayerCount: 2
Fore
SplineSet
831 129 m 1,0,1
 732 52 732 52 639.5 13.5 c 128,-1,2
 547 -25 547 -25 432 -25 c 0,3,4
 327 -25 327 -25 247.5 16.5 c 128,-1,5
 168 58 168 58 125 129 c 128,-1,6
 82 200 82 200 82 283 c 0,7,8
 82 395 82 395 153 474 c 128,-1,9
 224 553 224 553 348 580 c 0,10,11
 374 586 374 586 477 607 c 128,-1,12
 580 628 580 628 653.5 645.5 c 128,-1,13
 727 663 727 663 813 688 c 1,14,15
 808 796 808 796 769.5 846.5 c 128,-1,16
 731 897 731 897 610 897 c 0,17,18
 506 897 506 897 453.5 868 c 128,-1,19
 401 839 401 839 363.5 781 c 128,-1,20
 326 723 326 723 310.5 704.5 c 128,-1,21
 295 686 295 686 244 686 c 0,22,23
 198 686 198 686 164.5 715.5 c 128,-1,24
 131 745 131 745 131 791 c 0,25,26
 131 863 131 863 182 931 c 128,-1,27
 233 999 233 999 341 1043 c 128,-1,28
 449 1087 449 1087 610 1087 c 0,29,30
 790 1087 790 1087 893 1044.5 c 128,-1,31
 996 1002 996 1002 1038.5 910 c 128,-1,32
 1081 818 1081 818 1081 666 c 0,33,34
 1081 570 1081 570 1080.5 503 c 128,-1,35
 1080 436 1080 436 1079 354 c 0,36,37
 1079 277 1079 277 1104.5 193.5 c 128,-1,38
 1130 110 1130 110 1130 86 c 0,39,40
 1130 44 1130 44 1090.5 9.5 c 128,-1,41
 1051 -25 1051 -25 1001 -25 c 0,42,43
 959 -25 959 -25 918 14.5 c 128,-1,44
 877 54 877 54 831 129 c 1,0,1
813 524 m 1,45,46
 753 502 753 502 638.5 477.5 c 128,-1,47
 524 453 524 453 480 441.5 c 128,-1,48
 436 430 436 430 396 396.5 c 128,-1,49
 356 363 356 363 356 303 c 0,50,51
 356 241 356 241 403 197.5 c 128,-1,52
 450 154 450 154 526 154 c 0,53,54
 607 154 607 154 675.5 189.5 c 128,-1,55
 744 225 744 225 776 281 c 0,56,57
 813 343 813 343 813 485 c 2,58,-1
 813 524 l 1,45,46
EndSplineSet
Validated: 1
EndChar

StartChar: b
Encoding: 98 98 69
Width: 1280
GlyphClass: 1
Flags: W
LayerCount: 2
Fore
SplineSet
393 1335 m 2,0,-1
 393 918 l 1,1,2
 470 998 470 998 550 1040.5 c 128,-1,3
 630 1083 630 1083 748 1083 c 0,4,5
 884 1083 884 1083 986.5 1018.5 c 128,-1,6
 1089 954 1089 954 1145.5 831.5 c 128,-1,7
 1202 709 1202 709 1202 541 c 0,8,9
 1202 417 1202 417 1170.5 313.5 c 128,-1,10
 1139 210 1139 210 1079 134 c 128,-1,11
 1019 58 1019 58 933.5 16.5 c 128,-1,12
 848 -25 848 -25 745 -25 c 0,13,14
 682 -25 682 -25 626.5 -10 c 128,-1,15
 571 5 571 5 532 29.5 c 128,-1,16
 493 54 493 54 465.5 80 c 128,-1,17
 438 106 438 106 393 158 c 1,18,-1
 393 131 l 2,19,20
 393 54 393 54 356 14.5 c 128,-1,21
 319 -25 319 -25 262 -25 c 0,22,23
 204 -25 204 -25 169.5 14.5 c 128,-1,24
 135 54 135 54 135 131 c 2,25,-1
 135 1323 l 2,26,27
 135 1406 135 1406 168.5 1448.5 c 128,-1,28
 202 1491 202 1491 262 1491 c 0,29,30
 325 1491 325 1491 359 1450.5 c 128,-1,31
 393 1410 393 1410 393 1335 c 2,0,-1
406 524 m 0,32,33
 406 361 406 361 480.5 273.5 c 128,-1,34
 555 186 555 186 676 186 c 0,35,36
 779 186 779 186 853.5 275.5 c 128,-1,37
 928 365 928 365 928 532 c 0,38,39
 928 640 928 640 897 718 c 128,-1,40
 866 796 866 796 809 838.5 c 128,-1,41
 752 881 752 881 676 881 c 0,42,43
 598 881 598 881 537 838.5 c 128,-1,44
 476 796 476 796 441 715.5 c 128,-1,45
 406 635 406 635 406 524 c 0,32,33
EndSplineSet
Validated: 1
EndChar

StartChar: c
Encoding: 99 99 70
Width: 1217
GlyphClass: 1
Flags: W
LayerCount: 2
Fore
SplineSet
1120 313 m 0,0,1
 1120 262 1120 262 1089.5 204 c 128,-1,2
 1059 146 1059 146 996.5 93.5 c 128,-1,3
 934 41 934 41 839 9 c 128,-1,4
 744 -23 744 -23 625 -23 c 0,5,6
 372 -23 372 -23 230 124.5 c 128,-1,7
 88 272 88 272 88 520 c 0,8,9
 88 688 88 688 153 817 c 128,-1,10
 218 946 218 946 341 1016.5 c 128,-1,11
 464 1087 464 1087 635 1087 c 0,12,13
 741 1087 741 1087 829.5 1056 c 128,-1,14
 918 1025 918 1025 979.5 976 c 128,-1,15
 1041 927 1041 927 1073.5 871.5 c 128,-1,16
 1106 816 1106 816 1106 768 c 0,17,18
 1106 719 1106 719 1069.5 685 c 128,-1,19
 1033 651 1033 651 981 651 c 0,20,21
 947 651 947 651 924.5 668.5 c 128,-1,22
 902 686 902 686 874 725 c 0,23,24
 824 801 824 801 769.5 839 c 128,-1,25
 715 877 715 877 631 877 c 0,26,27
 510 877 510 877 436 782.5 c 128,-1,28
 362 688 362 688 362 524 c 0,29,30
 362 447 362 447 381 382.5 c 128,-1,31
 400 318 400 318 436 272.5 c 128,-1,32
 472 227 472 227 523 203.5 c 128,-1,33
 574 180 574 180 635 180 c 0,34,35
 717 180 717 180 775.5 218 c 128,-1,36
 834 256 834 256 879 334 c 0,37,38
 904 380 904 380 933 406 c 128,-1,39
 962 432 962 432 1004 432 c 0,40,41
 1054 432 1054 432 1087 394 c 128,-1,42
 1120 356 1120 356 1120 313 c 0,0,1
EndSplineSet
Validated: 1
EndChar

StartChar: d
Encoding: 100 100 71
Width: 1280
GlyphClass: 1
Flags: W
LayerCount: 2
Fore
SplineSet
889 131 m 2,0,-1
 889 158 l 1,1,2
 834 95 834 95 780.5 55.5 c 128,-1,3
 727 16 727 16 664.5 -4.5 c 128,-1,4
 602 -25 602 -25 528 -25 c 0,5,6
 430 -25 430 -25 346.5 16.5 c 128,-1,7
 263 58 263 58 202 135 c 128,-1,8
 141 212 141 212 109.5 316 c 128,-1,9
 78 420 78 420 78 541 c 0,10,11
 78 797 78 797 203 940 c 128,-1,12
 328 1083 328 1083 532 1083 c 0,13,14
 650 1083 650 1083 731 1042.5 c 128,-1,15
 812 1002 812 1002 889 918 c 1,16,-1
 889 1321 l 2,17,18
 889 1405 889 1405 922.5 1448 c 128,-1,19
 956 1491 956 1491 1018 1491 c 256,20,21
 1080 1491 1080 1491 1113.5 1451.5 c 128,-1,22
 1147 1412 1147 1412 1147 1335 c 2,23,-1
 1147 131 l 2,24,25
 1147 53 1147 53 1111 14 c 128,-1,26
 1075 -25 1075 -25 1018 -25 c 0,27,28
 962 -25 962 -25 925.5 15.5 c 128,-1,29
 889 56 889 56 889 131 c 2,0,-1
352 532 m 0,30,31
 352 421 352 421 386.5 343 c 128,-1,32
 421 265 421 265 481 225.5 c 128,-1,33
 541 186 541 186 612 186 c 0,34,35
 684 186 684 186 743.5 223.5 c 128,-1,36
 803 261 803 261 838.5 338.5 c 128,-1,37
 874 416 874 416 874 532 c 0,38,39
 874 641 874 641 838.5 719.5 c 128,-1,40
 803 798 803 798 742.5 839.5 c 128,-1,41
 682 881 682 881 610 881 c 0,42,43
 535 881 535 881 476 838.5 c 128,-1,44
 417 796 417 796 384.5 716.5 c 128,-1,45
 352 637 352 637 352 532 c 0,30,31
EndSplineSet
Validated: 1
EndChar

StartChar: e
Encoding: 101 101 72
Width: 1217
GlyphClass: 1
Flags: W
LayerCount: 2
Fore
SplineSet
903 463 m 2,0,-1
 369 463 l 1,1,2
 370 370 370 370 406.5 299 c 128,-1,3
 443 228 443 228 503.5 192 c 128,-1,4
 564 156 564 156 637 156 c 0,5,6
 686 156 686 156 726.5 167.5 c 128,-1,7
 767 179 767 179 805 203.5 c 128,-1,8
 843 228 843 228 875 256 c 128,-1,9
 907 284 907 284 958 332 c 0,10,11
 979 350 979 350 1018 350 c 0,12,13
 1060 350 1060 350 1086 327 c 128,-1,14
 1112 304 1112 304 1112 262 c 0,15,16
 1112 225 1112 225 1083 175.5 c 128,-1,17
 1054 126 1054 126 995.5 80.5 c 128,-1,18
 937 35 937 35 848.5 5 c 128,-1,19
 760 -25 760 -25 645 -25 c 0,20,21
 382 -25 382 -25 236 125 c 128,-1,22
 90 275 90 275 90 532 c 0,23,24
 90 653 90 653 126 756.5 c 128,-1,25
 162 860 162 860 231 934 c 128,-1,26
 300 1008 300 1008 401 1047.5 c 128,-1,27
 502 1087 502 1087 625 1087 c 0,28,29
 785 1087 785 1087 899.5 1019.5 c 128,-1,30
 1014 952 1014 952 1071 845 c 128,-1,31
 1128 738 1128 738 1128 627 c 0,32,33
 1128 524 1128 524 1069 493.5 c 128,-1,34
 1010 463 1010 463 903 463 c 2,0,-1
369 618 m 1,35,-1
 864 618 l 1,36,37
 854 758 854 758 788.5 827.5 c 128,-1,38
 723 897 723 897 616 897 c 0,39,40
 514 897 514 897 448.5 826.5 c 128,-1,41
 383 756 383 756 369 618 c 1,35,-1
EndSplineSet
Validated: 1
EndChar

StartChar: f
Encoding: 102 102 73
Width: 682
GlyphClass: 1
Flags: W
LayerCount: 2
Fore
SplineSet
119 1061 m 2,0,-1
 184 1061 l 1,1,-1
 184 1143 l 2,2,3
 184 1271 184 1271 216.5 1346.5 c 128,-1,4
 249 1422 249 1422 326.5 1456.5 c 128,-1,5
 404 1491 404 1491 539 1491 c 0,6,7
 778 1491 778 1491 778 1374 c 0,8,9
 778 1336 778 1336 753 1309 c 128,-1,10
 728 1282 728 1282 694 1282 c 0,11,12
 678 1282 678 1282 639 1288 c 128,-1,13
 600 1294 600 1294 573 1294 c 0,14,15
 499 1294 499 1294 478 1250.5 c 128,-1,16
 457 1207 457 1207 457 1126 c 2,17,-1
 457 1061 l 1,18,-1
 524 1061 l 2,19,20
 680 1061 680 1061 680 967 c 0,21,22
 680 900 680 900 638.5 882 c 128,-1,23
 597 864 597 864 524 864 c 2,24,-1
 457 864 l 1,25,-1
 457 141 l 2,26,27
 457 60 457 60 418.5 17.5 c 128,-1,28
 380 -25 380 -25 319 -25 c 0,29,30
 261 -25 261 -25 222.5 17.5 c 128,-1,31
 184 60 184 60 184 141 c 2,32,-1
 184 864 l 1,33,-1
 109 864 l 2,34,35
 48 864 48 864 15 891.5 c 128,-1,36
 -18 919 -18 919 -18 963 c 0,37,38
 -18 1061 -18 1061 119 1061 c 2,0,-1
EndSplineSet
Validated: 1
EndChar

StartChar: g
Encoding: 103 103 74
Width: 1280
GlyphClass: 1
Flags: W
LayerCount: 2
Fore
SplineSet
1145 885 m 2,0,-1
 1145 92 l 2,1,2
 1145 -44 1145 -44 1116 -142 c 128,-1,3
 1087 -240 1087 -240 1023 -304 c 128,-1,4
 959 -368 959 -368 855.5 -399 c 128,-1,5
 752 -430 752 -430 598 -430 c 0,6,7
 457 -430 457 -430 346 -390.5 c 128,-1,8
 235 -351 235 -351 175 -288.5 c 128,-1,9
 115 -226 115 -226 115 -160 c 0,10,11
 115 -110 115 -110 149 -78.5 c 128,-1,12
 183 -47 183 -47 231 -47 c 0,13,14
 291 -47 291 -47 336 -100 c 0,15,16
 358 -127 358 -127 381.5 -154.5 c 128,-1,17
 405 -182 405 -182 433.5 -201.5 c 128,-1,18
 462 -221 462 -221 502 -230.5 c 128,-1,19
 542 -240 542 -240 594 -240 c 0,20,21
 700 -240 700 -240 758.5 -210.5 c 128,-1,22
 817 -181 817 -181 840.5 -128 c 128,-1,23
 864 -75 864 -75 868 -14.5 c 128,-1,24
 872 46 872 46 874 180 c 1,25,26
 811 92 811 92 728.5 46 c 128,-1,27
 646 0 646 0 532 0 c 0,28,29
 395 0 395 0 292.5 70 c 128,-1,30
 190 140 190 140 135 266 c 128,-1,31
 80 392 80 392 80 557 c 0,32,33
 80 680 80 680 113.5 779 c 128,-1,34
 147 878 147 878 209 946 c 128,-1,35
 271 1014 271 1014 352 1048.5 c 128,-1,36
 433 1083 433 1083 530 1083 c 0,37,38
 646 1083 646 1083 731 1038.5 c 128,-1,39
 816 994 816 994 889 899 c 1,40,-1
 889 936 l 2,41,42
 889 1007 889 1007 924 1046 c 128,-1,43
 959 1085 959 1085 1014 1085 c 0,44,45
 1093 1085 1093 1085 1119 1033.5 c 128,-1,46
 1145 982 1145 982 1145 885 c 2,0,-1
354 539 m 0,47,48
 354 373 354 373 426.5 288 c 128,-1,49
 499 203 499 203 614 203 c 0,50,51
 682 203 682 203 742.5 239.5 c 128,-1,52
 803 276 803 276 841 349.5 c 128,-1,53
 879 423 879 423 879 528 c 0,54,55
 879 695 879 695 805.5 788 c 128,-1,56
 732 881 732 881 612 881 c 0,57,58
 495 881 495 881 424.5 792 c 128,-1,59
 354 703 354 703 354 539 c 0,47,48
EndSplineSet
Validated: 1
EndChar

StartChar: h
Encoding: 104 104 75
Width: 1237
GlyphClass: 1
Flags: W
LayerCount: 2
Fore
SplineSet
408 1325 m 2,0,-1
 408 920 l 1,1,2
 460 980 460 980 509.5 1015 c 128,-1,3
 559 1050 559 1050 619 1067.5 c 128,-1,4
 679 1085 679 1085 748 1085 c 0,5,6
 852 1085 852 1085 932.5 1041 c 128,-1,7
 1013 997 1013 997 1059 913 c 0,8,9
 1088 864 1088 864 1098 803.5 c 128,-1,10
 1108 743 1108 743 1108 664 c 2,11,-1
 1108 141 l 2,12,13
 1108 59 1108 59 1070.5 17 c 128,-1,14
 1033 -25 1033 -25 971 -25 c 0,15,16
 836 -25 836 -25 836 141 c 2,17,-1
 836 602 l 2,18,19
 836 733 836 733 797 803.5 c 128,-1,20
 758 874 758 874 649 874 c 0,21,22
 576 874 576 874 517.5 832.5 c 128,-1,23
 459 791 459 791 430 719 c 0,24,25
 408 658 408 658 408 502 c 2,26,-1
 408 141 l 2,27,28
 408 60 408 60 371.5 17.5 c 128,-1,29
 335 -25 335 -25 270 -25 c 0,30,31
 135 -25 135 -25 135 141 c 2,32,-1
 135 1325 l 2,33,34
 135 1408 135 1408 170.5 1449.5 c 128,-1,35
 206 1491 206 1491 270 1491 c 0,36,37
 335 1491 335 1491 371.5 1449 c 128,-1,38
 408 1407 408 1407 408 1325 c 2,0,-1
EndSplineSet
Validated: 1
EndChar

StartChar: i
Encoding: 105 105 76
Width: 555
GlyphClass: 1
Flags: W
LayerCount: 2
Fore
SplineSet
414 930 m 2,0,-1
 414 141 l 2,1,2
 414 59 414 59 375 17 c 128,-1,3
 336 -25 336 -25 276 -25 c 256,4,5
 216 -25 216 -25 178.5 18 c 128,-1,6
 141 61 141 61 141 141 c 2,7,-1
 141 922 l 2,8,9
 141 1003 141 1003 178.5 1044 c 128,-1,10
 216 1085 216 1085 276 1085 c 256,11,12
 336 1085 336 1085 375 1044 c 128,-1,13
 414 1003 414 1003 414 930 c 2,0,-1
279 1212 m 0,14,15
 222 1212 222 1212 181.5 1247 c 128,-1,16
 141 1282 141 1282 141 1346 c 0,17,18
 141 1404 141 1404 182.5 1441.5 c 128,-1,19
 224 1479 224 1479 279 1479 c 0,20,21
 332 1479 332 1479 373 1445 c 128,-1,22
 414 1411 414 1411 414 1346 c 0,23,24
 414 1283 414 1283 374 1247.5 c 128,-1,25
 334 1212 334 1212 279 1212 c 0,14,15
EndSplineSet
Validated: 1
EndChar

StartChar: j
Encoding: 106 106 77
Width: 555
GlyphClass: 1
Flags: W
LayerCount: 2
Fore
SplineSet
416 922 m 2,0,-1
 416 -4 l 2,1,2
 416 -103 416 -103 409.5 -165.5 c 128,-1,3
 403 -228 403 -228 391 -256 c 0,4,5
 323 -430 323 -430 102 -430 c 0,6,7
 -22 -430 -22 -430 -86 -396 c 128,-1,8
 -150 -362 -150 -362 -150 -297 c 0,9,10
 -150 -249 -150 -249 -121 -218.5 c 128,-1,11
 -92 -188 -92 -188 -45 -188 c 0,12,13
 -39 -188 -39 -188 -25.5 -189.5 c 128,-1,14
 -12 -191 -12 -191 14.5 -193 c 128,-1,15
 41 -195 41 -195 51 -195 c 0,16,17
 106 -195 106 -195 124.5 -152 c 128,-1,18
 143 -109 143 -109 143 2 c 2,19,-1
 143 922 l 2,20,21
 143 1003 143 1003 181 1044 c 128,-1,22
 219 1085 219 1085 281 1085 c 0,23,24
 341 1085 341 1085 378.5 1044.5 c 128,-1,25
 416 1004 416 1004 416 922 c 2,0,-1
281 1212 m 0,26,27
 224 1212 224 1212 183.5 1247 c 128,-1,28
 143 1282 143 1282 143 1346 c 0,29,30
 143 1404 143 1404 184.5 1441.5 c 128,-1,31
 226 1479 226 1479 281 1479 c 0,32,33
 334 1479 334 1479 375 1445 c 128,-1,34
 416 1411 416 1411 416 1346 c 0,35,36
 416 1283 416 1283 376 1247.5 c 128,-1,37
 336 1212 336 1212 281 1212 c 0,26,27
EndSplineSet
Validated: 1
EndChar

StartChar: k
Encoding: 107 107 78
Width: 1174
GlyphClass: 1
Flags: W
LayerCount: 2
Fore
SplineSet
821 100 m 2,0,-1
 580 496 l 1,1,-1
 432 356 l 1,2,-1
 432 139 l 2,3,4
 432 60 432 60 390.5 17.5 c 128,-1,5
 349 -25 349 -25 295 -25 c 0,6,7
 232 -25 232 -25 196 17 c 128,-1,8
 160 59 160 59 160 141 c 2,9,-1
 160 1305 l 2,10,11
 160 1396 160 1396 195 1443.5 c 128,-1,12
 230 1491 230 1491 295 1491 c 0,13,14
 358 1491 358 1491 395 1448 c 128,-1,15
 432 1405 432 1405 432 1321 c 2,16,-1
 432 659 l 1,17,-1
 739 981 l 2,18,19
 796 1041 796 1041 826 1063 c 128,-1,20
 856 1085 856 1085 899 1085 c 0,21,22
 950 1085 950 1085 984 1052.5 c 128,-1,23
 1018 1020 1018 1020 1018 971 c 0,24,25
 1018 911 1018 911 907 811 c 2,26,-1
 762 678 l 1,27,-1
 1042 238 l 2,28,29
 1073 189 1073 189 1086.5 163.5 c 128,-1,30
 1100 138 1100 138 1100 115 c 0,31,32
 1100 50 1100 50 1064.5 12.5 c 128,-1,33
 1029 -25 1029 -25 971 -25 c 0,34,35
 921 -25 921 -25 894 2 c 128,-1,36
 867 29 867 29 821 100 c 2,0,-1
EndSplineSet
Validated: 1
EndChar

StartChar: l
Encoding: 108 108 79
Width: 555
GlyphClass: 1
Flags: W
LayerCount: 2
Fore
SplineSet
141 141 m 2,0,-1
 141 1325 l 2,1,2
 141 1407 141 1407 177.5 1449 c 128,-1,3
 214 1491 214 1491 276 1491 c 256,4,5
 338 1491 338 1491 376 1449.5 c 128,-1,6
 414 1408 414 1408 414 1325 c 2,7,-1
 414 141 l 2,8,9
 414 58 414 58 375.5 16.5 c 128,-1,10
 337 -25 337 -25 276 -25 c 0,11,12
 216 -25 216 -25 178.5 18 c 128,-1,13
 141 61 141 61 141 141 c 2,0,-1
EndSplineSet
Validated: 1
EndChar

StartChar: m
Encoding: 109 109 80
Width: 1812
GlyphClass: 1
Flags: W
LayerCount: 2
Fore
SplineSet
1049 510 m 2,0,-1
 1049 147 l 2,1,2
 1049 61 1049 61 1010 18 c 128,-1,3
 971 -25 971 -25 907 -25 c 0,4,5
 845 -25 845 -25 806.5 18 c 128,-1,6
 768 61 768 61 768 147 c 2,7,-1
 768 582 l 2,8,9
 768 685 768 685 761 742 c 128,-1,10
 754 799 754 799 723 835.5 c 128,-1,11
 692 872 692 872 625 872 c 0,12,13
 491 872 491 872 448.5 780 c 128,-1,14
 406 688 406 688 406 516 c 2,15,-1
 406 147 l 2,16,17
 406 62 406 62 367.5 18.5 c 128,-1,18
 329 -25 329 -25 266 -25 c 0,19,20
 204 -25 204 -25 164.5 18.5 c 128,-1,21
 125 62 125 62 125 147 c 2,22,-1
 125 928 l 2,23,24
 125 1005 125 1005 160.5 1045 c 128,-1,25
 196 1085 196 1085 254 1085 c 0,26,27
 310 1085 310 1085 347.5 1047.5 c 128,-1,28
 385 1010 385 1010 385 944 c 2,29,-1
 385 918 l 1,30,31
 456 1003 456 1003 537 1043 c 128,-1,32
 618 1083 618 1083 717 1083 c 0,33,34
 820 1083 820 1083 894 1042 c 128,-1,35
 968 1001 968 1001 1016 918 c 1,36,37
 1085 1002 1085 1002 1164 1042.5 c 128,-1,38
 1243 1083 1243 1083 1339 1083 c 0,39,40
 1451 1083 1451 1083 1532 1039 c 128,-1,41
 1613 995 1613 995 1653 913 c 0,42,43
 1688 839 1688 839 1688 680 c 2,44,-1
 1688 147 l 2,45,46
 1688 61 1688 61 1649 18 c 128,-1,47
 1610 -25 1610 -25 1546 -25 c 0,48,49
 1484 -25 1484 -25 1444.5 18.5 c 128,-1,50
 1405 62 1405 62 1405 147 c 2,51,-1
 1405 606 l 2,52,53
 1405 694 1405 694 1397.5 747 c 128,-1,54
 1390 800 1390 800 1357 836 c 128,-1,55
 1324 872 1324 872 1257 872 c 0,56,57
 1203 872 1203 872 1154.5 840 c 128,-1,58
 1106 808 1106 808 1079 754 c 0,59,60
 1049 685 1049 685 1049 510 c 2,0,-1
EndSplineSet
Validated: 1
EndChar

StartChar: n
Encoding: 110 110 81
Width: 1237
GlyphClass: 1
Flags: W
LayerCount: 2
Fore
SplineSet
389 934 m 2,0,-1
 389 901 l 1,1,2
 461 996 461 996 546.5 1040.5 c 128,-1,3
 632 1085 632 1085 743 1085 c 0,4,5
 851 1085 851 1085 936 1038 c 128,-1,6
 1021 991 1021 991 1063 905 c 0,7,8
 1090 855 1090 855 1098 797 c 128,-1,9
 1106 739 1106 739 1106 649 c 2,10,-1
 1106 141 l 2,11,12
 1106 59 1106 59 1068.5 17 c 128,-1,13
 1031 -25 1031 -25 971 -25 c 0,14,15
 910 -25 910 -25 872 18 c 128,-1,16
 834 61 834 61 834 141 c 2,17,-1
 834 596 l 2,18,19
 834 731 834 731 796.5 802.5 c 128,-1,20
 759 874 759 874 647 874 c 0,21,22
 574 874 574 874 514 830.5 c 128,-1,23
 454 787 454 787 426 711 c 0,24,25
 406 650 406 650 406 483 c 2,26,-1
 406 141 l 2,27,28
 406 58 406 58 367.5 16.5 c 128,-1,29
 329 -25 329 -25 268 -25 c 0,30,31
 209 -25 209 -25 171 18 c 128,-1,32
 133 61 133 61 133 141 c 2,33,-1
 133 930 l 2,34,35
 133 1008 133 1008 167 1046.5 c 128,-1,36
 201 1085 201 1085 260 1085 c 0,37,38
 296 1085 296 1085 325 1068 c 128,-1,39
 354 1051 354 1051 371.5 1017 c 128,-1,40
 389 983 389 983 389 934 c 2,0,-1
EndSplineSet
Validated: 1
EndChar

StartChar: o
Encoding: 111 111 82
Width: 1237
GlyphClass: 1
Flags: W
LayerCount: 2
Fore
SplineSet
1163 530 m 0,0,1
 1163 408 1163 408 1125 305 c 128,-1,2
 1087 202 1087 202 1015 128 c 128,-1,3
 943 54 943 54 843 14.5 c 128,-1,4
 743 -25 743 -25 618 -25 c 0,5,6
 494 -25 494 -25 395 15 c 128,-1,7
 296 55 296 55 223.5 129.5 c 128,-1,8
 151 204 151 204 113.5 305.5 c 128,-1,9
 76 407 76 407 76 530 c 0,10,11
 76 654 76 654 114 757 c 128,-1,12
 152 860 152 860 223 933 c 128,-1,13
 294 1006 294 1006 395 1045.5 c 128,-1,14
 496 1085 496 1085 618 1085 c 0,15,16
 742 1085 742 1085 843 1045 c 128,-1,17
 944 1005 944 1005 1016 931 c 128,-1,18
 1088 857 1088 857 1125.5 755 c 128,-1,19
 1163 653 1163 653 1163 530 c 0,0,1
889 530 m 0,20,21
 889 697 889 697 815.5 790 c 128,-1,22
 742 883 742 883 618 883 c 0,23,24
 538 883 538 883 477 841.5 c 128,-1,25
 416 800 416 800 383 719 c 128,-1,26
 350 638 350 638 350 530 c 0,27,28
 350 423 350 423 382.5 343 c 128,-1,29
 415 263 415 263 475.5 220.5 c 128,-1,30
 536 178 536 178 618 178 c 0,31,32
 742 178 742 178 815.5 271.5 c 128,-1,33
 889 365 889 365 889 530 c 0,20,21
EndSplineSet
Validated: 1
EndChar

StartChar: p
Encoding: 112 112 83
Width: 1280
GlyphClass: 1
Flags: W
LayerCount: 2
Fore
SplineSet
393 932 m 2,0,-1
 393 899 l 1,1,2
 470 994 470 994 553 1038.5 c 128,-1,3
 636 1083 636 1083 741 1083 c 0,4,5
 867 1083 867 1083 973 1018 c 128,-1,6
 1079 953 1079 953 1140.5 828 c 128,-1,7
 1202 703 1202 703 1202 532 c 0,8,9
 1202 406 1202 406 1166.5 300.5 c 128,-1,10
 1131 195 1131 195 1069 123.5 c 128,-1,11
 1007 52 1007 52 922.5 13.5 c 128,-1,12
 838 -25 838 -25 741 -25 c 0,13,14
 624 -25 624 -25 544.5 22 c 128,-1,15
 465 69 465 69 393 160 c 1,16,-1
 393 -250 l 2,17,18
 393 -430 393 -430 262 -430 c 0,19,20
 185 -430 185 -430 160 -383.5 c 128,-1,21
 135 -337 135 -337 135 -248 c 2,22,-1
 135 930 l 2,23,24
 135 1008 135 1008 169 1046.5 c 128,-1,25
 203 1085 203 1085 262 1085 c 0,26,27
 320 1085 320 1085 356.5 1045.5 c 128,-1,28
 393 1006 393 1006 393 932 c 2,0,-1
928 535 m 0,29,30
 928 643 928 643 895 720.5 c 128,-1,31
 862 798 862 798 803.5 839.5 c 128,-1,32
 745 881 745 881 674 881 c 0,33,34
 561 881 561 881 483.5 792 c 128,-1,35
 406 703 406 703 406 530 c 0,36,37
 406 367 406 367 483 276.5 c 128,-1,38
 560 186 560 186 674 186 c 0,39,40
 742 186 742 186 800 225.5 c 128,-1,41
 858 265 858 265 893 344 c 128,-1,42
 928 423 928 423 928 535 c 0,29,30
EndSplineSet
Validated: 1
EndChar

StartChar: q
Encoding: 113 113 84
Width: 1280
GlyphClass: 1
Flags: W
LayerCount: 2
Fore
SplineSet
889 -248 m 2,0,-1
 889 137 l 1,1,2
 810 58 810 58 724.5 16.5 c 128,-1,3
 639 -25 639 -25 535 -25 c 0,4,5
 408 -25 408 -25 303.5 42 c 128,-1,6
 199 109 199 109 139.5 234.5 c 128,-1,7
 80 360 80 360 80 530 c 0,8,9
 80 704 80 704 140 828.5 c 128,-1,10
 200 953 200 953 306.5 1018 c 128,-1,11
 413 1083 413 1083 543 1083 c 0,12,13
 653 1083 653 1083 740 1037.5 c 128,-1,14
 827 992 827 992 889 899 c 1,15,-1
 889 932 l 2,16,17
 889 1007 889 1007 925 1046 c 128,-1,18
 961 1085 961 1085 1018 1085 c 256,19,20
 1075 1085 1075 1085 1111 1046.5 c 128,-1,21
 1147 1008 1147 1008 1147 932 c 2,22,-1
 1147 -248 l 2,23,24
 1147 -430 1147 -430 1018 -430 c 0,25,26
 938 -430 938 -430 913.5 -381 c 128,-1,27
 889 -332 889 -332 889 -248 c 2,0,-1
354 532 m 0,28,29
 354 422 354 422 389.5 342.5 c 128,-1,30
 425 263 425 263 483 224.5 c 128,-1,31
 541 186 541 186 608 186 c 0,32,33
 681 186 681 186 742 224.5 c 128,-1,34
 803 263 803 263 840 342 c 128,-1,35
 877 421 877 421 877 537 c 0,36,37
 877 619 877 619 855.5 685 c 128,-1,38
 834 751 834 751 797 794.5 c 128,-1,39
 760 838 760 838 712 859.5 c 128,-1,40
 664 881 664 881 610 881 c 0,41,42
 500 881 500 881 427 790 c 128,-1,43
 354 699 354 699 354 532 c 0,28,29
EndSplineSet
Validated: 1
EndChar

StartChar: r
Encoding: 114 114 85
Width: 897
GlyphClass: 1
Flags: W
LayerCount: 2
Fore
SplineSet
412 369 m 2,0,-1
 412 141 l 2,1,2
 412 58 412 58 373 16.5 c 128,-1,3
 334 -25 334 -25 274 -25 c 0,4,5
 215 -25 215 -25 177 17 c 128,-1,6
 139 59 139 59 139 141 c 2,7,-1
 139 901 l 2,8,9
 139 1085 139 1085 272 1085 c 0,10,11
 340 1085 340 1085 370 1042 c 128,-1,12
 400 999 400 999 403 915 c 1,13,14
 452 999 452 999 503.5 1042 c 128,-1,15
 555 1085 555 1085 641 1085 c 256,16,17
 727 1085 727 1085 808 1042 c 128,-1,18
 889 999 889 999 889 928 c 0,19,20
 889 878 889 878 854.5 845.5 c 128,-1,21
 820 813 820 813 780 813 c 0,22,23
 765 813 765 813 707.5 831.5 c 128,-1,24
 650 850 650 850 606 850 c 0,25,26
 546 850 546 850 508 818.5 c 128,-1,27
 470 787 470 787 449 725 c 128,-1,28
 428 663 428 663 420 577.5 c 128,-1,29
 412 492 412 492 412 369 c 2,0,-1
EndSplineSet
Validated: 1
EndChar

StartChar: s
Encoding: 115 115 86
Width: 1110
GlyphClass: 1
Flags: W
LayerCount: 2
Fore
SplineSet
1020 332 m 0,0,1
 1020 219 1020 219 965 138.5 c 128,-1,2
 910 58 910 58 802.5 16.5 c 128,-1,3
 695 -25 695 -25 541 -25 c 0,4,5
 394 -25 394 -25 289 20 c 128,-1,6
 184 65 184 65 134 132.5 c 128,-1,7
 84 200 84 200 84 268 c 0,8,9
 84 313 84 313 116 345 c 128,-1,10
 148 377 148 377 197 377 c 0,11,12
 240 377 240 377 263 356 c 128,-1,13
 286 335 286 335 307 297 c 0,14,15
 349 224 349 224 407.5 188 c 128,-1,16
 466 152 466 152 567 152 c 0,17,18
 649 152 649 152 701.5 188.5 c 128,-1,19
 754 225 754 225 754 272 c 0,20,21
 754 344 754 344 699.5 377 c 128,-1,22
 645 410 645 410 520 440 c 0,23,24
 379 475 379 475 290.5 513.5 c 128,-1,25
 202 552 202 552 149 615 c 128,-1,26
 96 678 96 678 96 770 c 0,27,28
 96 852 96 852 145 925 c 128,-1,29
 194 998 194 998 289.5 1041.5 c 128,-1,30
 385 1085 385 1085 520 1085 c 0,31,32
 626 1085 626 1085 710.5 1063 c 128,-1,33
 795 1041 795 1041 851.5 1004 c 128,-1,34
 908 967 908 967 937.5 922 c 128,-1,35
 967 877 967 877 967 834 c 0,36,37
 967 787 967 787 935.5 757 c 128,-1,38
 904 727 904 727 846 727 c 0,39,40
 804 727 804 727 774.5 751 c 128,-1,41
 745 775 745 775 707 823 c 0,42,43
 676 863 676 863 634 887 c 128,-1,44
 592 911 592 911 520 911 c 0,45,46
 446 911 446 911 397 879.5 c 128,-1,47
 348 848 348 848 348 801 c 0,48,49
 348 758 348 758 384 730.5 c 128,-1,50
 420 703 420 703 481 685 c 128,-1,51
 542 667 542 667 649 641 c 0,52,53
 776 610 776 610 856.5 567 c 128,-1,54
 937 524 937 524 978.5 465.5 c 128,-1,55
 1020 407 1020 407 1020 332 c 0,0,1
EndSplineSet
Validated: 1
EndChar

StartChar: t
Encoding: 116 116 87
Width: 725
GlyphClass: 1
Flags: W
LayerCount: 2
Fore
SplineSet
156 1061 m 2,0,-1
 186 1061 l 1,1,-1
 186 1225 l 2,2,3
 186 1291 186 1291 189.5 1328.5 c 128,-1,4
 193 1366 193 1366 209 1393 c 0,5,6
 225 1421 225 1421 255 1438.5 c 128,-1,7
 285 1456 285 1456 322 1456 c 0,8,9
 374 1456 374 1456 416 1417 c 0,10,11
 444 1391 444 1391 451.5 1353.5 c 128,-1,12
 459 1316 459 1316 459 1247 c 2,13,-1
 459 1061 l 1,14,-1
 559 1061 l 2,15,16
 617 1061 617 1061 647.5 1033.5 c 128,-1,17
 678 1006 678 1006 678 963 c 0,18,19
 678 908 678 908 634.5 886 c 128,-1,20
 591 864 591 864 510 864 c 2,21,-1
 459 864 l 1,22,-1
 459 362 l 2,23,24
 459 298 459 298 463.5 263.5 c 128,-1,25
 468 229 468 229 487.5 207.5 c 128,-1,26
 507 186 507 186 551 186 c 0,27,28
 575 186 575 186 616 194.5 c 128,-1,29
 657 203 657 203 680 203 c 0,30,31
 713 203 713 203 739.5 176.5 c 128,-1,32
 766 150 766 150 766 111 c 0,33,34
 766 45 766 45 694 10 c 128,-1,35
 622 -25 622 -25 487 -25 c 0,36,37
 359 -25 359 -25 293 18 c 128,-1,38
 227 61 227 61 206.5 137 c 128,-1,39
 186 213 186 213 186 340 c 2,40,-1
 186 864 l 1,41,-1
 150 864 l 2,42,43
 91 864 91 864 60 892 c 128,-1,44
 29 920 29 920 29 963 c 256,45,46
 29 1006 29 1006 61.5 1033.5 c 128,-1,47
 94 1061 94 1061 156 1061 c 2,0,-1
EndSplineSet
Validated: 1
EndChar

StartChar: u
Encoding: 117 117 88
Width: 1237
GlyphClass: 1
Flags: W
LayerCount: 2
Fore
SplineSet
850 129 m 2,0,-1
 850 164 l 1,1,2
 801 102 801 102 747 60 c 128,-1,3
 693 18 693 18 629 -2.5 c 128,-1,4
 565 -23 565 -23 483 -23 c 0,5,6
 384 -23 384 -23 305.5 18 c 128,-1,7
 227 59 227 59 184 131 c 0,8,9
 133 218 133 218 133 381 c 2,10,-1
 133 922 l 2,11,12
 133 1004 133 1004 170 1044.5 c 128,-1,13
 207 1085 207 1085 268 1085 c 0,14,15
 330 1085 330 1085 368 1044 c 128,-1,16
 406 1003 406 1003 406 922 c 2,17,-1
 406 485 l 2,18,19
 406 390 406 390 422 325.5 c 128,-1,20
 438 261 438 261 479.5 224.5 c 128,-1,21
 521 188 521 188 592 188 c 0,22,23
 661 188 661 188 722 229 c 128,-1,24
 783 270 783 270 811 336 c 0,25,26
 834 394 834 394 834 590 c 2,27,-1
 834 922 l 2,28,29
 834 1003 834 1003 872 1044 c 128,-1,30
 910 1085 910 1085 971 1085 c 256,31,32
 1032 1085 1032 1085 1069 1044.5 c 128,-1,33
 1106 1004 1106 1004 1106 922 c 2,34,-1
 1106 131 l 2,35,36
 1106 53 1106 53 1070.5 14 c 128,-1,37
 1035 -25 1035 -25 979 -25 c 256,38,39
 923 -25 923 -25 886.5 15.5 c 128,-1,40
 850 56 850 56 850 129 c 2,0,-1
EndSplineSet
Validated: 1
EndChar

StartChar: v
Encoding: 118 118 89
Width: 1110
GlyphClass: 1
Flags: W
LayerCount: 2
Fore
SplineSet
334 915 m 2,0,-1
 555 295 l 1,1,-1
 793 942 l 2,2,3
 821 1020 821 1020 848 1052.5 c 128,-1,4
 875 1085 875 1085 930 1085 c 0,5,6
 982 1085 982 1085 1018.5 1050 c 128,-1,7
 1055 1015 1055 1015 1055 969 c 0,8,9
 1055 951 1055 951 1048.5 927 c 128,-1,10
 1042 903 1042 903 1033.5 882 c 128,-1,11
 1025 861 1025 861 1014 834 c 2,12,-1
 752 184 l 2,13,14
 741 156 741 156 723.5 113 c 128,-1,15
 706 70 706 70 684.5 39.5 c 128,-1,16
 663 9 663 9 631.5 -8 c 128,-1,17
 600 -25 600 -25 555 -25 c 0,18,19
 497 -25 497 -25 462.5 1.5 c 128,-1,20
 428 28 428 28 411.5 59.5 c 128,-1,21
 395 91 395 91 356 184 c 2,22,-1
 96 827 l 2,23,24
 87 851 87 851 77.5 875 c 128,-1,25
 68 899 68 899 61.5 924 c 128,-1,26
 55 949 55 949 55 967 c 0,27,28
 55 995 55 995 72 1022.5 c 128,-1,29
 89 1050 89 1050 119 1067.5 c 128,-1,30
 149 1085 149 1085 184 1085 c 0,31,32
 252 1085 252 1085 277.5 1046 c 128,-1,33
 303 1007 303 1007 334 915 c 2,0,-1
EndSplineSet
Validated: 1
EndChar

StartChar: w
Encoding: 119 119 90
Width: 1665
GlyphClass: 1
Flags: W
LayerCount: 2
Fore
SplineSet
311 915 m 2,0,-1
 489 305 l 1,1,-1
 651 872 l 2,2,3
 677 961 677 961 689.5 993.5 c 128,-1,4
 702 1026 702 1026 736.5 1055.5 c 128,-1,5
 771 1085 771 1085 831 1085 c 0,6,7
 892 1085 892 1085 926.5 1055.5 c 128,-1,8
 961 1026 961 1026 975 991.5 c 128,-1,9
 989 957 989 957 1014 872 c 2,10,-1
 1176 305 l 1,11,-1
 1356 915 l 2,12,13
 1374 981 1374 981 1385 1010.5 c 128,-1,14
 1396 1040 1396 1040 1422 1062.5 c 128,-1,15
 1448 1085 1448 1085 1497 1085 c 256,16,17
 1546 1085 1546 1085 1582 1051 c 128,-1,18
 1618 1017 1618 1017 1618 971 c 0,19,20
 1618 929 1618 929 1587 844 c 2,21,-1
 1364 190 l 2,22,23
 1335 107 1335 107 1319 70 c 128,-1,24
 1303 33 1303 33 1268.5 4 c 128,-1,25
 1234 -25 1234 -25 1174 -25 c 0,26,27
 1112 -25 1112 -25 1076.5 6 c 128,-1,28
 1041 37 1041 37 1024 82 c 128,-1,29
 1007 127 1007 127 987 199 c 2,30,-1
 831 731 l 1,31,-1
 680 199 l 2,32,33
 650 88 650 88 615 31.5 c 128,-1,34
 580 -25 580 -25 492 -25 c 0,35,36
 447 -25 447 -25 415.5 -7.5 c 128,-1,37
 384 10 384 10 363 42.5 c 128,-1,38
 342 75 342 75 326 119.5 c 128,-1,39
 310 164 310 164 301 190 c 2,40,-1
 80 844 l 2,41,42
 47 936 47 936 47 971 c 0,43,44
 47 1015 47 1015 82 1050 c 128,-1,45
 117 1085 117 1085 168 1085 c 0,46,47
 236 1085 236 1085 260 1046.5 c 128,-1,48
 284 1008 284 1008 311 915 c 2,0,-1
EndSplineSet
Validated: 1
EndChar

StartChar: x
Encoding: 120 120 91
Width: 1067
GlyphClass: 1
Flags: W
LayerCount: 2
Fore
SplineSet
733 88 m 2,0,-1
 535 379 l 1,1,-1
 332 88 l 2,2,3
 288 27 288 27 257.5 1 c 128,-1,4
 227 -25 227 -25 180 -25 c 0,5,6
 128 -25 128 -25 91.5 7.5 c 128,-1,7
 55 40 55 40 55 82 c 0,8,9
 55 125 55 125 111 205 c 2,10,-1
 358 559 l 1,11,-1
 139 854 l 2,12,13
 82 927 82 927 82 981 c 0,14,15
 82 1023 82 1023 116 1054 c 128,-1,16
 150 1085 150 1085 205 1085 c 0,17,18
 253 1085 253 1085 284.5 1058 c 128,-1,19
 316 1031 316 1031 358 973 c 2,20,-1
 535 731 l 1,21,-1
 707 973 l 2,22,23
 750 1033 750 1033 781.5 1059 c 128,-1,24
 813 1085 813 1085 860 1085 c 0,25,26
 914 1085 914 1085 949.5 1054.5 c 128,-1,27
 985 1024 985 1024 985 981 c 0,28,29
 985 950 985 950 970.5 921.5 c 128,-1,30
 956 893 956 893 926 854 c 2,31,-1
 707 559 l 1,32,-1
 954 205 l 2,33,34
 1012 122 1012 122 1012 80 c 0,35,36
 1012 37 1012 37 976 6 c 128,-1,37
 940 -25 940 -25 887 -25 c 0,38,39
 840 -25 840 -25 807.5 2 c 128,-1,40
 775 29 775 29 733 88 c 2,0,-1
EndSplineSet
Validated: 1
EndChar

StartChar: y
Encoding: 121 121 92
Width: 1110
GlyphClass: 1
Flags: W
LayerCount: 2
Fore
SplineSet
393 -59 m 2,0,-1
 418 2 l 1,1,-1
 82 848 l 2,2,3
 51 921 51 921 51 954 c 0,4,5
 51 989 51 989 69 1019 c 128,-1,6
 87 1049 87 1049 118.5 1067 c 128,-1,7
 150 1085 150 1085 184 1085 c 0,8,9
 243 1085 243 1085 273 1047.5 c 128,-1,10
 303 1010 303 1010 326 940 c 2,11,-1
 557 268 l 1,12,-1
 776 893 l 2,13,14
 802 969 802 969 823 1012 c 128,-1,15
 844 1055 844 1055 867.5 1070 c 128,-1,16
 891 1085 891 1085 934 1085 c 0,17,18
 965 1085 965 1085 993.5 1068.5 c 128,-1,19
 1022 1052 1022 1052 1037.5 1024 c 128,-1,20
 1053 996 1053 996 1053 965 c 1,21,22
 1049 946 1049 946 1040 911 c 128,-1,23
 1031 876 1031 876 1018 840 c 2,24,-1
 662 -92 l 2,25,26
 616 -215 616 -215 572 -285 c 128,-1,27
 528 -355 528 -355 455.5 -392.5 c 128,-1,28
 383 -430 383 -430 260 -430 c 0,29,30
 140 -430 140 -430 80 -404 c 128,-1,31
 20 -378 20 -378 20 -309 c 0,32,33
 20 -262 20 -262 48.5 -236.5 c 128,-1,34
 77 -211 77 -211 133 -211 c 0,35,36
 155 -211 155 -211 176 -217 c 0,37,38
 202 -223 202 -223 221 -223 c 0,39,40
 268 -223 268 -223 295 -209 c 128,-1,41
 322 -195 322 -195 343.5 -160.5 c 128,-1,42
 365 -126 365 -126 393 -59 c 2,0,-1
EndSplineSet
Validated: 1
EndChar

StartChar: z
Encoding: 122 122 93
Width: 1067
GlyphClass: 1
Flags: W
LayerCount: 2
Fore
SplineSet
883 772 m 2,0,-1
 383 213 l 1,1,-1
 918 213 l 2,2,3
 983 213 983 213 1016 182.5 c 128,-1,4
 1049 152 1049 152 1049 104 c 0,5,6
 1049 58 1049 58 1016.5 29 c 128,-1,7
 984 0 984 0 918 0 c 2,8,-1
 178 0 l 2,9,10
 100 0 100 0 61.5 34 c 128,-1,11
 23 68 23 68 23 127 c 0,12,13
 23 162 23 162 50 197.5 c 128,-1,14
 77 233 77 233 162 328 c 0,15,16
 252 428 252 428 325.5 509 c 128,-1,17
 399 590 399 590 462 660.5 c 128,-1,18
 525 731 525 731 566.5 780 c 128,-1,19
 608 829 608 829 633 864 c 1,20,-1
 227 864 l 2,21,22
 143 864 143 864 100 879 c 128,-1,23
 57 894 57 894 57 958 c 0,24,25
 57 1005 57 1005 89.5 1033 c 128,-1,26
 122 1061 122 1061 182 1061 c 2,27,-1
 809 1061 l 2,28,29
 896 1061 896 1061 942.5 1035.5 c 128,-1,30
 989 1010 989 1010 989 944 c 0,31,32
 989 922 989 922 980 898.5 c 128,-1,33
 971 875 971 875 960 860 c 128,-1,34
 949 845 949 845 930 823.5 c 128,-1,35
 911 802 911 802 883 772 c 2,0,-1
EndSplineSet
Validated: 1
EndChar

StartChar: braceleft
Encoding: 123 123 94
Width: 788
GlyphClass: 1
Flags: W
LayerCount: 2
Fore
SplineSet
352 530 m 1,0,1
 423 486 423 486 463 431.5 c 128,-1,2
 503 377 503 377 519 292.5 c 128,-1,3
 535 208 535 208 535 76 c 0,4,5
 535 -23 535 -23 539.5 -70 c 128,-1,6
 544 -117 544 -117 557.5 -141.5 c 128,-1,7
 571 -166 571 -166 590 -173.5 c 128,-1,8
 609 -181 609 -181 655 -188 c 0,9,10
 693 -193 693 -193 718 -225 c 128,-1,11
 743 -257 743 -257 743 -309 c 0,12,13
 743 -430 743 -430 596 -430 c 0,14,15
 505 -430 505 -430 433.5 -392 c 128,-1,16
 362 -354 362 -354 323 -284.5 c 128,-1,17
 284 -215 284 -215 283 -125 c 0,18,19
 280 27 280 27 277 119 c 128,-1,20
 274 211 274 211 268 238 c 0,21,22
 253 305 253 305 223.5 339 c 128,-1,23
 194 373 194 373 146.5 402.5 c 128,-1,24
 99 432 99 432 79 455.5 c 128,-1,25
 59 479 59 479 59 530 c 0,26,27
 59 604 59 604 117 641 c 0,28,29
 189 686 189 686 219.5 717.5 c 128,-1,30
 250 749 250 749 262.5 798.5 c 128,-1,31
 275 848 275 848 277 906.5 c 128,-1,32
 279 965 279 965 283 1188 c 0,33,34
 286 1326 286 1326 370.5 1408.5 c 128,-1,35
 455 1491 455 1491 596 1491 c 0,36,37
 743 1491 743 1491 743 1372 c 0,38,39
 743 1318 743 1318 718.5 1287 c 128,-1,40
 694 1256 694 1256 655 1251 c 0,41,42
 597 1243 597 1243 574 1227 c 128,-1,43
 551 1211 551 1211 544 1165 c 128,-1,44
 537 1119 537 1119 535 987 c 0,45,46
 533 858 533 858 519.5 775.5 c 128,-1,47
 506 693 506 693 466.5 635 c 128,-1,48
 427 577 427 577 352 530 c 1,0,1
EndSplineSet
Validated: 1
EndChar

StartChar: bar
Encoding: 124 124 95
Width: 575
GlyphClass: 1
Flags: W
LayerCount: 2
Fore
SplineSet
399 1354 m 2,0,-1
 399 -293 l 2,1,2
 399 -361 399 -361 368.5 -395.5 c 128,-1,3
 338 -430 338 -430 289 -430 c 256,4,5
 240 -430 240 -430 208 -395 c 128,-1,6
 176 -360 176 -360 176 -293 c 2,7,-1
 176 1354 l 2,8,9
 176 1421 176 1421 208 1456 c 128,-1,10
 240 1491 240 1491 289 1491 c 256,11,12
 338 1491 338 1491 368.5 1455.5 c 128,-1,13
 399 1420 399 1420 399 1354 c 2,0,-1
EndSplineSet
Validated: 1
EndChar

StartChar: braceright
Encoding: 125 125 96
Width: 788
GlyphClass: 1
Flags: W
LayerCount: 2
Fore
SplineSet
436 530 m 1,0,1
 382 564 382 564 348 601 c 128,-1,2
 314 638 314 638 292 691 c 128,-1,3
 270 744 270 744 261 816.5 c 128,-1,4
 252 889 252 889 252 987 c 0,5,6
 252 1082 252 1082 248 1132.5 c 128,-1,7
 244 1183 244 1183 232 1206 c 128,-1,8
 220 1229 220 1229 198.5 1237.5 c 128,-1,9
 177 1246 177 1246 133 1251 c 0,10,11
 96 1256 96 1256 70.5 1287 c 128,-1,12
 45 1318 45 1318 45 1372 c 0,13,14
 45 1491 45 1491 190 1491 c 0,15,16
 283 1491 283 1491 353.5 1453.5 c 128,-1,17
 424 1416 424 1416 464.5 1346.5 c 128,-1,18
 505 1277 505 1277 506 1188 c 0,19,20
 512 856 512 856 520 823 c 0,21,22
 536 757 536 757 567 722.5 c 128,-1,23
 598 688 598 688 642 661.5 c 128,-1,24
 686 635 686 635 707.5 609 c 128,-1,25
 729 583 729 583 729 530 c 0,26,27
 729 455 729 455 672 420 c 0,28,29
 602 377 602 377 570.5 344.5 c 128,-1,30
 539 312 539 312 526.5 263.5 c 128,-1,31
 514 215 514 215 511.5 118 c 128,-1,32
 509 21 509 21 506 -125 c 0,33,34
 503 -263 503 -263 417.5 -346.5 c 128,-1,35
 332 -430 332 -430 190 -430 c 0,36,37
 120 -430 120 -430 82.5 -399 c 128,-1,38
 45 -368 45 -368 45 -309 c 0,39,40
 45 -276 45 -276 57 -248.5 c 128,-1,41
 69 -221 69 -221 88.5 -206 c 128,-1,42
 108 -191 108 -191 133 -188 c 0,43,44
 178 -182 178 -182 200 -173 c 128,-1,45
 222 -164 222 -164 233.5 -139 c 128,-1,46
 245 -114 245 -114 248.5 -65.5 c 128,-1,47
 252 -17 252 -17 252 76 c 0,48,49
 254 214 254 214 268 292 c 128,-1,50
 282 370 282 370 321 426 c 128,-1,51
 360 482 360 482 436 530 c 1,0,1
EndSplineSet
Validated: 1
EndChar

StartChar: asciitilde
Encoding: 126 126 97
Width: 1194
GlyphClass: 1
Flags: W
LayerCount: 2
Fore
SplineSet
338 657 m 0,0,1
 197 657 197 657 66 520 c 1,2,-1
 66 778 l 1,3,4
 132 852 132 852 204.5 883.5 c 128,-1,5
 277 915 277 915 367 915 c 0,6,7
 436 915 436 915 498.5 897 c 128,-1,8
 561 879 561 879 627 852.5 c 128,-1,9
 693 826 693 826 756 803 c 128,-1,10
 819 780 819 780 854 780 c 0,11,12
 917 780 917 780 989.5 817 c 128,-1,13
 1062 854 1062 854 1128 924 c 1,14,-1
 1128 655 l 1,15,16
 1098 624 1098 624 1049.5 592.5 c 128,-1,17
 1001 561 1001 561 950 541.5 c 128,-1,18
 899 522 899 522 854 522 c 0,19,20
 782 522 782 522 720.5 539 c 128,-1,21
 659 556 659 556 580.5 589.5 c 128,-1,22
 502 623 502 623 451 640 c 128,-1,23
 400 657 400 657 338 657 c 0,0,1
EndSplineSet
Validated: 1
EndChar

StartChar: Ccedilla
Encoding: 199 199 100
Width: 1516
GlyphClass: 1
Flags: W
LayerCount: 2
Fore
SplineSet
813 -25 m 1,0,-1
 807 -47 l 1,1,2
 908 -64 908 -64 963 -105.5 c 128,-1,3
 1018 -147 1018 -147 1018 -223 c 0,4,5
 1018 -282 1018 -282 980 -328 c 128,-1,6
 942 -374 942 -374 865.5 -400 c 128,-1,7
 789 -426 789 -426 682 -426 c 0,8,9
 629 -426 629 -426 582.5 -420 c 128,-1,10
 536 -414 536 -414 485 -399 c 0,11,12
 478 -397 478 -397 470.5 -383 c 128,-1,13
 463 -369 463 -369 463 -358 c 0,14,15
 463 -326 463 -326 487.5 -314.5 c 128,-1,16
 512 -303 512 -303 557 -303 c 0,17,18
 573 -303 573 -303 582 -303.5 c 128,-1,19
 591 -304 591 -304 606.5 -305 c 128,-1,20
 622 -306 622 -306 640 -307.5 c 128,-1,21
 658 -309 658 -309 670 -309 c 0,22,23
 831 -309 831 -309 831 -223 c 0,24,25
 831 -189 831 -189 802.5 -167 c 128,-1,26
 774 -145 774 -145 727 -145 c 0,27,28
 708 -145 708 -145 674 -151.5 c 128,-1,29
 640 -158 640 -158 633 -158 c 0,30,31
 615 -158 615 -158 600.5 -142 c 128,-1,32
 586 -126 586 -126 586 -104 c 0,33,34
 586 -41 586 -41 750 -25 c 1,35,36
 678 -19 678 -19 604 -3.5 c 128,-1,37
 530 12 530 12 469 41 c 128,-1,38
 408 70 408 70 354 117 c 0,39,40
 278 181 278 181 220 275 c 128,-1,41
 162 369 162 369 132 484 c 128,-1,42
 102 599 102 599 102 731 c 0,43,44
 102 908 102 908 153.5 1048 c 128,-1,45
 205 1188 205 1188 301 1287.5 c 128,-1,46
 397 1387 397 1387 526 1439 c 128,-1,47
 655 1491 655 1491 801 1491 c 0,48,49
 979 1491 979 1491 1118 1420 c 128,-1,50
 1257 1349 1257 1349 1331 1244.5 c 128,-1,51
 1405 1140 1405 1140 1405 1047 c 0,52,53
 1405 996 1405 996 1369 957 c 128,-1,54
 1333 918 1333 918 1282 918 c 0,55,56
 1237 918 1237 918 1207 938.5 c 128,-1,57
 1177 959 1177 959 1151 1004 c 0,58,59
 1112 1077 1112 1077 1072.5 1130.5 c 128,-1,60
 1033 1184 1033 1184 967.5 1219.5 c 128,-1,61
 902 1255 902 1255 803 1255 c 0,62,63
 620 1255 620 1255 511.5 1116 c 128,-1,64
 403 977 403 977 403 721 c 0,65,66
 403 550 403 550 451 436 c 128,-1,67
 499 322 499 322 586.5 265.5 c 128,-1,68
 674 209 674 209 793 209 c 0,69,70
 928 209 928 209 1022.5 284.5 c 128,-1,71
 1117 360 1117 360 1143 461 c 0,72,73
 1177 592 1177 592 1280 592 c 0,74,75
 1333 592 1333 592 1371 555 c 128,-1,76
 1409 518 1409 518 1409 463 c 256,77,78
 1409 408 1409 408 1383 338 c 128,-1,79
 1357 268 1357 268 1306 200.5 c 128,-1,80
 1255 133 1255 133 1184 82 c 0,81,82
 1040 -22 1040 -22 813 -25 c 1,0,-1
EndSplineSet
Validated: 1
EndChar

StartChar: ccedilla
Encoding: 231 231 111
Width: 1217
GlyphClass: 1
Flags: W
LayerCount: 2
Fore
SplineSet
655 -25 m 1,0,-1
 651 -45 l 1,1,2
 757 -54 757 -54 808.5 -98 c 128,-1,3
 860 -142 860 -142 860 -213 c 0,4,5
 860 -272 860 -272 821.5 -316.5 c 128,-1,6
 783 -361 783 -361 708 -385.5 c 128,-1,7
 633 -410 633 -410 526 -410 c 0,8,9
 342 -410 342 -410 342 -340 c 0,10,11
 342 -321 342 -321 356 -307 c 128,-1,12
 370 -293 370 -293 389 -293 c 0,13,14
 393 -293 393 -293 433 -297 c 128,-1,15
 473 -301 473 -301 506 -301 c 0,16,17
 686 -301 686 -301 686 -215 c 0,18,19
 686 -184 686 -184 658.5 -162.5 c 128,-1,20
 631 -141 631 -141 590 -141 c 0,21,22
 574 -141 574 -141 544 -145.5 c 128,-1,23
 514 -150 514 -150 500 -150 c 0,24,25
 475 -150 475 -150 460.5 -131.5 c 128,-1,26
 446 -113 446 -113 446 -92 c 0,27,28
 446 -44 446 -44 588 -23 c 1,29,30
 346 -10 346 -10 217 136.5 c 128,-1,31
 88 283 88 283 88 520 c 0,32,33
 88 688 88 688 153 817 c 128,-1,34
 218 946 218 946 341 1016.5 c 128,-1,35
 464 1087 464 1087 635 1087 c 0,36,37
 741 1087 741 1087 829.5 1056 c 128,-1,38
 918 1025 918 1025 979.5 976 c 128,-1,39
 1041 927 1041 927 1073.5 871.5 c 128,-1,40
 1106 816 1106 816 1106 768 c 0,41,42
 1106 719 1106 719 1069.5 685 c 128,-1,43
 1033 651 1033 651 981 651 c 0,44,45
 928 651 928 651 891 702 c 0,46,47
 829 792 829 792 777 834.5 c 128,-1,48
 725 877 725 877 631 877 c 0,49,50
 510 877 510 877 436 782.5 c 128,-1,51
 362 688 362 688 362 524 c 0,52,53
 362 447 362 447 381 382.5 c 128,-1,54
 400 318 400 318 436 272.5 c 128,-1,55
 472 227 472 227 523 203.5 c 128,-1,56
 574 180 574 180 635 180 c 0,57,58
 721 180 721 180 770.5 213 c 128,-1,59
 820 246 820 246 864.5 313 c 128,-1,60
 909 380 909 380 933 406 c 128,-1,61
 957 432 957 432 1004 432 c 0,62,63
 1053 432 1053 432 1086.5 395 c 128,-1,64
 1120 358 1120 358 1120 313 c 0,65,66
 1120 246 1120 246 1066.5 169 c 128,-1,67
 1013 92 1013 92 907 36.5 c 128,-1,68
 801 -19 801 -19 655 -25 c 1,0,-1
EndSplineSet
Validated: 1
EndChar

StartChar: dagger
Encoding: 8224 8224 130
Width: 1217
GlyphClass: 1
Flags: W
LayerCount: 2
Fore
SplineSet
485 -242 m 2,0,-1
 485 838 l 1,1,-1
 207 838 l 2,2,3
 142 838 142 838 109 867.5 c 128,-1,4
 76 897 76 897 76 944 c 0,5,6
 76 992 76 992 109.5 1021.5 c 128,-1,7
 143 1051 143 1051 207 1051 c 2,8,-1
 485 1051 l 1,9,-1
 485 1327 l 2,10,11
 485 1404 485 1404 519 1441.5 c 128,-1,12
 553 1479 553 1479 608 1479 c 0,13,14
 664 1479 664 1479 698.5 1441.5 c 128,-1,15
 733 1404 733 1404 733 1327 c 2,16,-1
 733 1051 l 1,17,-1
 1012 1051 l 2,18,19
 1078 1051 1078 1051 1110.5 1022 c 128,-1,20
 1143 993 1143 993 1143 944 c 0,21,22
 1143 897 1143 897 1110 867.5 c 128,-1,23
 1077 838 1077 838 1012 838 c 2,24,-1
 733 838 l 1,25,-1
 733 -242 l 2,26,27
 733 -318 733 -318 698.5 -355.5 c 128,-1,28
 664 -393 664 -393 608 -393 c 0,29,30
 553 -393 553 -393 519 -355.5 c 128,-1,31
 485 -318 485 -318 485 -242 c 2,0,-1
EndSplineSet
Validated: 1
EndChar

StartChar: degree
Encoding: 176 176 131
Width: 811
GlyphClass: 1
Flags: W
LayerCount: 2
Fore
SplineSet
86 1171 m 0,0,1
 86 1237 86 1237 112 1297 c 128,-1,2
 138 1357 138 1357 181.5 1399.5 c 128,-1,3
 225 1442 225 1442 283 1466.5 c 128,-1,4
 341 1491 341 1491 406 1491 c 0,5,6
 491 1491 491 1491 565 1448.5 c 128,-1,7
 639 1406 639 1406 682 1332 c 128,-1,8
 725 1258 725 1258 725 1171 c 0,9,10
 725 1085 725 1085 682 1011.5 c 128,-1,11
 639 938 639 938 566 896 c 128,-1,12
 493 854 493 854 406 854 c 0,13,14
 274 854 274 854 180 947 c 128,-1,15
 86 1040 86 1040 86 1171 c 0,0,1
252 1171 m 256,16,17
 252 1108 252 1108 298 1064 c 128,-1,18
 344 1020 344 1020 406 1020 c 256,19,20
 468 1020 468 1020 512.5 1063.5 c 128,-1,21
 557 1107 557 1107 557 1171 c 0,22,23
 557 1214 557 1214 536.5 1249 c 128,-1,24
 516 1284 516 1284 480.5 1304.5 c 128,-1,25
 445 1325 445 1325 406 1325 c 0,26,27
 343 1325 343 1325 297.5 1279.5 c 128,-1,28
 252 1234 252 1234 252 1171 c 256,16,17
EndSplineSet
Validated: 1
EndChar

StartChar: cent
Encoding: 162 162 132
Width: 1194
GlyphClass: 1
Flags: WO
LayerCount: 2
Fore
SplineSet
1111 815 m 6,0,1
 1140 815 1140 815 1160 796 c 132,-1,2
 1180 777 1180 777 1180 751 c 6,3,-1
 1180 217 l 6,4,5
 1180 191 1180 191 1160 172 c 132,-1,6
 1140 153 1140 153 1111 153 c 6,7,-1
 88 153 l 6,8,9
 61 153 61 153 40 172 c 132,-1,10
 19 191 19 191 19 217 c 6,11,-1
 19 842 l 6,12,13
 19 871 19 871 39 888 c 4,14,15
 60 906 60 906 88 906 c 6,16,-1
 563 906 l 6,17,18
 592 906 592 906 617 892 c 132,-1,19
 642 878 642 878 655 854 c 6,20,-1
 677 815 l 5,21,-1
 1111 815 l 6,0,1
EndSplineSet
EndChar

StartChar: sterling
Encoding: 163 163 133
Width: 1217
GlyphClass: 1
Flags: W
LayerCount: 2
Fore
SplineSet
494 823 m 1,0,-1
 643 823 l 2,1,2
 725 823 725 823 770 806.5 c 128,-1,3
 815 790 815 790 815 729 c 0,4,5
 815 687 815 687 785 661 c 128,-1,6
 755 635 755 635 707 635 c 2,7,-1
 530 635 l 1,8,-1
 530 618 l 2,9,10
 530 517 530 517 484.5 432.5 c 128,-1,11
 439 348 439 348 326 221 c 1,12,13
 359 229 359 229 391.5 236 c 128,-1,14
 424 243 424 243 464.5 248.5 c 128,-1,15
 505 254 505 254 553 254 c 0,16,17
 620 254 620 254 740 238.5 c 128,-1,18
 860 223 860 223 899 223 c 0,19,20
 956 223 956 223 1021.5 243.5 c 128,-1,21
 1087 264 1087 264 1104 264 c 0,22,23
 1149 264 1149 264 1184 228 c 128,-1,24
 1219 192 1219 192 1219 143 c 0,25,26
 1219 60 1219 60 1125.5 15.5 c 128,-1,27
 1032 -29 1032 -29 926 -29 c 0,28,29
 861 -29 861 -29 557 41 c 0,30,31
 549 43 549 43 530 49 c 128,-1,32
 511 55 511 55 483 59 c 128,-1,33
 455 63 455 63 416 63 c 0,34,35
 374 63 374 63 342 51 c 128,-1,36
 310 39 310 39 231.5 7 c 128,-1,37
 153 -25 153 -25 125 -25 c 0,38,39
 87 -25 87 -25 50.5 9.5 c 128,-1,40
 14 44 14 44 14 100 c 0,41,42
 14 121 14 121 27 144 c 128,-1,43
 40 167 40 167 68 196.5 c 128,-1,44
 96 226 96 226 152 274 c 0,45,46
 203 317 203 317 237.5 394.5 c 128,-1,47
 272 472 272 472 272 547 c 0,48,49
 272 573 272 573 262 635 c 1,50,-1
 178 635 l 2,51,52
 104 635 104 635 66.5 653 c 128,-1,53
 29 671 29 671 29 725 c 0,54,55
 29 823 29 823 156 823 c 2,56,-1
 215 823 l 1,57,58
 166 979 166 979 166 1069 c 0,59,60
 166 1192 166 1192 224 1288 c 128,-1,61
 282 1384 282 1384 390 1438.5 c 128,-1,62
 498 1493 498 1493 637 1493 c 0,63,64
 760 1493 760 1493 848 1462.5 c 128,-1,65
 936 1432 936 1432 1004 1362 c 0,66,67
 1120 1241 1120 1241 1120 1104 c 0,68,69
 1120 1055 1120 1055 1082 1017 c 128,-1,70
 1044 979 1044 979 989 979 c 0,71,72
 892 979 892 979 860 1087 c 0,73,74
 831 1191 831 1191 780.5 1240.5 c 128,-1,75
 730 1290 730 1290 645 1290 c 0,76,77
 553 1290 553 1290 496.5 1230.5 c 128,-1,78
 440 1171 440 1171 440 1077 c 0,79,80
 440 1020 440 1020 452 970.5 c 128,-1,81
 464 921 464 921 494 823 c 1,0,-1
EndSplineSet
Validated: 1
EndChar

StartChar: section
Encoding: 167 167 134
Width: 1217
GlyphClass: 1
Flags: W
LayerCount: 2
Fore
SplineSet
172 1163 m 0,0,1
 172 1251 172 1251 221.5 1326.5 c 128,-1,2
 271 1402 271 1402 367.5 1447.5 c 128,-1,3
 464 1493 464 1493 596 1493 c 0,4,5
 694 1493 694 1493 777.5 1467 c 128,-1,6
 861 1441 861 1441 919.5 1397.5 c 128,-1,7
 978 1354 978 1354 1009 1302.5 c 128,-1,8
 1040 1251 1040 1251 1040 1200 c 0,9,10
 1040 1160 1040 1160 1005 1129 c 128,-1,11
 970 1098 970 1098 926 1098 c 0,12,13
 884 1098 884 1098 860.5 1118.5 c 128,-1,14
 837 1139 837 1139 796.5 1188.5 c 128,-1,15
 756 1238 756 1238 714.5 1264 c 128,-1,16
 673 1290 673 1290 606 1290 c 0,17,18
 529 1290 529 1290 483.5 1253 c 128,-1,19
 438 1216 438 1216 438 1167 c 0,20,21
 438 1116 438 1116 477 1079.5 c 128,-1,22
 516 1043 516 1043 608.5 993 c 128,-1,23
 701 943 701 943 731 924 c 0,24,25
 819 872 819 872 888.5 831.5 c 128,-1,26
 958 791 958 791 1015 743.5 c 128,-1,27
 1072 696 1072 696 1104.5 633.5 c 128,-1,28
 1137 571 1137 571 1137 487 c 0,29,30
 1137 393 1137 393 1086 316.5 c 128,-1,31
 1035 240 1035 240 938 186 c 1,32,33
 1073 74 1073 74 1073 -78 c 0,34,35
 1073 -150 1073 -150 1042.5 -214 c 128,-1,36
 1012 -278 1012 -278 953 -327 c 128,-1,37
 894 -376 894 -376 813 -403 c 128,-1,38
 732 -430 732 -430 635 -430 c 0,39,40
 518 -430 518 -430 429 -398.5 c 128,-1,41
 340 -367 340 -367 275.5 -312 c 128,-1,42
 211 -257 211 -257 180.5 -196.5 c 128,-1,43
 150 -136 150 -136 150 -82 c 0,44,45
 150 -32 150 -32 186 6.5 c 128,-1,46
 222 45 222 45 276 45 c 0,47,48
 297 45 297 45 318.5 36.5 c 128,-1,49
 340 28 340 28 350 16 c 0,50,51
 400 -47 400 -47 422 -94 c 0,52,53
 480 -227 480 -227 627 -227 c 0,54,55
 708 -227 708 -227 757.5 -183.5 c 128,-1,56
 807 -140 807 -140 807 -82 c 0,57,58
 807 -42 807 -42 779 -7.5 c 128,-1,59
 751 27 751 27 698.5 63 c 128,-1,60
 646 99 646 99 538 165.5 c 128,-1,61
 430 232 430 232 319 303 c 0,62,63
 277 331 277 331 232 362.5 c 128,-1,64
 187 394 187 394 153 431 c 128,-1,65
 119 468 119 468 99.5 516.5 c 128,-1,66
 80 565 80 565 80 631 c 0,67,68
 80 813 80 813 291 924 c 1,69,70
 172 1026 172 1026 172 1163 c 0,0,1
426 813 m 1,71,72
 309 738 309 738 309 659 c 0,73,74
 309 618 309 618 338.5 583 c 128,-1,75
 368 548 368 548 418 515.5 c 128,-1,76
 468 483 468 483 573 420 c 0,77,78
 604 402 604 402 658 369.5 c 128,-1,79
 712 337 712 337 764 309 c 1,80,81
 883 394 883 394 883 461 c 0,82,83
 883 497 883 497 862 527.5 c 128,-1,84
 841 558 841 558 805 586 c 128,-1,85
 769 614 769 614 715.5 646.5 c 128,-1,86
 662 679 662 679 578 727 c 0,87,88
 510 766 510 766 476 785.5 c 128,-1,89
 442 805 442 805 426 813 c 1,71,72
EndSplineSet
Validated: 1
EndChar

StartChar: bullet
Encoding: 8226 8226 135
Width: 725
GlyphClass: 1
Flags: W
LayerCount: 2
Fore
SplineSet
659 723 m 0,0,1
 659 600 659 600 571 514 c 128,-1,2
 483 428 483 428 362 428 c 0,3,4
 240 428 240 428 154 514 c 128,-1,5
 68 600 68 600 68 723 c 0,6,7
 68 845 68 845 153.5 932.5 c 128,-1,8
 239 1020 239 1020 362 1020 c 0,9,10
 441 1020 441 1020 510 980 c 128,-1,11
 579 940 579 940 619 871 c 128,-1,12
 659 802 659 802 659 723 c 0,0,1
EndSplineSet
Validated: 1
EndChar

StartChar: paragraph
Encoding: 182 182 136
Width: 1153
GlyphClass: 1
Flags: W
LayerCount: 2
Fore
SplineSet
852 1386 m 1,0,-1
 664 1386 l 1,1,-1
 664 -399 l 1,2,-1
 561 -399 l 1,3,-1
 561 504 l 1,4,5
 490 507 490 507 435.5 514 c 128,-1,6
 381 521 381 521 326 537.5 c 128,-1,7
 271 554 271 554 223 582 c 128,-1,8
 175 610 175 610 135 649 c 0,9,10
 2 782 2 782 2 989 c 0,11,12
 2 1239 2 1239 180 1374 c 0,13,14
 257 1433 257 1433 370 1449.5 c 128,-1,15
 483 1466 483 1466 696 1466 c 2,16,-1
 1126 1466 l 1,17,-1
 1126 1386 l 1,18,-1
 956 1386 l 1,19,-1
 956 -399 l 1,20,-1
 852 -399 l 1,21,-1
 852 1386 l 1,0,-1
EndSplineSet
Validated: 1
EndChar

StartChar: germandbls
Encoding: 223 223 137
Width: 1217
GlyphClass: 1
Flags: W
LayerCount: 2
Fore
SplineSet
707 1174 m 0,0,1
 707 1227 707 1227 669 1260.5 c 128,-1,2
 631 1294 631 1294 565 1294 c 0,3,4
 500 1294 500 1294 460 1261.5 c 128,-1,5
 420 1229 420 1229 403.5 1166 c 128,-1,6
 387 1103 387 1103 387 1014 c 2,7,-1
 387 137 l 2,8,9
 387 57 387 57 350 16 c 128,-1,10
 313 -25 313 -25 254 -25 c 256,11,12
 195 -25 195 -25 158 16 c 128,-1,13
 121 57 121 57 121 137 c 2,14,-1
 121 993 l 2,15,16
 121 1055 121 1055 125.5 1106 c 128,-1,17
 130 1157 130 1157 143 1206 c 128,-1,18
 156 1255 156 1255 180 1296 c 0,19,20
 237 1396 237 1396 333 1443.5 c 128,-1,21
 429 1491 429 1491 571 1491 c 0,22,23
 701 1491 701 1491 791.5 1452.5 c 128,-1,24
 882 1414 882 1414 927.5 1348 c 128,-1,25
 973 1282 973 1282 973 1198 c 0,26,27
 973 1147 973 1147 950.5 1087 c 128,-1,28
 928 1027 928 1027 893 979 c 0,29,30
 827 889 827 889 827 827 c 0,31,32
 827 768 827 768 938 670 c 0,33,34
 1014 602 1014 602 1058 546 c 128,-1,35
 1102 490 1102 490 1124.5 432 c 128,-1,36
 1147 374 1147 374 1147 307 c 0,37,38
 1147 214 1147 214 1102 137.5 c 128,-1,39
 1057 61 1057 61 978.5 18 c 128,-1,40
 900 -25 900 -25 803 -25 c 0,41,42
 710 -25 710 -25 634.5 10 c 128,-1,43
 559 45 559 45 516 96.5 c 128,-1,44
 473 148 473 148 473 193 c 0,45,46
 473 234 473 234 503.5 264.5 c 128,-1,47
 534 295 534 295 578 295 c 0,48,49
 631 295 631 295 674 233 c 0,50,51
 716 172 716 172 780 172 c 0,52,53
 829 172 829 172 865 209 c 128,-1,54
 901 246 901 246 901 297 c 256,55,56
 901 348 901 348 854 409 c 128,-1,57
 807 470 807 470 735 522 c 0,58,59
 660 578 660 578 610.5 648.5 c 128,-1,60
 561 719 561 719 561 772 c 0,61,62
 561 862 561 862 635 979 c 0,63,64
 707 1094 707 1094 707 1174 c 0,0,1
EndSplineSet
Validated: 1
EndChar

StartChar: registered
Encoding: 174 174 138
Width: 1516
GlyphClass: 1
Flags: W
LayerCount: 2
Fore
SplineSet
578 315 m 1,0,-1
 412 315 l 1,1,-1
 412 1128 l 1,2,-1
 797 1128 l 2,3,4
 887 1128 887 1128 948 1099.5 c 128,-1,5
 1009 1071 1009 1071 1040 1018.5 c 128,-1,6
 1071 966 1071 966 1071 897 c 0,7,8
 1071 811 1071 811 1013 748.5 c 128,-1,9
 955 686 955 686 852 672 c 1,10,11
 905 652 905 652 937.5 612.5 c 128,-1,12
 970 573 970 573 1024 479 c 2,13,-1
 1120 315 l 1,14,-1
 915 315 l 1,15,-1
 848 446 l 2,16,17
 801 534 801 534 768 576.5 c 128,-1,18
 735 619 735 619 702 634 c 128,-1,19
 669 649 669 649 621 649 c 2,20,-1
 578 649 l 1,21,-1
 578 315 l 1,0,-1
578 999 m 1,22,-1
 578 778 l 1,23,-1
 711 778 l 2,24,25
 801 778 801 778 848 801.5 c 128,-1,26
 895 825 895 825 895 895 c 0,27,28
 895 943 895 943 854 971 c 128,-1,29
 813 999 813 999 727 999 c 2,30,-1
 578 999 l 1,22,-1
758 1491 m 0,31,32
 915 1491 915 1491 1054.5 1432.5 c 128,-1,33
 1194 1374 1194 1374 1300.5 1267.5 c 128,-1,34
 1407 1161 1407 1161 1465.5 1021.5 c 128,-1,35
 1524 882 1524 882 1524 725 c 0,36,37
 1524 517 1524 517 1421.5 340.5 c 128,-1,38
 1319 164 1319 164 1142.5 61.5 c 128,-1,39
 966 -41 966 -41 758 -41 c 256,40,41
 550 -41 550 -41 373.5 61.5 c 128,-1,42
 197 164 197 164 94.5 340.5 c 128,-1,43
 -8 517 -8 517 -8 725 c 256,44,45
 -8 933 -8 933 94.5 1109.5 c 128,-1,46
 197 1286 197 1286 373.5 1388.5 c 128,-1,47
 550 1491 550 1491 758 1491 c 0,31,32
760 1341 m 0,48,49
 593 1341 593 1341 451 1258.5 c 128,-1,50
 309 1176 309 1176 226 1034 c 128,-1,51
 143 892 143 892 143 725 c 256,52,53
 143 558 143 558 226.5 415.5 c 128,-1,54
 310 273 310 273 452 191 c 128,-1,55
 594 109 594 109 760 109 c 0,56,57
 929 109 929 109 1069.5 191.5 c 128,-1,58
 1210 274 1210 274 1292 416 c 128,-1,59
 1374 558 1374 558 1374 725 c 0,60,61
 1374 893 1374 893 1292 1035 c 128,-1,62
 1210 1177 1210 1177 1069 1259 c 128,-1,63
 928 1341 928 1341 760 1341 c 0,48,49
EndSplineSet
Validated: 1
EndChar

StartChar: copyright
Encoding: 169 169 139
Width: 1516
GlyphClass: 1
Flags: W
LayerCount: 2
Fore
SplineSet
1106 907 m 1,0,-1
 942 868 l 1,1,2
 889 1008 889 1008 764 1008 c 0,3,4
 668 1008 668 1008 613.5 934 c 128,-1,5
 559 860 559 860 559 737 c 0,6,7
 559 640 559 640 582 573.5 c 128,-1,8
 605 507 605 507 649.5 473.5 c 128,-1,9
 694 440 694 440 756 440 c 0,10,11
 894 440 894 440 944 612 c 1,12,-1
 1106 557 l 1,13,14
 1026 297 1026 297 752 297 c 0,15,16
 654 297 654 297 569.5 345 c 128,-1,17
 485 393 485 393 434 491 c 128,-1,18
 383 589 383 589 383 725 c 0,19,20
 383 852 383 852 430 947.5 c 128,-1,21
 477 1043 477 1043 564.5 1096 c 128,-1,22
 652 1149 652 1149 770 1149 c 0,23,24
 1018 1149 1018 1149 1106 907 c 1,0,-1
758 1491 m 0,25,26
 915 1491 915 1491 1054.5 1432.5 c 128,-1,27
 1194 1374 1194 1374 1300.5 1267.5 c 128,-1,28
 1407 1161 1407 1161 1465.5 1021.5 c 128,-1,29
 1524 882 1524 882 1524 725 c 0,30,31
 1524 519 1524 519 1420.5 342.5 c 128,-1,32
 1317 166 1317 166 1141 63.5 c 128,-1,33
 965 -39 965 -39 758 -39 c 0,34,35
 548 -39 548 -39 372.5 63 c 128,-1,36
 197 165 197 165 94.5 341.5 c 128,-1,37
 -8 518 -8 518 -8 725 c 0,38,39
 -8 933 -8 933 94.5 1109.5 c 128,-1,40
 197 1286 197 1286 373.5 1388.5 c 128,-1,41
 550 1491 550 1491 758 1491 c 0,25,26
758 1341 m 0,42,43
 589 1341 589 1341 448.5 1258 c 128,-1,44
 308 1175 308 1175 225.5 1033.5 c 128,-1,45
 143 892 143 892 143 725 c 0,46,47
 143 557 143 557 225.5 416.5 c 128,-1,48
 308 276 308 276 449 193.5 c 128,-1,49
 590 111 590 111 758 111 c 0,50,51
 925 111 925 111 1067 193 c 128,-1,52
 1209 275 1209 275 1291.5 415.5 c 128,-1,53
 1374 556 1374 556 1374 725 c 0,54,55
 1374 891 1374 891 1291 1033 c 128,-1,56
 1208 1175 1208 1175 1066.5 1258 c 128,-1,57
 925 1341 925 1341 758 1341 c 0,42,43
EndSplineSet
Validated: 1
EndChar

StartChar: trademark
Encoding: 8482 8482 140
Width: 2048
GlyphClass: 1
Flags: W
LayerCount: 2
Fore
SplineSet
637 647 m 1,0,-1
 471 647 l 1,1,-1
 471 1323 l 1,2,-1
 217 1323 l 1,3,-1
 217 1466 l 1,4,-1
 883 1466 l 1,5,-1
 883 1323 l 1,6,-1
 637 1323 l 1,7,-1
 637 647 l 1,0,-1
1137 647 m 1,8,-1
 981 647 l 1,9,-1
 981 1466 l 1,10,-1
 1241 1466 l 1,11,-1
 1389 901 l 1,12,-1
 1538 1466 l 1,13,-1
 1798 1466 l 1,14,-1
 1798 647 l 1,15,-1
 1640 647 l 1,16,-1
 1640 1300 l 1,17,-1
 1462 647 l 1,18,-1
 1313 647 l 1,19,-1
 1137 1300 l 1,20,-1
 1137 647 l 1,8,-1
EndSplineSet
Validated: 1
EndChar

StartChar: acute
Encoding: 180 180 141
Width: 682
GlyphClass: 1
Flags: W
LayerCount: 2
Fore
SplineSet
422 1477 m 2,0,-1
 557 1477 l 2,1,2
 608 1477 608 1477 608 1462 c 0,3,4
 608 1454 608 1454 552 1397 c 128,-1,5
 496 1340 496 1340 439 1288 c 128,-1,6
 382 1236 382 1236 360 1225 c 0,7,8
 303 1196 303 1196 238 1196 c 0,9,10
 195 1196 195 1196 195 1221 c 0,11,12
 195 1238 195 1238 221 1280 c 2,13,-1
 266 1364 l 2,14,15
 305 1437 305 1437 334 1457 c 128,-1,16
 363 1477 363 1477 422 1477 c 2,0,-1
EndSplineSet
Validated: 1
EndChar

StartChar: dieresis
Encoding: 168 168 142
Width: 682
GlyphClass: 1
Flags: W
LayerCount: 2
Fore
SplineSet
147 1219 m 0,0,1
 104 1219 104 1219 69.5 1249 c 128,-1,2
 35 1279 35 1279 35 1331 c 0,3,4
 35 1381 35 1381 68 1412.5 c 128,-1,5
 101 1444 101 1444 147 1444 c 0,6,7
 192 1444 192 1444 226 1415.5 c 128,-1,8
 260 1387 260 1387 260 1331 c 0,9,10
 260 1279 260 1279 226 1249 c 128,-1,11
 192 1219 192 1219 147 1219 c 0,0,1
537 1444 m 0,12,13
 565 1444 565 1444 592 1429 c 128,-1,14
 619 1414 619 1414 634 1387 c 128,-1,15
 649 1360 649 1360 649 1331 c 0,16,17
 649 1279 649 1279 616 1249 c 128,-1,18
 583 1219 583 1219 537 1219 c 0,19,20
 493 1219 493 1219 458.5 1249 c 128,-1,21
 424 1279 424 1279 424 1331 c 0,22,23
 424 1376 424 1376 458 1410 c 128,-1,24
 492 1444 492 1444 537 1444 c 0,12,13
EndSplineSet
Validated: 1
EndChar

StartChar: notequal
Encoding: 8800 8800 143
Width: 1124
GlyphClass: 1
Flags: W
LayerCount: 2
Fore
SplineSet
823 1124 m 1,0,-1
 924 1067 l 1,1,-1
 768 788 l 1,2,-1
 1106 788 l 1,3,-1
 1106 676 l 1,4,-1
 707 676 l 1,5,-1
 547 391 l 1,6,-1
 1106 391 l 1,7,-1
 1106 279 l 1,8,-1
 485 279 l 1,9,-1
 301 -51 l 1,10,-1
 201 6 l 1,11,-1
 352 279 l 1,12,-1
 31 279 l 1,13,-1
 31 391 l 1,14,-1
 416 391 l 1,15,-1
 573 676 l 1,16,-1
 31 676 l 1,17,-1
 31 788 l 1,18,-1
 637 788 l 1,19,-1
 823 1124 l 1,0,-1
EndSplineSet
Validated: 1
EndChar

StartChar: AE
Encoding: 198 198 144
Width: 2028
GlyphClass: 1
Flags: W
LayerCount: 2
Fore
SplineSet
924 352 m 1,0,-1
 397 352 l 1,1,-1
 307 145 l 2,2,3
 273 65 273 65 231.5 20 c 128,-1,4
 190 -25 190 -25 123 -25 c 0,5,6
 64 -25 64 -25 29 7.5 c 128,-1,7
 -6 40 -6 40 -6 84 c 0,8,9
 -6 114 -6 114 -1.5 135 c 128,-1,10
 3 156 3 156 8.5 168.5 c 128,-1,11
 14 181 14 181 33 221 c 2,12,-1
 524 1288 l 2,13,14
 566 1377 566 1377 583.5 1406 c 128,-1,15
 601 1435 601 1435 634 1450.5 c 128,-1,16
 667 1466 667 1466 733 1466 c 2,17,-1
 1794 1466 l 2,18,19
 1864 1466 1864 1466 1898.5 1434.5 c 128,-1,20
 1933 1403 1933 1403 1933 1352 c 0,21,22
 1933 1302 1933 1302 1899 1272.5 c 128,-1,23
 1865 1243 1865 1243 1794 1243 c 2,24,-1
 1210 1243 l 1,25,-1
 1210 877 l 1,26,-1
 1743 877 l 2,27,28
 1811 877 1811 877 1844.5 846 c 128,-1,29
 1878 815 1878 815 1878 764 c 256,30,31
 1878 713 1878 713 1844 683 c 128,-1,32
 1810 653 1810 653 1743 653 c 2,33,-1
 1210 653 l 1,34,-1
 1210 223 l 1,35,-1
 1815 223 l 2,36,37
 1887 223 1887 223 1922.5 195 c 128,-1,38
 1958 167 1958 167 1958 115 c 0,39,40
 1958 62 1958 62 1922.5 31 c 128,-1,41
 1887 0 1887 0 1815 0 c 2,42,-1
 1102 0 l 2,43,44
 1009 0 1009 0 966.5 41.5 c 128,-1,45
 924 83 924 83 924 174 c 2,46,-1
 924 352 l 1,0,-1
494 588 m 1,47,-1
 924 588 l 1,48,-1
 924 1253 l 1,49,-1
 782 1253 l 1,50,-1
 494 588 l 1,47,-1
EndSplineSet
Validated: 1
EndChar

StartChar: Oslash
Encoding: 216 216 145
Width: 1622
GlyphClass: 1
Flags: W
LayerCount: 2
Fore
SplineSet
190 215 m 2,0,-1
 225 252 l 1,1,2
 158 350 158 350 125 472 c 128,-1,3
 92 594 92 594 92 737 c 0,4,5
 92 906 92 906 140.5 1047 c 128,-1,6
 189 1188 189 1188 281 1287 c 128,-1,7
 373 1386 373 1386 505 1438.5 c 128,-1,8
 637 1491 637 1491 805 1491 c 0,9,10
 949 1491 949 1491 1062 1457.5 c 128,-1,11
 1175 1424 1175 1424 1268 1352 c 1,12,-1
 1294 1380 l 2,13,14
 1357 1446 1357 1446 1390.5 1469.5 c 128,-1,15
 1424 1493 1424 1493 1458 1493 c 0,16,17
 1490 1493 1490 1493 1510 1472 c 128,-1,18
 1530 1451 1530 1451 1530 1415 c 0,19,20
 1530 1355 1530 1355 1438 1260 c 2,21,-1
 1397 1217 l 1,22,23
 1528 1024 1528 1024 1528 735 c 0,24,25
 1528 565 1528 565 1482 426 c 128,-1,26
 1436 287 1436 287 1344 185 c 128,-1,27
 1252 83 1252 83 1118 29 c 128,-1,28
 984 -25 984 -25 811 -25 c 0,29,30
 527 -25 527 -25 352 115 c 1,31,-1
 330 88 l 2,32,33
 306 62 306 62 279.5 34.5 c 128,-1,34
 253 7 253 7 226.5 -9 c 128,-1,35
 200 -25 200 -25 166 -25 c 0,36,37
 134 -25 134 -25 113 -2 c 128,-1,38
 92 21 92 21 92 49 c 0,39,40
 92 89 92 89 115.5 126 c 128,-1,41
 139 163 139 163 190 215 c 2,0,-1
436 473 m 1,42,-1
 1079 1155 l 1,43,44
 1032 1201 1032 1201 959.5 1228 c 128,-1,45
 887 1255 887 1255 809 1255 c 0,46,47
 684 1255 684 1255 589.5 1194.5 c 128,-1,48
 495 1134 495 1134 444 1016.5 c 128,-1,49
 393 899 393 899 393 737 c 0,50,51
 393 589 393 589 436 473 c 1,42,-1
1184 991 m 1,52,-1
 543 313 l 1,53,54
 654 211 654 211 809 211 c 0,55,56
 923 211 923 211 1018.5 268 c 128,-1,57
 1114 325 1114 325 1170.5 444 c 128,-1,58
 1227 563 1227 563 1227 737 c 0,59,60
 1227 876 1227 876 1184 991 c 1,52,-1
EndSplineSet
Validated: 1
EndChar

StartChar: infinity
Encoding: 8734 8734 146
Width: 1460
GlyphClass: 1
Flags: W
LayerCount: 2
Fore
SplineSet
738 608 m 1,0,1
 813 675 813 675 848.5 705 c 128,-1,2
 884 735 884 735 920.5 758 c 128,-1,3
 957 781 957 781 1002 801 c 0,4,5
 1074 833 1074 833 1145 828.5 c 128,-1,6
 1216 824 1216 824 1276 787.5 c 128,-1,7
 1336 751 1336 751 1373 694 c 128,-1,8
 1410 637 1410 637 1416 571 c 0,9,10
 1424 493 1424 493 1386.5 416.5 c 128,-1,11
 1349 340 1349 340 1276.5 293.5 c 128,-1,12
 1204 247 1204 247 1115 256 c 0,13,14
 1045 263 1045 263 981 290.5 c 128,-1,15
 917 318 917 318 872 351.5 c 128,-1,16
 827 385 827 385 784.5 427.5 c 128,-1,17
 742 470 742 470 738 473 c 1,18,19
 714 449 714 449 681.5 417 c 128,-1,20
 649 385 649 385 605 351.5 c 128,-1,21
 561 318 561 318 497 290.5 c 128,-1,22
 433 263 433 263 361 256 c 0,23,24
 272 247 272 247 199.5 293.5 c 128,-1,25
 127 340 127 340 89.5 416.5 c 128,-1,26
 52 493 52 493 60 571 c 0,27,28
 67 638 67 638 104 695 c 128,-1,29
 141 752 141 752 201 788 c 128,-1,30
 261 824 261 824 332 828.5 c 128,-1,31
 403 833 403 833 474 801 c 0,32,33
 519 781 519 781 555.5 758 c 128,-1,34
 592 735 592 735 627.5 705 c 128,-1,35
 663 675 663 675 738 608 c 1,0,1
671 541 m 1,36,37
 583 616 583 616 529.5 653 c 128,-1,38
 476 690 476 690 427 707 c 0,39,40
 366 729 366 729 316.5 719.5 c 128,-1,41
 267 710 267 710 232 679 c 128,-1,42
 197 648 197 648 180 607.5 c 128,-1,43
 163 567 163 567 163 530 c 0,44,45
 164 474 164 474 200 428.5 c 128,-1,46
 236 383 236 383 291 364 c 128,-1,47
 346 345 346 345 400 358 c 0,48,49
 481 377 481 377 524 408.5 c 128,-1,50
 567 440 567 440 671 541 c 1,36,37
806 541 m 1,51,52
 874 474 874 474 911 441.5 c 128,-1,53
 948 409 948 409 984 390 c 128,-1,54
 1020 371 1020 371 1076 358 c 0,55,56
 1131 345 1131 345 1186 364 c 128,-1,57
 1241 383 1241 383 1277 428.5 c 128,-1,58
 1313 474 1313 474 1314 530 c 0,59,60
 1316 579 1316 579 1284.5 632.5 c 128,-1,61
 1253 686 1253 686 1192.5 710.5 c 128,-1,62
 1132 735 1132 735 1049 707 c 0,63,64
 999 689 999 689 946 651.5 c 128,-1,65
 893 614 893 614 806 541 c 1,51,52
EndSplineSet
Validated: 33
EndChar

StartChar: plusminus
Encoding: 177 177 147
Width: 1194
GlyphClass: 1
Flags: W
LayerCount: 2
Fore
SplineSet
725 356 m 1,0,-1
 467 356 l 1,1,-1
 467 737 l 1,2,-1
 84 737 l 1,3,-1
 84 999 l 1,4,-1
 467 999 l 1,5,-1
 467 1380 l 1,6,-1
 725 1380 l 1,7,-1
 725 999 l 1,8,-1
 1110 999 l 1,9,-1
 1110 737 l 1,10,-1
 725 737 l 1,11,-1
 725 356 l 1,0,-1
1110 0 m 1,12,-1
 84 0 l 1,13,-1
 84 262 l 1,14,-1
 1110 262 l 1,15,-1
 1110 0 l 1,12,-1
EndSplineSet
Validated: 1
EndChar

StartChar: lessequal
Encoding: 8804 8804 148
Width: 1124
GlyphClass: 1
Flags: W
LayerCount: 2
Fore
SplineSet
59 0 m 1,0,-1
 59 113 l 1,1,-1
 1077 113 l 1,2,-1
 1077 0 l 1,3,-1
 59 0 l 1,0,-1
59 711 m 1,4,-1
 59 838 l 1,5,-1
 1077 1309 l 1,6,-1
 1077 1182 l 1,7,-1
 190 774 l 1,8,-1
 1077 367 l 1,9,-1
 1077 240 l 1,10,-1
 59 711 l 1,4,-1
EndSplineSet
Validated: 1
EndChar

StartChar: greaterequal
Encoding: 8805 8805 149
Width: 1124
GlyphClass: 1
Flags: W
LayerCount: 2
Fore
SplineSet
1077 113 m 1,0,-1
 1077 0 l 1,1,-1
 59 0 l 1,2,-1
 59 113 l 1,3,-1
 1077 113 l 1,0,-1
1077 838 m 1,4,-1
 1077 711 l 1,5,-1
 59 240 l 1,6,-1
 59 367 l 1,7,-1
 946 774 l 1,8,-1
 59 1182 l 1,9,-1
 59 1309 l 1,10,-1
 1077 838 l 1,4,-1
EndSplineSet
Validated: 1
EndChar

StartChar: yen
Encoding: 165 165 150
Width: 1280
GlyphClass: 1
Flags: W
LayerCount: 2
Fore
SplineSet
287 444 m 2,0,-1
 512 444 l 1,1,-1
 512 588 l 1,2,-1
 287 588 l 2,3,4
 145 588 145 588 145 682 c 0,5,6
 145 774 145 774 287 774 c 2,7,-1
 414 774 l 1,8,-1
 115 1243 l 2,9,10
 79 1299 79 1299 68 1323 c 128,-1,11
 57 1347 57 1347 57 1376 c 0,12,13
 57 1428 57 1428 88.5 1459.5 c 128,-1,14
 120 1491 120 1491 170 1491 c 0,15,16
 221 1491 221 1491 252.5 1460 c 128,-1,17
 284 1429 284 1429 326 1360 c 2,18,-1
 649 854 l 1,19,-1
 938 1331 l 2,20,21
 954 1359 954 1359 972 1389.5 c 128,-1,22
 990 1420 990 1420 1007 1441.5 c 128,-1,23
 1024 1463 1024 1463 1049.5 1477 c 128,-1,24
 1075 1491 1075 1491 1110 1491 c 0,25,26
 1160 1491 1160 1491 1191.5 1460.5 c 128,-1,27
 1223 1430 1223 1430 1223 1386 c 0,28,29
 1223 1351 1223 1351 1210.5 1322 c 128,-1,30
 1198 1293 1198 1293 1171 1249 c 2,31,-1
 883 774 l 1,32,-1
 1010 774 l 2,33,34
 1151 774 1151 774 1151 682 c 0,35,36
 1151 588 1151 588 1010 588 c 2,37,-1
 784 588 l 1,38,-1
 784 444 l 1,39,-1
 1010 444 l 2,40,41
 1151 444 1151 444 1151 350 c 0,42,43
 1151 258 1151 258 1010 258 c 2,44,-1
 784 258 l 1,45,-1
 784 178 l 2,46,47
 784 -25 784 -25 649 -25 c 0,48,49
 512 -25 512 -25 512 178 c 2,50,-1
 512 258 l 1,51,-1
 287 258 l 2,52,53
 145 258 145 258 145 350 c 0,54,55
 145 444 145 444 287 444 c 2,0,-1
EndSplineSet
Validated: 1
EndChar

StartChar: mu
Encoding: 181 181 151
Width: 1260
GlyphClass: 1
Flags: W
LayerCount: 2
Fore
SplineSet
856 0 m 1,0,-1
 856 129 l 1,1,2
 814 49 814 49 757.5 11 c 128,-1,3
 701 -27 701 -27 643 -27 c 0,4,5
 561 -27 561 -27 515 14.5 c 128,-1,6
 469 56 469 56 430 129 c 1,7,-1
 430 -408 l 1,8,-1
 152 -408 l 1,9,-1
 152 1061 l 1,10,-1
 430 1061 l 1,11,-1
 430 582 l 2,12,13
 430 520 430 520 446 373 c 0,14,15
 454 307 454 307 505.5 254 c 128,-1,16
 557 201 557 201 629 201 c 0,17,18
 723 201 723 201 778.5 279.5 c 128,-1,19
 834 358 834 358 834 516 c 2,20,-1
 834 1061 l 1,21,-1
 1118 1061 l 1,22,-1
 1118 0 l 1,23,-1
 856 0 l 1,0,-1
EndSplineSet
Validated: 1
EndChar

StartChar: partialdiff
Encoding: 8706 8706 152
Width: 1012
GlyphClass: 1
Flags: W
LayerCount: 2
Fore
SplineSet
220 1366 m 1,0,-1
 140 1468 l 1,1,2
 216 1502 216 1502 317 1520 c 128,-1,3
 418 1538 418 1538 511 1516 c 0,4,5
 613 1492 613 1492 699.5 1427 c 128,-1,6
 786 1362 786 1362 855 1241 c 0,7,8
 897 1168 897 1168 919 1077 c 128,-1,9
 941 986 941 986 947 916.5 c 128,-1,10
 953 847 953 847 953 805 c 0,11,12
 953 758 953 758 943 662 c 128,-1,13
 933 566 933 566 908.5 456.5 c 128,-1,14
 884 347 884 347 847 268 c 0,15,16
 799 166 799 166 755.5 108 c 128,-1,17
 712 50 712 50 634 6 c 0,18,19
 532 -50 532 -50 425.5 -42.5 c 128,-1,20
 319 -35 319 -35 234 23 c 0,21,22
 189 54 189 54 154 93.5 c 128,-1,23
 119 133 119 133 93.5 190 c 128,-1,24
 68 247 68 247 62 319 c 0,25,26
 53 430 53 430 89 523 c 128,-1,27
 125 616 125 616 175 678 c 0,28,29
 233 749 233 749 303 787.5 c 128,-1,30
 373 826 373 826 466 823 c 0,31,32
 554 820 554 820 613 792 c 128,-1,33
 672 764 672 764 773 684 c 1,34,35
 791 783 791 783 795 922 c 0,36,37
 798 987 798 987 775.5 1090.5 c 128,-1,38
 753 1194 753 1194 730 1247 c 0,39,40
 706 1306 706 1306 645.5 1364.5 c 128,-1,41
 585 1423 585 1423 501 1430 c 0,42,43
 445 1435 445 1435 411.5 1433 c 128,-1,44
 378 1431 378 1431 355 1424 c 128,-1,45
 332 1417 332 1417 291 1398 c 128,-1,46
 250 1379 250 1379 220 1366 c 1,0,-1
757 612 m 1,47,48
 698 679 698 679 656 711.5 c 128,-1,49
 614 744 614 744 535 743 c 0,50,51
 418 740 418 740 339 633 c 0,52,53
 298 575 298 575 276.5 522.5 c 128,-1,54
 255 470 255 470 245.5 415.5 c 128,-1,55
 236 361 236 361 236 303 c 0,56,57
 236 229 236 229 253.5 158.5 c 128,-1,58
 271 88 271 88 331 47 c 0,59,60
 375 19 375 19 414.5 18 c 128,-1,61
 454 17 454 17 501 37 c 0,62,63
 604 82 604 82 666 227 c 0,64,65
 702 315 702 315 723.5 413.5 c 128,-1,66
 745 512 745 512 757 612 c 1,47,48
EndSplineSet
Validated: 33
EndChar

StartChar: summation
Encoding: 8721 8721 153
Width: 1460
GlyphClass: 1
Flags: W
LayerCount: 2
Fore
SplineSet
1264 1526 m 1,0,-1
 1276 1200 l 1,1,-1
 1235 1200 l 1,2,3
 1203 1302 1203 1302 1184.5 1339 c 128,-1,4
 1166 1376 1166 1376 1105.5 1405 c 128,-1,5
 1045 1434 1045 1434 922 1434 c 2,6,-1
 383 1434 l 1,7,-1
 942 700 l 1,8,-1
 340 6 l 1,9,-1
 1100 6 l 2,10,11
 1183 6 1183 6 1228 25.5 c 128,-1,12
 1273 45 1273 45 1305 91.5 c 128,-1,13
 1337 138 1337 138 1376 238 c 1,14,-1
 1423 238 l 1,15,16
 1378 53 1378 53 1367 -7 c 128,-1,17
 1356 -67 1356 -67 1335 -221 c 1,18,19
 1296 -214 1296 -214 1255 -206.5 c 128,-1,20
 1214 -199 1214 -199 1178 -199 c 2,21,-1
 147 -199 l 2,22,23
 133 -199 133 -199 110.5 -200.5 c 128,-1,24
 88 -202 88 -202 65.5 -203.5 c 128,-1,25
 43 -205 43 -205 29 -205 c 1,26,-1
 743 610 l 1,27,-1
 33 1540 l 1,28,29
 65 1538 65 1538 138 1532 c 128,-1,30
 211 1526 211 1526 246 1526 c 2,31,-1
 1264 1526 l 1,0,-1
EndSplineSet
Validated: 1
EndChar

StartChar: product
Encoding: 8719 8719 154
Width: 1686
GlyphClass: 1
Flags: W
LayerCount: 2
Fore
SplineSet
1446 1288 m 2,0,-1
 1446 6 l 2,1,2
 1446 -63 1446 -63 1469.5 -99 c 128,-1,3
 1493 -135 1493 -135 1536.5 -147.5 c 128,-1,4
 1580 -160 1580 -160 1645 -160 c 1,5,-1
 1645 -207 l 1,6,-1
 1018 -207 l 1,7,-1
 1018 -160 l 1,8,9
 1118 -160 1118 -160 1166 -127 c 128,-1,10
 1214 -94 1214 -94 1214 6 c 2,11,-1
 1214 1425 l 1,12,-1
 481 1425 l 1,13,-1
 481 6 l 2,14,15
 481 -63 481 -63 504.5 -99 c 128,-1,16
 528 -135 528 -135 571.5 -147.5 c 128,-1,17
 615 -160 615 -160 680 -160 c 1,18,-1
 680 -207 l 1,19,-1
 51 -207 l 1,20,-1
 51 -160 l 1,21,22
 153 -160 153 -160 201.5 -127 c 128,-1,23
 250 -94 250 -94 250 6 c 2,24,-1
 250 1288 l 2,25,26
 250 1491 250 1491 55 1491 c 1,27,-1
 55 1538 l 1,28,-1
 1638 1538 l 1,29,-1
 1638 1491 l 1,30,31
 1446 1491 1446 1491 1446 1288 c 2,0,-1
EndSplineSet
Validated: 1
EndChar

StartChar: pi
Encoding: 960 960 155
Width: 1124
GlyphClass: 1
Flags: W
LayerCount: 2
Fore
SplineSet
686 821 m 1,0,-1
 455 821 l 1,1,2
 438 620 438 620 422 491.5 c 128,-1,3
 406 363 406 363 391 270.5 c 128,-1,4
 376 178 376 178 360 102 c 0,5,6
 347 43 347 43 322 9.5 c 128,-1,7
 297 -24 297 -24 248 -37 c 0,8,9
 208 -47 208 -47 168.5 -21 c 128,-1,10
 129 5 129 5 121 41 c 0,11,12
 115 68 115 68 118 86.5 c 128,-1,13
 121 105 121 105 129 121 c 128,-1,14
 137 137 137 137 147 150 c 128,-1,15
 157 163 157 163 168 176 c 0,16,17
 171 180 171 180 202.5 217 c 128,-1,18
 234 254 234 254 250 284.5 c 128,-1,19
 266 315 266 315 270 352 c 2,20,-1
 330 821 l 1,21,-1
 233 821 l 2,22,23
 192 821 192 821 155 801.5 c 128,-1,24
 118 782 118 782 98 756 c 2,25,-1
 55 692 l 1,26,-1
 20 692 l 1,27,28
 34 731 34 731 55 785.5 c 128,-1,29
 76 840 76 840 113 891 c 0,30,31
 142 934 142 934 191 965.5 c 128,-1,32
 240 997 240 997 305 997 c 2,33,-1
 1069 997 l 1,34,-1
 1069 821 l 1,35,-1
 811 821 l 1,36,37
 786 582 786 582 786 340 c 0,38,39
 786 296 786 296 801 254 c 128,-1,40
 816 212 816 212 838 190 c 0,41,42
 866 164 866 164 906.5 156.5 c 128,-1,43
 947 149 947 149 989 182 c 0,44,45
 1012 200 1012 200 1022.5 223 c 128,-1,46
 1033 246 1033 246 1036 267 c 128,-1,47
 1039 288 1039 288 1042 309 c 1,48,-1
 1085 309 l 1,49,50
 1084 226 1084 226 1060 159.5 c 128,-1,51
 1036 93 1036 93 1003 52.5 c 128,-1,52
 970 12 970 12 938 -6 c 0,53,54
 902 -28 902 -28 854 -32.5 c 128,-1,55
 806 -37 806 -37 766 -10 c 0,56,57
 700 38 700 38 666 141 c 0,58,59
 647 201 647 201 644.5 299.5 c 128,-1,60
 642 398 642 398 651 492 c 2,61,-1
 686 821 l 1,0,-1
EndSplineSet
Validated: 33
EndChar

StartChar: integral
Encoding: 8747 8747 156
Width: 561
GlyphClass: 1
Flags: W
LayerCount: 2
Fore
SplineSet
395 999 m 2,0,-1
 393 557 l 2,1,2
 391 193 391 193 323 -43 c 0,3,4
 302 -119 302 -119 264 -168 c 0,5,6
 247 -190 247 -190 188.5 -210 c 128,-1,7
 130 -230 130 -230 84 -209 c 0,8,9
 62 -198 62 -198 42.5 -173 c 128,-1,10
 23 -148 23 -148 16 -129 c 0,11,12
 4 -94 4 -94 16 -64 c 128,-1,13
 28 -34 28 -34 65 -16 c 0,14,15
 99 1 99 1 125.5 -11 c 128,-1,16
 152 -23 152 -23 182 -57 c 0,17,18
 211 -87 211 -87 230.5 -61 c 128,-1,19
 250 -35 250 -35 258 21.5 c 128,-1,20
 266 78 266 78 264 152 c 0,21,22
 262 228 262 228 260 293 c 128,-1,23
 258 358 258 358 256 412.5 c 128,-1,24
 254 467 254 467 253 575.5 c 128,-1,25
 252 684 252 684 252 795 c 2,26,-1
 252 1090 l 2,27,28
 252 1180 252 1180 254 1282 c 128,-1,29
 256 1384 256 1384 261.5 1463.5 c 128,-1,30
 267 1543 267 1543 277.5 1603 c 128,-1,31
 288 1663 288 1663 305 1724 c 0,32,33
 315 1758 315 1758 342.5 1799.5 c 128,-1,34
 370 1841 370 1841 397 1858 c 0,35,36
 423 1874 423 1874 453.5 1875.5 c 128,-1,37
 484 1877 484 1877 513 1867 c 128,-1,38
 542 1857 542 1857 557 1847 c 0,39,40
 584 1830 584 1830 597.5 1787 c 128,-1,41
 611 1744 611 1744 584 1710 c 0,42,43
 569 1692 569 1692 541 1680.5 c 128,-1,44
 513 1669 513 1669 485 1672 c 128,-1,45
 457 1675 457 1675 438 1696 c 0,46,47
 416 1718 416 1718 397.5 1720 c 128,-1,48
 379 1722 379 1722 368.5 1708.5 c 128,-1,49
 358 1695 358 1695 356 1675 c 0,50,51
 355 1649 355 1649 358 1612.5 c 128,-1,52
 361 1576 361 1576 372 1439.5 c 128,-1,53
 383 1303 383 1303 389 1196.5 c 128,-1,54
 395 1090 395 1090 395 999 c 2,0,-1
EndSplineSet
Validated: 33
EndChar

StartChar: ordfeminine
Encoding: 170 170 157
Width: 768
GlyphClass: 1
Flags: W
LayerCount: 2
Fore
SplineSet
524 895 m 1,0,1
 453 850 453 850 399 829.5 c 128,-1,2
 345 809 345 809 270 809 c 0,3,4
 165 809 165 809 100 866 c 128,-1,5
 35 923 35 923 35 1004 c 0,6,7
 35 1074 35 1074 70.5 1115.5 c 128,-1,8
 106 1157 106 1157 166 1177 c 128,-1,9
 226 1197 226 1197 347.5 1221 c 128,-1,10
 469 1245 469 1245 502 1253 c 1,11,12
 498 1305 498 1305 476.5 1328.5 c 128,-1,13
 455 1352 455 1352 385 1352 c 0,14,15
 305 1352 305 1352 282.5 1334.5 c 128,-1,16
 260 1317 260 1317 227.5 1272 c 128,-1,17
 195 1227 195 1227 152 1227 c 0,18,19
 118 1227 118 1227 92 1248 c 128,-1,20
 66 1269 66 1269 66 1303 c 0,21,22
 66 1349 66 1349 100.5 1392.5 c 128,-1,23
 135 1436 135 1436 206.5 1463.5 c 128,-1,24
 278 1491 278 1491 385 1491 c 0,25,26
 560 1491 560 1491 629 1431 c 128,-1,27
 698 1371 698 1371 698 1229 c 0,28,29
 698 1166 698 1166 697.5 1128 c 128,-1,30
 697 1090 697 1090 696 1044 c 0,31,32
 696 1001 696 1001 712.5 953.5 c 128,-1,33
 729 906 729 906 729 887 c 0,34,35
 729 854 729 854 700.5 830.5 c 128,-1,36
 672 807 672 807 635 807 c 0,37,38
 615 807 615 807 595 819 c 128,-1,39
 575 831 575 831 558.5 849.5 c 128,-1,40
 542 868 542 868 524 895 c 1,0,1
504 1114 m 2,41,-1
 504 1126 l 1,42,43
 494 1124 494 1124 391.5 1101 c 128,-1,44
 289 1078 289 1078 262.5 1063 c 128,-1,45
 236 1048 236 1048 236 1016 c 256,46,47
 236 984 236 984 262 962 c 128,-1,48
 288 940 288 940 332 940 c 0,49,50
 412 940 412 940 458 983.5 c 128,-1,51
 504 1027 504 1027 504 1114 c 2,41,-1
EndSplineSet
Validated: 1
EndChar

StartChar: ordmasculine
Encoding: 186 186 158
Width: 788
GlyphClass: 1
Flags: W
LayerCount: 2
Fore
SplineSet
756 1149 m 256,0,1
 756 1048 756 1048 712 971.5 c 128,-1,2
 668 895 668 895 587 852 c 128,-1,3
 506 809 506 809 395 809 c 0,4,5
 231 809 231 809 133 903.5 c 128,-1,6
 35 998 35 998 35 1149 c 0,7,8
 35 1250 35 1250 79 1328 c 128,-1,9
 123 1406 123 1406 205 1449.5 c 128,-1,10
 287 1493 287 1493 395 1493 c 256,11,12
 503 1493 503 1493 585 1449.5 c 128,-1,13
 667 1406 667 1406 711.5 1328 c 128,-1,14
 756 1250 756 1250 756 1149 c 256,0,1
555 1149 m 0,15,16
 555 1241 555 1241 512.5 1292 c 128,-1,17
 470 1343 470 1343 395 1343 c 0,18,19
 321 1343 321 1343 278.5 1292 c 128,-1,20
 236 1241 236 1241 236 1149 c 0,21,22
 236 1058 236 1058 278 1008 c 128,-1,23
 320 958 320 958 395 958 c 0,24,25
 471 958 471 958 513 1008 c 128,-1,26
 555 1058 555 1058 555 1149 c 0,15,16
EndSplineSet
Validated: 1
EndChar

StartChar: Omega
Encoding: 8486 8486 159
Width: 1573
GlyphClass: 1
Flags: W
LayerCount: 2
Fore
SplineSet
641 311 m 1,0,-1
 674 0 l 1,1,-1
 70 0 l 1,2,-1
 70 332 l 1,3,-1
 100 332 l 1,4,5
 120 254 120 254 145.5 230.5 c 128,-1,6
 171 207 171 207 236 207 c 2,7,-1
 559 207 l 1,8,-1
 555 264 l 1,9,10
 466 291 466 291 409.5 317.5 c 128,-1,11
 353 344 353 344 303 386 c 128,-1,12
 253 428 253 428 213 487 c 0,13,14
 144 590 144 590 122.5 699.5 c 128,-1,15
 101 809 101 809 118.5 911.5 c 128,-1,16
 136 1014 136 1014 180 1092 c 0,17,18
 232 1187 232 1187 286.5 1232 c 128,-1,19
 341 1277 341 1277 414 1319 c 0,20,21
 483 1360 483 1360 583.5 1384.5 c 128,-1,22
 684 1409 684 1409 788 1409 c 0,23,24
 893 1409 893 1409 993.5 1384.5 c 128,-1,25
 1094 1360 1094 1360 1163 1319 c 0,26,27
 1236 1277 1236 1277 1290 1233 c 128,-1,28
 1344 1189 1344 1189 1397 1092 c 0,29,30
 1441 1014 1441 1014 1458.5 911.5 c 128,-1,31
 1476 809 1476 809 1454.5 699.5 c 128,-1,32
 1433 590 1433 590 1364 487 c 0,33,34
 1304 400 1304 400 1226.5 351.5 c 128,-1,35
 1149 303 1149 303 1022 264 c 1,36,-1
 1018 207 l 1,37,-1
 1341 207 l 2,38,39
 1406 207 1406 207 1432.5 231.5 c 128,-1,40
 1459 256 1459 256 1477 332 c 1,41,-1
 1507 332 l 1,42,-1
 1507 0 l 1,43,-1
 903 0 l 1,44,-1
 936 311 l 1,45,46
 961 322 961 322 991.5 335.5 c 128,-1,47
 1022 349 1022 349 1053 371 c 128,-1,48
 1084 393 1084 393 1117 436.5 c 128,-1,49
 1150 480 1150 480 1178 545 c 0,50,51
 1215 631 1215 631 1225.5 760.5 c 128,-1,52
 1236 890 1236 890 1203 1021.5 c 128,-1,53
 1170 1153 1170 1153 1085 1237 c 0,54,55
 979 1343 979 1343 788 1343 c 256,56,57
 597 1343 597 1343 492 1237 c 0,58,59
 407 1153 407 1153 374 1021.5 c 128,-1,60
 341 890 341 890 351.5 760.5 c 128,-1,61
 362 631 362 631 399 545 c 0,62,63
 427 480 427 480 459.5 437 c 128,-1,64
 492 394 492 394 524 371 c 128,-1,65
 556 348 556 348 585 335 c 128,-1,66
 614 322 614 322 641 311 c 1,0,-1
EndSplineSet
Validated: 33
EndChar

StartChar: ae
Encoding: 230 230 160
Width: 1898
GlyphClass: 1
Flags: W
LayerCount: 2
Fore
SplineSet
1288 1087 m 0,0,1
 1452 1087 1452 1087 1566.5 1026 c 128,-1,2
 1681 965 1681 965 1753 836 c 0,3,4
 1810 734 1810 734 1810 629 c 0,5,6
 1810 465 1810 465 1628 465 c 2,7,-1
 1061 465 l 1,8,9
 1064 368 1064 368 1097 300 c 128,-1,10
 1130 232 1130 232 1188 196 c 128,-1,11
 1246 160 1246 160 1327 160 c 0,12,13
 1401 160 1401 160 1471 190.5 c 128,-1,14
 1541 221 1541 221 1575 264 c 0,15,16
 1624 325 1624 325 1650.5 343.5 c 128,-1,17
 1677 362 1677 362 1708 362 c 0,18,19
 1800 362 1800 362 1800 254 c 0,20,21
 1800 231 1800 231 1775 184.5 c 128,-1,22
 1750 138 1750 138 1694.5 90 c 128,-1,23
 1639 42 1639 42 1548 8.5 c 128,-1,24
 1457 -25 1457 -25 1333 -25 c 0,25,26
 1231 -25 1231 -25 1152 -7 c 128,-1,27
 1073 11 1073 11 1013 48.5 c 128,-1,28
 953 86 953 86 903 147 c 1,29,30
 696 -25 696 -25 453 -25 c 0,31,32
 279 -25 279 -25 182.5 62.5 c 128,-1,33
 86 150 86 150 86 279 c 0,34,35
 86 526 86 526 399 590 c 0,36,37
 753 661 753 661 803 686 c 1,38,-1
 803 698 l 2,39,40
 803 805 803 805 766 851 c 128,-1,41
 729 897 729 897 598 897 c 0,42,43
 498 897 498 897 450 866.5 c 128,-1,44
 402 836 402 836 367 773.5 c 128,-1,45
 332 711 332 711 313 689.5 c 128,-1,46
 294 668 294 668 236 668 c 0,47,48
 186 668 186 668 156.5 697.5 c 128,-1,49
 127 727 127 727 127 776 c 0,50,51
 127 858 127 858 179.5 929.5 c 128,-1,52
 232 1001 232 1001 338.5 1044 c 128,-1,53
 445 1087 445 1087 598 1087 c 0,54,55
 730 1087 730 1087 813.5 1061 c 128,-1,56
 897 1035 897 1035 963 969 c 1,57,58
 1041 1031 1041 1031 1116.5 1059 c 128,-1,59
 1192 1087 1192 1087 1288 1087 c 0,0,1
1061 621 m 1,60,-1
 1552 621 l 1,61,62
 1543 758 1543 758 1479 827.5 c 128,-1,63
 1415 897 1415 897 1309 897 c 0,64,65
 1198 897 1198 897 1129.5 816.5 c 128,-1,66
 1061 736 1061 736 1061 627 c 2,67,-1
 1061 621 l 1,60,-1
803 449 m 2,68,-1
 803 522 l 1,69,70
 754 507 754 507 610 474.5 c 128,-1,71
 466 442 466 442 413 408 c 128,-1,72
 360 374 360 374 360 301 c 0,73,74
 360 239 360 239 407.5 195.5 c 128,-1,75
 455 152 455 152 537 152 c 0,76,77
 612 152 612 152 676 187.5 c 128,-1,78
 740 223 740 223 770 279 c 0,79,80
 793 319 793 319 798 353 c 128,-1,81
 803 387 803 387 803 449 c 2,68,-1
EndSplineSet
Validated: 1
EndChar

StartChar: oslash
Encoding: 248 248 161
Width: 1237
GlyphClass: 1
Flags: W
LayerCount: 2
Fore
SplineSet
1116 926 m 2,0,-1
 1065 874 l 1,1,2
 1163 725 1163 725 1163 530 c 0,3,4
 1163 407 1163 407 1125.5 305.5 c 128,-1,5
 1088 204 1088 204 1015.5 129 c 128,-1,6
 943 54 943 54 842.5 14.5 c 128,-1,7
 742 -25 742 -25 618 -25 c 0,8,9
 519 -25 519 -25 428.5 4 c 128,-1,10
 338 33 338 33 270 84 c 1,11,-1
 233 47 l 2,12,13
 189 3 189 3 168 -15 c 128,-1,14
 147 -33 147 -33 127 -33 c 0,15,16
 97 -33 97 -33 77 -14 c 128,-1,17
 57 5 57 5 57 31 c 0,18,19
 57 61 57 61 72 83 c 128,-1,20
 87 105 87 105 127 145 c 2,21,-1
 172 190 l 1,22,23
 76 336 76 336 76 530 c 0,24,25
 76 654 76 654 114 757 c 128,-1,26
 152 860 152 860 223 933 c 128,-1,27
 294 1006 294 1006 395 1045.5 c 128,-1,28
 496 1085 496 1085 618 1085 c 0,29,30
 720 1085 720 1085 809 1058 c 128,-1,31
 898 1031 898 1031 967 979 c 1,32,-1
 1016 1030 l 2,33,34
 1048 1062 1048 1062 1068.5 1077 c 128,-1,35
 1089 1092 1089 1092 1116 1092 c 0,36,37
 1141 1092 1141 1092 1160.5 1073.5 c 128,-1,38
 1180 1055 1180 1055 1180 1024 c 0,39,40
 1180 999 1180 999 1164.5 978 c 128,-1,41
 1149 957 1149 957 1116 926 c 2,0,-1
868 680 m 1,42,-1
 440 252 l 1,43,44
 511 178 511 178 618 178 c 0,45,46
 742 178 742 178 815.5 271.5 c 128,-1,47
 889 365 889 365 889 530 c 0,48,49
 889 609 889 609 868 680 c 1,42,-1
369 385 m 1,50,-1
 797 811 l 1,51,52
 725 883 725 883 618 883 c 0,53,54
 538 883 538 883 477 841.5 c 128,-1,55
 416 800 416 800 383 719 c 128,-1,56
 350 638 350 638 350 530 c 0,57,58
 350 454 350 454 369 385 c 1,50,-1
EndSplineSet
Validated: 1
EndChar

StartChar: questiondown
Encoding: 191 191 162
Width: 1174
GlyphClass: 1
Flags: W
LayerCount: 2
Fore
SplineSet
1083 -10 m 0,0,1
 1083 -77 1083 -77 1050 -150.5 c 128,-1,2
 1017 -224 1017 -224 950.5 -288 c 128,-1,3
 884 -352 884 -352 788.5 -390 c 128,-1,4
 693 -428 693 -428 571 -428 c 0,5,6
 428 -428 428 -428 316.5 -374.5 c 128,-1,7
 205 -321 205 -321 145.5 -229.5 c 128,-1,8
 86 -138 86 -138 86 -31 c 0,9,10
 86 31 86 31 106.5 85.5 c 128,-1,11
 127 140 127 140 163.5 185 c 128,-1,12
 200 230 200 230 229.5 257 c 128,-1,13
 259 284 259 284 371 385 c 0,14,15
 437 445 437 445 454.5 479.5 c 128,-1,16
 472 514 472 514 487 592 c 0,17,18
 507 694 507 694 606 694 c 0,19,20
 659 694 659 694 694 660 c 128,-1,21
 729 626 729 626 729 559 c 0,22,23
 729 493 729 493 713.5 443 c 128,-1,24
 698 393 698 393 670.5 352.5 c 128,-1,25
 643 312 643 312 611.5 280.5 c 128,-1,26
 580 249 580 249 518 195 c 0,27,28
 432 120 432 120 396 75 c 128,-1,29
 360 30 360 30 360 -29 c 0,30,31
 360 -107 360 -107 419 -162 c 128,-1,32
 478 -217 478 -217 571 -217 c 0,33,34
 648 -217 648 -217 696.5 -188.5 c 128,-1,35
 745 -160 745 -160 772.5 -112.5 c 128,-1,36
 800 -65 800 -65 821 2 c 0,37,38
 841 57 841 57 869.5 86 c 128,-1,39
 898 115 898 115 952 115 c 0,40,41
 1009 115 1009 115 1046 75.5 c 128,-1,42
 1083 36 1083 36 1083 -10 c 0,0,1
598 1085 m 0,43,44
 660 1085 660 1085 704 1045.5 c 128,-1,45
 748 1006 748 1006 748 936 c 0,46,47
 748 899 748 899 726.5 864 c 128,-1,48
 705 829 705 829 670 807.5 c 128,-1,49
 635 786 635 786 598 786 c 0,50,51
 556 786 556 786 521.5 806 c 128,-1,52
 487 826 487 826 466.5 859.5 c 128,-1,53
 446 893 446 893 446 936 c 0,54,55
 446 1007 446 1007 490.5 1046 c 128,-1,56
 535 1085 535 1085 598 1085 c 0,43,44
EndSplineSet
Validated: 1
EndChar

StartChar: exclamdown
Encoding: 161 161 163
Width: 1200
GlyphClass: 1
Flags: W
LayerCount: 2
Fore
SplineSet
976 894 m 0,0,1
 989 881 989 881 998 858 c 0,2,3
 1007 836 1007 836 1007 819 c 2,4,-1
 1007 41 l 2,5,6
 1007 24 1007 24 993 12 c 128,-1,7
 979 0 979 0 960 0 c 2,8,-1
 230 0 l 2,9,10
 212 0 212 0 197 11 c 0,11,12
 183 21 183 21 183 41 c 2,13,-1
 183 1006 l 2,14,15
 183 1025 183 1025 197 1037 c 128,-1,16
 211 1049 211 1049 230 1049 c 2,17,-1
 780 1049 l 2,18,19
 801 1049 801 1049 822 1040 c 0,20,21
 848 1029 848 1029 858 1017 c 0,22,23
 863 1011 863 1011 882 992 c 0,24,25
 895 979 895 979 910 963 c 0,26,27
 938 934 938 934 976 894 c 0,0,1
EndSplineSet
EndChar

StartChar: logicalnot
Encoding: 172 172 164
Width: 1194
GlyphClass: 1
Flags: W
LayerCount: 2
Fore
SplineSet
1110 377 m 1,0,-1
 852 377 l 1,1,-1
 852 815 l 1,2,-1
 84 815 l 1,3,-1
 84 1077 l 1,4,-1
 1110 1077 l 1,5,-1
 1110 377 l 1,0,-1
EndSplineSet
Validated: 1
EndChar

StartChar: radical
Encoding: 8730 8730 165
Width: 1124
GlyphClass: 1
Flags: W
LayerCount: 2
Fore
SplineSet
53 854 m 1,0,-1
 20 922 l 1,1,-1
 319 1069 l 1,2,-1
 723 244 l 1,3,-1
 983 1878 l 1,4,-1
 1055 1868 l 1,5,-1
 748 -78 l 1,6,-1
 250 950 l 1,7,-1
 53 854 l 1,0,-1
EndSplineSet
Validated: 1
EndChar

StartChar: florin
Encoding: 402 402 166
Width: 1217
GlyphClass: 1
Flags: W
LayerCount: 2
Fore
SplineSet
440 778 m 2,0,-1
 492 778 l 1,1,-1
 549 1094 l 2,2,3
 570 1205 570 1205 588 1266 c 128,-1,4
 606 1327 606 1327 645.5 1380 c 128,-1,5
 685 1433 685 1433 754.5 1461 c 128,-1,6
 824 1489 824 1489 934 1489 c 0,7,8
 1049 1489 1049 1489 1116.5 1458.5 c 128,-1,9
 1184 1428 1184 1428 1184 1366 c 0,10,11
 1184 1303 1184 1303 1142.5 1288 c 128,-1,12
 1101 1273 1101 1273 1026.5 1285.5 c 128,-1,13
 952 1298 952 1298 948 1298 c 0,14,15
 895 1298 895 1298 867.5 1271 c 128,-1,16
 840 1244 840 1244 824.5 1192 c 128,-1,17
 809 1140 809 1140 787 1004.5 c 128,-1,18
 765 869 765 869 748 778 c 1,19,-1
 811 778 l 2,20,21
 882 778 882 778 921.5 759.5 c 128,-1,22
 961 741 961 741 961 682 c 0,23,24
 961 627 961 627 920 604.5 c 128,-1,25
 879 582 879 582 797 582 c 2,26,-1
 713 582 l 1,27,-1
 604 -45 l 2,28,29
 589 -136 589 -136 566.5 -204 c 128,-1,30
 544 -272 544 -272 503.5 -322 c 128,-1,31
 463 -372 463 -372 395 -400 c 128,-1,32
 327 -428 327 -428 223 -428 c 0,33,34
 105 -428 105 -428 37 -397 c 128,-1,35
 -31 -366 -31 -366 -31 -309 c 0,36,37
 -31 -269 -31 -269 -3.5 -244 c 128,-1,38
 24 -219 24 -219 72 -219 c 0,39,40
 81 -219 81 -219 123.5 -228.5 c 128,-1,41
 166 -238 166 -238 193 -238 c 0,42,43
 273 -238 273 -238 301.5 -194.5 c 128,-1,44
 330 -151 330 -151 348 -51 c 2,45,-1
 457 582 l 1,46,-1
 418 582 l 2,47,48
 344 582 344 582 304 602 c 128,-1,49
 264 622 264 622 264 672 c 0,50,51
 264 733 264 733 309.5 755.5 c 128,-1,52
 355 778 355 778 440 778 c 2,0,-1
EndSplineSet
Validated: 33
EndChar

StartChar: approxequal
Encoding: 8776 8776 167
Width: 1124
GlyphClass: 1
Flags: W
LayerCount: 2
Fore
SplineSet
1004 807 m 1,0,-1
 1079 758 l 1,1,2
 1021 661 1021 661 915.5 620 c 128,-1,3
 810 579 810 579 715 606 c 2,4,-1
 408 694 l 2,5,6
 342 713 342 713 290 705.5 c 128,-1,7
 238 698 238 698 203.5 675.5 c 128,-1,8
 169 653 169 653 149 627 c 128,-1,9
 129 601 129 601 117 586 c 1,10,-1
 29 641 l 1,11,12
 108 746 108 746 211.5 783 c 128,-1,13
 315 820 315 820 428 788 c 2,14,-1
 737 702 l 2,15,16
 805 682 805 682 899 721 c 0,17,18
 965 749 965 749 1004 807 c 1,0,-1
1004 498 m 1,19,-1
 1079 449 l 1,20,21
 1021 350 1021 350 915.5 310 c 128,-1,22
 810 270 810 270 715 297 c 2,23,-1
 408 385 l 2,24,25
 342 404 342 404 290 396.5 c 128,-1,26
 238 389 238 389 203.5 366.5 c 128,-1,27
 169 344 169 344 147.5 316 c 128,-1,28
 126 288 126 288 117 276 c 1,29,-1
 29 332 l 1,30,31
 108 437 108 437 211.5 474 c 128,-1,32
 315 511 315 511 428 479 c 2,33,-1
 737 393 l 2,34,35
 805 373 805 373 899 412 c 0,36,37
 965 440 965 440 1004 498 c 1,19,-1
EndSplineSet
Validated: 33
EndChar

StartChar: Delta
Encoding: 8710 8710 168
Width: 1253
GlyphClass: 1
Flags: W
LayerCount: 2
Fore
SplineSet
668 1409 m 1,0,-1
 1245 0 l 1,1,-1
 12 0 l 1,2,-1
 668 1409 l 1,0,-1
594 1059 m 1,3,-1
 147 100 l 1,4,-1
 991 100 l 1,5,-1
 594 1059 l 1,3,-1
EndSplineSet
Validated: 1
EndChar

StartChar: guillemotleft
Encoding: 171 171 169
Width: 1217
GlyphClass: 1
Flags: W
LayerCount: 2
Fore
SplineSet
543 813 m 2,0,-1
 362 524 l 1,1,-1
 553 221 l 2,2,3
 580 183 580 183 580 150 c 0,4,5
 580 114 580 114 553 88.5 c 128,-1,6
 526 63 526 63 487 63 c 0,7,8
 457 63 457 63 431.5 83 c 128,-1,9
 406 103 406 103 369 158 c 2,10,-1
 190 426 l 2,11,12
 147 492 147 492 147 522 c 0,13,14
 147 558 147 558 190 625 c 2,15,-1
 375 901 l 2,16,17
 429 983 429 983 485 983 c 0,18,19
 523 983 523 983 550.5 958.5 c 128,-1,20
 578 934 578 934 578 899 c 0,21,22
 578 872 578 872 566.5 852 c 128,-1,23
 555 832 555 832 543 813 c 2,0,-1
1001 813 m 2,24,-1
 821 524 l 1,25,-1
 1012 221 l 2,26,27
 1040 176 1040 176 1040 150 c 0,28,29
 1040 114 1040 114 1013 88.5 c 128,-1,30
 986 63 986 63 946 63 c 0,31,32
 915 63 915 63 889.5 83 c 128,-1,33
 864 103 864 103 827 158 c 2,34,-1
 651 426 l 2,35,36
 606 498 606 498 606 522 c 0,37,38
 606 555 606 555 651 625 c 2,39,-1
 834 901 l 2,40,41
 886 983 886 983 946 983 c 0,42,43
 983 983 983 983 1010.5 958 c 128,-1,44
 1038 933 1038 933 1038 899 c 0,45,46
 1038 880 1038 880 1033 866.5 c 128,-1,47
 1028 853 1028 853 1022 844.5 c 128,-1,48
 1016 836 1016 836 1001 813 c 2,24,-1
EndSplineSet
Validated: 1
EndChar

StartChar: guillemotright
Encoding: 187 187 170
Width: 1217
GlyphClass: 1
Flags: W
LayerCount: 2
Fore
SplineSet
664 221 m 1,0,-1
 854 524 l 1,1,-1
 674 813 l 2,2,3
 662 829 662 829 655 840 c 128,-1,4
 648 851 648 851 642.5 865.5 c 128,-1,5
 637 880 637 880 637 899 c 0,6,7
 637 933 637 933 665 958 c 128,-1,8
 693 983 693 983 729 983 c 0,9,10
 788 983 788 983 842 901 c 2,11,-1
 1024 625 l 2,12,13
 1047 590 1047 590 1058 568.5 c 128,-1,14
 1069 547 1069 547 1069 522 c 0,15,16
 1069 493 1069 493 1024 426 c 2,17,-1
 848 158 l 2,18,19
 812 103 812 103 785.5 83 c 128,-1,20
 759 63 759 63 729 63 c 0,21,22
 690 63 690 63 662.5 88 c 128,-1,23
 635 113 635 113 635 150 c 0,24,25
 635 184 635 184 664 221 c 1,0,-1
205 221 m 2,26,-1
 395 524 l 1,27,-1
 215 813 l 2,28,29
 205 829 205 829 196.5 841.5 c 128,-1,30
 188 854 188 854 183 869 c 128,-1,31
 178 884 178 884 178 899 c 0,32,33
 178 933 178 933 206 958 c 128,-1,34
 234 983 234 983 270 983 c 0,35,36
 327 983 327 983 381 901 c 2,37,-1
 565 625 l 2,38,39
 608 562 608 562 608 522 c 0,40,41
 608 491 608 491 565 426 c 2,42,-1
 389 158 l 2,43,44
 353 103 353 103 326.5 83 c 128,-1,45
 300 63 300 63 270 63 c 0,46,47
 230 63 230 63 203 88.5 c 128,-1,48
 176 114 176 114 176 150 c 0,49,50
 176 180 176 180 205 221 c 2,26,-1
EndSplineSet
Validated: 1
EndChar

StartChar: ellipsis
Encoding: 8230 8230 171
Width: 2048
GlyphClass: 1
Flags: W
LayerCount: 2
Fore
SplineSet
1024 -23 m 256,0,1
 964 -23 964 -23 919 17 c 128,-1,2
 874 57 874 57 874 127 c 0,3,4
 874 189 874 189 917.5 232.5 c 128,-1,5
 961 276 961 276 1024 276 c 256,6,7
 1087 276 1087 276 1131.5 232.5 c 128,-1,8
 1176 189 1176 189 1176 127 c 0,9,10
 1176 56 1176 56 1130 16.5 c 128,-1,11
 1084 -23 1084 -23 1024 -23 c 256,0,1
342 -23 m 256,12,13
 282 -23 282 -23 237.5 16.5 c 128,-1,14
 193 56 193 56 193 127 c 0,15,16
 193 190 193 190 236 233 c 128,-1,17
 279 276 279 276 342 276 c 256,18,19
 405 276 405 276 449.5 232.5 c 128,-1,20
 494 189 494 189 494 127 c 0,21,22
 494 56 494 56 448 16.5 c 128,-1,23
 402 -23 402 -23 342 -23 c 256,12,13
1706 -23 m 0,24,25
 1647 -23 1647 -23 1601.5 17 c 128,-1,26
 1556 57 1556 57 1556 127 c 0,27,28
 1556 189 1556 189 1599.5 232.5 c 128,-1,29
 1643 276 1643 276 1706 276 c 256,30,31
 1769 276 1769 276 1813.5 232.5 c 128,-1,32
 1858 189 1858 189 1858 127 c 0,33,34
 1858 57 1858 57 1812.5 17 c 128,-1,35
 1767 -23 1767 -23 1706 -23 c 0,24,25
EndSplineSet
Validated: 1
EndChar

StartChar: OE
Encoding: 338 338 176
Width: 2111
GlyphClass: 1
Flags: W
LayerCount: 2
Fore
SplineSet
1292 1466 m 2,0,-1
 1898 1466 l 2,1,2
 1970 1466 1970 1466 2007 1433.5 c 128,-1,3
 2044 1401 2044 1401 2044 1348 c 256,4,5
 2044 1295 2044 1295 2008 1263 c 128,-1,6
 1972 1231 1972 1231 1898 1231 c 2,7,-1
 1352 1231 l 1,8,-1
 1352 883 l 1,9,-1
 1847 883 l 2,10,11
 1920 883 1920 883 1955.5 849.5 c 128,-1,12
 1991 816 1991 816 1991 764 c 0,13,14
 1991 711 1991 711 1956 679 c 128,-1,15
 1921 647 1921 647 1847 647 c 2,16,-1
 1352 647 l 1,17,-1
 1352 236 l 1,18,-1
 1931 236 l 2,19,20
 2075 236 2075 236 2075 117 c 0,21,22
 2075 0 2075 0 1931 0 c 2,23,-1
 1286 0 l 2,24,25
 1177 0 1177 0 1134.5 39.5 c 128,-1,26
 1092 79 1092 79 1092 178 c 1,27,28
 1018 74 1018 74 921.5 24.5 c 128,-1,29
 825 -25 825 -25 678 -25 c 0,30,31
 542 -25 542 -25 430.5 27.5 c 128,-1,32
 319 80 319 80 240.5 180.5 c 128,-1,33
 162 281 162 281 121 421.5 c 128,-1,34
 80 562 80 562 80 733 c 0,35,36
 80 909 80 909 121.5 1050 c 128,-1,37
 163 1191 163 1191 240 1289.5 c 128,-1,38
 317 1388 317 1388 426.5 1439.5 c 128,-1,39
 536 1491 536 1491 670 1491 c 0,40,41
 812 1491 812 1491 910.5 1444 c 128,-1,42
 1009 1397 1009 1397 1092 1298 c 1,43,44
 1093 1368 1093 1368 1115 1404 c 128,-1,45
 1137 1440 1137 1440 1180 1453 c 128,-1,46
 1223 1466 1223 1466 1292 1466 c 2,0,-1
1065 705 m 2,47,-1
 1065 797 l 2,48,49
 1065 1024 1065 1024 977 1139.5 c 128,-1,50
 889 1255 889 1255 727 1255 c 0,51,52
 563 1255 563 1255 472 1125 c 128,-1,53
 381 995 381 995 381 748 c 0,54,55
 381 613 381 613 404 512.5 c 128,-1,56
 427 412 427 412 472.5 344.5 c 128,-1,57
 518 277 518 277 583.5 244 c 128,-1,58
 649 211 649 211 731 211 c 0,59,60
 816 211 816 211 888 252.5 c 128,-1,61
 960 294 960 294 1001 367 c 0,62,63
 1065 476 1065 476 1065 705 c 2,47,-1
EndSplineSet
Validated: 1
EndChar

StartChar: oe
Encoding: 339 339 177
Width: 1962
GlyphClass: 1
Flags: W
LayerCount: 2
Fore
SplineSet
1370 1087 m 0,0,1
 1535 1087 1535 1087 1652.5 1019.5 c 128,-1,2
 1770 952 1770 952 1828 846.5 c 128,-1,3
 1886 741 1886 741 1886 625 c 0,4,5
 1886 463 1886 463 1704 463 c 2,6,-1
 1135 463 l 1,7,8
 1141 364 1141 364 1174.5 296 c 128,-1,9
 1208 228 1208 228 1265.5 194 c 128,-1,10
 1323 160 1323 160 1401 160 c 0,11,12
 1491 160 1491 160 1547 186.5 c 128,-1,13
 1603 213 1603 213 1640.5 251.5 c 128,-1,14
 1678 290 1678 290 1712 323 c 128,-1,15
 1746 356 1746 356 1780 356 c 0,16,17
 1820 356 1820 356 1845 329 c 128,-1,18
 1870 302 1870 302 1870 260 c 0,19,20
 1870 214 1870 214 1821 145.5 c 128,-1,21
 1772 77 1772 77 1668.5 26 c 128,-1,22
 1565 -25 1565 -25 1417 -25 c 256,23,24
 1269 -25 1269 -25 1175 14.5 c 128,-1,25
 1081 54 1081 54 997 141 c 1,26,27
 846 -25 846 -25 610 -25 c 0,28,29
 458 -25 458 -25 336 46 c 128,-1,30
 214 117 214 117 146 244 c 128,-1,31
 78 371 78 371 78 530 c 0,32,33
 78 690 78 690 142 816.5 c 128,-1,34
 206 943 206 943 326.5 1014 c 128,-1,35
 447 1085 447 1085 606 1085 c 0,36,37
 723 1085 723 1085 816 1046.5 c 128,-1,38
 909 1008 909 1008 991 926 c 1,39,40
 1069 1009 1069 1009 1160 1048 c 128,-1,41
 1251 1087 1251 1087 1370 1087 c 0,0,1
1133 621 m 1,42,-1
 1626 621 l 1,43,44
 1616 761 1616 761 1553 829 c 128,-1,45
 1490 897 1490 897 1382 897 c 0,46,47
 1273 897 1273 897 1203 818 c 128,-1,48
 1133 739 1133 739 1133 627 c 2,49,-1
 1133 621 l 1,42,-1
344 526 m 0,50,51
 344 418 344 418 377.5 340 c 128,-1,52
 411 262 411 262 473 220 c 128,-1,53
 535 178 535 178 616 178 c 0,54,55
 731 178 731 178 805 270.5 c 128,-1,56
 879 363 879 363 879 526 c 0,57,58
 879 636 879 636 846.5 717.5 c 128,-1,59
 814 799 814 799 753.5 841 c 128,-1,60
 693 883 693 883 612 883 c 0,61,62
 488 883 488 883 416 784.5 c 128,-1,63
 344 686 344 686 344 526 c 0,50,51
EndSplineSet
Validated: 1
EndChar

StartChar: endash
Encoding: 8211 8211 178
Width: 1024
GlyphClass: 1
Flags: W
LayerCount: 2
Fore
SplineSet
1036 426 m 1,0,-1
 -12 426 l 1,1,-1
 -12 610 l 1,2,-1
 1036 610 l 1,3,-1
 1036 426 l 1,0,-1
EndSplineSet
Validated: 1
EndChar

StartChar: emdash
Encoding: 8212 8212 179
Width: 2048
GlyphClass: 1
Flags: W
LayerCount: 2
Fore
SplineSet
2060 426 m 1,0,-1
 -12 426 l 1,1,-1
 -12 610 l 1,2,-1
 2060 610 l 1,3,-1
 2060 426 l 1,0,-1
EndSplineSet
Validated: 1
EndChar

StartChar: quotedblleft
Encoding: 8220 8220 180
Width: 938
GlyphClass: 1
Flags: W
LayerCount: 2
Fore
SplineSet
258 1192 m 1,0,-1
 272 1192 l 2,1,2
 329 1192 329 1192 374.5 1148.5 c 128,-1,3
 420 1105 420 1105 420 1040 c 0,4,5
 420 976 420 976 374.5 934.5 c 128,-1,6
 329 893 329 893 262 893 c 0,7,8
 189 893 189 893 140.5 951.5 c 128,-1,9
 92 1010 92 1010 92 1118 c 0,10,11
 92 1217 92 1217 134.5 1303.5 c 128,-1,12
 177 1390 177 1390 238.5 1440.5 c 128,-1,13
 300 1491 300 1491 348 1491 c 0,14,15
 380 1491 380 1491 398 1472 c 128,-1,16
 416 1453 416 1453 416 1423 c 0,17,18
 416 1379 416 1379 377 1358 c 0,19,20
 324 1329 324 1329 293 1290 c 128,-1,21
 262 1251 262 1251 258 1192 c 1,0,-1
700 1192 m 1,22,-1
 713 1192 l 2,23,24
 769 1192 769 1192 814.5 1148.5 c 128,-1,25
 860 1105 860 1105 860 1040 c 0,26,27
 860 977 860 977 814.5 934 c 128,-1,28
 769 891 769 891 702 891 c 0,29,30
 628 891 628 891 580 951 c 128,-1,31
 532 1011 532 1011 532 1118 c 0,32,33
 532 1195 532 1195 557 1263 c 128,-1,34
 582 1331 582 1331 621.5 1381.5 c 128,-1,35
 661 1432 661 1432 706.5 1461.5 c 128,-1,36
 752 1491 752 1491 788 1491 c 0,37,38
 821 1491 821 1491 838.5 1472.5 c 128,-1,39
 856 1454 856 1454 856 1423 c 0,40,41
 856 1378 856 1378 817 1358 c 0,42,43
 762 1327 762 1327 734 1289.5 c 128,-1,44
 706 1252 706 1252 700 1192 c 1,22,-1
EndSplineSet
Validated: 1
EndChar

StartChar: quotedblright
Encoding: 8221 8221 181
Width: 938
GlyphClass: 1
Flags: W
LayerCount: 2
Fore
SplineSet
238 1188 m 1,0,-1
 223 1188 l 2,1,2
 167 1188 167 1188 121.5 1233.5 c 128,-1,3
 76 1279 76 1279 76 1341 c 0,4,5
 76 1405 76 1405 121.5 1448 c 128,-1,6
 167 1491 167 1491 233 1491 c 0,7,8
 308 1491 308 1491 355.5 1431 c 128,-1,9
 403 1371 403 1371 403 1264 c 0,10,11
 403 1166 403 1166 361.5 1079.5 c 128,-1,12
 320 993 320 993 259.5 942 c 128,-1,13
 199 891 199 891 150 891 c 0,14,15
 119 891 119 891 99.5 910.5 c 128,-1,16
 80 930 80 930 80 958 c 0,17,18
 80 1003 80 1003 121 1024 c 0,19,20
 174 1055 174 1055 204 1092 c 128,-1,21
 234 1129 234 1129 238 1188 c 1,0,-1
678 1188 m 1,22,-1
 666 1188 l 2,23,24
 609 1188 609 1188 562.5 1233 c 128,-1,25
 516 1278 516 1278 516 1341 c 256,26,27
 516 1404 516 1404 562 1447.5 c 128,-1,28
 608 1491 608 1491 674 1491 c 0,29,30
 750 1491 750 1491 797 1432 c 128,-1,31
 844 1373 844 1373 844 1264 c 0,32,33
 844 1163 844 1163 802.5 1077.5 c 128,-1,34
 761 992 761 992 700.5 941.5 c 128,-1,35
 640 891 640 891 590 891 c 0,36,37
 558 891 558 891 539 910 c 128,-1,38
 520 929 520 929 520 958 c 0,39,40
 520 1002 520 1002 561 1024 c 0,41,42
 618 1057 618 1057 646 1092.5 c 128,-1,43
 674 1128 674 1128 678 1188 c 1,22,-1
EndSplineSet
Validated: 1
EndChar

StartChar: quoteleft
Encoding: 8216 8216 182
Width: 641
GlyphClass: 1
Flags: W
LayerCount: 2
Fore
SplineSet
330 1192 m 1,0,-1
 344 1192 l 2,1,2
 401 1192 401 1192 446.5 1148.5 c 128,-1,3
 492 1105 492 1105 492 1040 c 0,4,5
 492 976 492 976 446.5 934.5 c 128,-1,6
 401 893 401 893 334 893 c 0,7,8
 261 893 261 893 212.5 951.5 c 128,-1,9
 164 1010 164 1010 164 1118 c 0,10,11
 164 1217 164 1217 206.5 1303.5 c 128,-1,12
 249 1390 249 1390 310.5 1440.5 c 128,-1,13
 372 1491 372 1491 420 1491 c 0,14,15
 450 1491 450 1491 468.5 1471.5 c 128,-1,16
 487 1452 487 1452 487 1423 c 0,17,18
 487 1378 487 1378 449 1358 c 0,19,20
 396 1329 396 1329 365 1290 c 128,-1,21
 334 1251 334 1251 330 1192 c 1,0,-1
EndSplineSet
Validated: 1
EndChar

StartChar: quoteright
Encoding: 8217 8217 183
Width: 641
GlyphClass: 1
Flags: W
LayerCount: 2
Fore
SplineSet
326 1188 m 1,0,-1
 311 1188 l 2,1,2
 255 1188 255 1188 209.5 1233.5 c 128,-1,3
 164 1279 164 1279 164 1341 c 0,4,5
 164 1405 164 1405 209.5 1448 c 128,-1,6
 255 1491 255 1491 322 1491 c 0,7,8
 368 1491 368 1491 408 1464.5 c 128,-1,9
 448 1438 448 1438 470 1387.5 c 128,-1,10
 492 1337 492 1337 492 1264 c 0,11,12
 492 1165 492 1165 450 1078.5 c 128,-1,13
 408 992 408 992 347.5 941.5 c 128,-1,14
 287 891 287 891 238 891 c 0,15,16
 207 891 207 891 187.5 910.5 c 128,-1,17
 168 930 168 930 168 958 c 0,18,19
 168 1003 168 1003 209 1024 c 0,20,21
 262 1055 262 1055 292 1092 c 128,-1,22
 322 1129 322 1129 326 1188 c 1,0,-1
EndSplineSet
Validated: 1
EndChar

StartChar: divide
Encoding: 247 247 184
Width: 1194
GlyphClass: 1
Flags: W
LayerCount: 2
Fore
SplineSet
1110 854 m 1,0,-1
 1110 592 l 1,1,-1
 84 592 l 1,2,-1
 84 854 l 1,3,-1
 1110 854 l 1,0,-1
598 981 m 0,4,5
 563 981 563 981 530.5 1001.5 c 128,-1,6
 498 1022 498 1022 477.5 1055.5 c 128,-1,7
 457 1089 457 1089 457 1122 c 0,8,9
 457 1189 457 1189 499 1226.5 c 128,-1,10
 541 1264 541 1264 598 1264 c 0,11,12
 654 1264 654 1264 696.5 1226 c 128,-1,13
 739 1188 739 1188 739 1122 c 0,14,15
 739 1065 739 1065 697 1023 c 128,-1,16
 655 981 655 981 598 981 c 0,4,5
598 184 m 0,17,18
 563 184 563 184 530 205.5 c 128,-1,19
 497 227 497 227 477 259.5 c 128,-1,20
 457 292 457 292 457 326 c 0,21,22
 457 392 457 392 499 429.5 c 128,-1,23
 541 467 541 467 598 467 c 0,24,25
 654 467 654 467 696.5 429 c 128,-1,26
 739 391 739 391 739 326 c 0,27,28
 739 269 739 269 697.5 226.5 c 128,-1,29
 656 184 656 184 598 184 c 0,17,18
EndSplineSet
Validated: 1
EndChar

StartChar: lozenge
Encoding: 9674 9674 185
Width: 1012
GlyphClass: 1
Flags: W
LayerCount: 2
Fore
SplineSet
557 0 m 1,0,-1
 434 0 l 1,1,-1
 37 772 l 1,2,-1
 434 1526 l 1,3,-1
 557 1526 l 1,4,-1
 954 772 l 1,5,-1
 557 0 l 1,0,-1
831 772 m 1,6,-1
 496 1415 l 1,7,-1
 160 772 l 1,8,-1
 496 111 l 1,9,-1
 831 772 l 1,6,-1
EndSplineSet
Validated: 1
EndChar

StartChar: fraction
Encoding: 8725 8725 188
Width: 299
GlyphClass: 1
Flags: W
LayerCount: 2
Fore
SplineSet
621 1343 m 2,0,-1
 -213 0 l 2,1,2
 -245 -55 -245 -55 -287 -55 c 0,3,4
 -310 -55 -310 -55 -333 -37.5 c 128,-1,5
 -356 -20 -356 -20 -356 8 c 0,6,7
 -356 29 -356 29 -336 59 c 2,8,-1
 504 1413 l 2,9,10
 530 1457 530 1457 544 1474 c 128,-1,11
 558 1491 558 1491 590 1491 c 0,12,13
 621 1491 621 1491 638 1472.5 c 128,-1,14
 655 1454 655 1454 655 1423 c 0,15,16
 655 1400 655 1400 621 1343 c 2,0,-1
EndSplineSet
Validated: 1
EndChar

StartChar: Euro
Encoding: 8364 8364 189
Width: 1217
GlyphClass: 1
Flags: W
LayerCount: 2
Fore
SplineSet
444 539 m 1,0,1
 479 180 479 180 674 180 c 0,2,3
 747 180 747 180 807.5 215 c 128,-1,4
 868 250 868 250 924 379 c 0,5,6
 960 463 960 463 986 483.5 c 128,-1,7
 1012 504 1012 504 1042 504 c 0,8,9
 1102 504 1102 504 1135.5 469.5 c 128,-1,10
 1169 435 1169 435 1169 373 c 0,11,12
 1169 226 1169 226 1025 101.5 c 128,-1,13
 881 -23 881 -23 676 -23 c 0,14,15
 484 -23 484 -23 341 116.5 c 128,-1,16
 198 256 198 256 170 539 c 1,17,-1
 43 539 l 2,18,19
 25 539 25 539 25 565 c 0,20,21
 25 590 25 590 44 628 c 128,-1,22
 63 666 63 666 76 666 c 2,23,-1
 162 666 l 1,24,-1
 162 702 l 2,25,26
 162 746 162 746 166 829 c 1,27,-1
 43 829 l 2,28,29
 25 829 25 829 25 854 c 0,30,31
 25 880 25 880 44 918 c 128,-1,32
 63 956 63 956 76 956 c 2,33,-1
 176 956 l 1,34,35
 241 1477 241 1477 668 1477 c 0,36,37
 856 1477 856 1477 992 1380 c 128,-1,38
 1128 1283 1128 1283 1128 1139 c 0,39,40
 1128 1090 1128 1090 1096 1056 c 128,-1,41
 1064 1022 1064 1022 1018 1022 c 0,42,43
 967 1022 967 1022 943.5 1048 c 128,-1,44
 920 1074 920 1074 897 1128 c 0,45,46
 868 1199 868 1199 828 1236.5 c 128,-1,47
 788 1274 788 1274 692 1274 c 0,48,49
 582 1274 582 1274 522.5 1197 c 128,-1,50
 463 1120 463 1120 446 956 c 1,51,-1
 768 956 l 2,52,53
 788 956 788 956 788 930 c 0,54,55
 788 902 788 902 769.5 865.5 c 128,-1,56
 751 829 751 829 737 829 c 2,57,-1
 438 829 l 1,58,-1
 436 731 l 2,59,60
 436 686 436 686 438 666 c 1,61,-1
 768 666 l 2,62,63
 788 666 788 666 788 641 c 0,64,65
 788 612 788 612 769.5 575.5 c 128,-1,66
 751 539 751 539 737 539 c 2,67,-1
 444 539 l 1,0,1
EndSplineSet
Validated: 1
EndChar

StartChar: guilsinglleft
Encoding: 8249 8249 190
Width: 748
GlyphClass: 1
Flags: W
LayerCount: 2
Fore
SplineSet
539 813 m 2,0,-1
 358 524 l 1,1,-1
 549 221 l 2,2,3
 575 185 575 185 575 150 c 0,4,5
 575 112 575 112 548.5 87.5 c 128,-1,6
 522 63 522 63 483 63 c 0,7,8
 452 63 452 63 427.5 82 c 128,-1,9
 403 101 403 101 365 158 c 2,10,-1
 186 426 l 2,11,12
 143 492 143 492 143 522 c 0,13,14
 143 558 143 558 186 625 c 2,15,-1
 371 901 l 2,16,17
 423 983 423 983 481 983 c 0,18,19
 519 983 519 983 546 958.5 c 128,-1,20
 573 934 573 934 573 899 c 0,21,22
 573 879 573 879 568 865.5 c 128,-1,23
 563 852 563 852 555 838.5 c 128,-1,24
 547 825 547 825 539 813 c 2,0,-1
EndSplineSet
Validated: 1
EndChar

StartChar: guilsinglright
Encoding: 8250 8250 191
Width: 748
GlyphClass: 1
Flags: W
LayerCount: 2
Fore
SplineSet
201 221 m 1,0,-1
 391 524 l 1,1,-1
 211 813 l 2,2,3
 201 829 201 829 192.5 841.5 c 128,-1,4
 184 854 184 854 179 869 c 128,-1,5
 174 884 174 884 174 899 c 0,6,7
 174 933 174 933 202 958 c 128,-1,8
 230 983 230 983 266 983 c 0,9,10
 323 983 323 983 377 901 c 2,11,-1
 561 625 l 2,12,13
 604 562 604 562 604 522 c 0,14,15
 604 491 604 491 561 426 c 2,16,-1
 385 158 l 2,17,18
 349 103 349 103 322.5 83 c 128,-1,19
 296 63 296 63 266 63 c 0,20,21
 226 63 226 63 199 88.5 c 128,-1,22
 172 114 172 114 172 150 c 0,23,24
 172 184 172 184 201 221 c 1,0,-1
EndSplineSet
Validated: 1
EndChar

StartChar: fi
Encoding: 61441 61441 192
Width: 1217
GlyphClass: 1
Flags: W
LayerCount: 2
Fore
SplineSet
109 1061 m 2,0,-1
 182 1061 l 1,1,-1
 182 1143 l 2,2,3
 182 1314 182 1314 249.5 1402.5 c 128,-1,4
 317 1491 317 1491 500 1491 c 0,5,6
 621 1491 621 1491 687.5 1461.5 c 128,-1,7
 754 1432 754 1432 754 1374 c 0,8,9
 754 1332 754 1332 735.5 1313.5 c 128,-1,10
 717 1295 717 1295 691.5 1293 c 128,-1,11
 666 1291 666 1291 621 1295.5 c 128,-1,12
 576 1300 576 1300 571 1300 c 0,13,14
 494 1300 494 1300 467 1257.5 c 128,-1,15
 440 1215 440 1215 440 1126 c 2,16,-1
 440 1061 l 1,17,-1
 506 1061 l 2,18,19
 662 1061 662 1061 662 958 c 0,20,21
 662 933 662 933 635 901 c 0,22,23
 613 877 613 877 583.5 870.5 c 128,-1,24
 554 864 554 864 506 864 c 2,25,-1
 440 864 l 1,26,-1
 440 133 l 2,27,28
 440 52 440 52 404.5 13.5 c 128,-1,29
 369 -25 369 -25 311 -25 c 256,30,31
 253 -25 253 -25 217.5 15 c 128,-1,32
 182 55 182 55 182 133 c 2,33,-1
 182 864 l 1,34,-1
 106 864 l 2,35,36
 -20 864 -20 864 -20 963 c 0,37,38
 -20 1008 -20 1008 13.5 1034.5 c 128,-1,39
 47 1061 47 1061 109 1061 c 2,0,-1
1069 907 m 2,40,-1
 1069 135 l 2,41,42
 1069 55 1069 55 1034 15 c 128,-1,43
 999 -25 999 -25 940 -25 c 0,44,45
 884 -25 884 -25 847.5 15.5 c 128,-1,46
 811 56 811 56 811 135 c 2,47,-1
 811 928 l 2,48,49
 811 1006 811 1006 845.5 1045.5 c 128,-1,50
 880 1085 880 1085 940 1085 c 0,51,52
 1013 1085 1013 1085 1041 1040 c 128,-1,53
 1069 995 1069 995 1069 907 c 2,40,-1
940 1479 m 256,54,55
 995 1479 995 1479 1032 1440 c 128,-1,56
 1069 1401 1069 1401 1069 1346 c 0,57,58
 1069 1283 1069 1283 1031.5 1247.5 c 128,-1,59
 994 1212 994 1212 940 1212 c 0,60,61
 887 1212 887 1212 849 1248 c 128,-1,62
 811 1284 811 1284 811 1346 c 0,63,64
 811 1401 811 1401 848 1440 c 128,-1,65
 885 1479 885 1479 940 1479 c 256,54,55
EndSplineSet
Validated: 33
EndChar

StartChar: fl
Encoding: 61442 61442 193
Width: 1217
GlyphClass: 1
Flags: W
LayerCount: 2
Fore
SplineSet
1069 1337 m 2,0,-1
 1069 135 l 2,1,2
 1069 57 1069 57 1033.5 16 c 128,-1,3
 998 -25 998 -25 940 -25 c 0,4,5
 883 -25 883 -25 847 15 c 128,-1,6
 811 55 811 55 811 135 c 2,7,-1
 811 1333 l 2,8,9
 811 1412 811 1412 846 1451.5 c 128,-1,10
 881 1491 881 1491 940 1491 c 0,11,12
 1069 1491 1069 1491 1069 1337 c 2,0,-1
109 1061 m 2,13,-1
 182 1061 l 1,14,-1
 182 1143 l 2,15,16
 182 1314 182 1314 249.5 1402.5 c 128,-1,17
 317 1491 317 1491 500 1491 c 0,18,19
 621 1491 621 1491 687.5 1461.5 c 128,-1,20
 754 1432 754 1432 754 1374 c 0,21,22
 754 1332 754 1332 735.5 1313.5 c 128,-1,23
 717 1295 717 1295 691.5 1293 c 128,-1,24
 666 1291 666 1291 621 1295.5 c 128,-1,25
 576 1300 576 1300 571 1300 c 0,26,27
 494 1300 494 1300 467 1257.5 c 128,-1,28
 440 1215 440 1215 440 1126 c 2,29,-1
 440 1061 l 1,30,-1
 506 1061 l 2,31,32
 662 1061 662 1061 662 958 c 0,33,34
 662 933 662 933 635 901 c 0,35,36
 613 877 613 877 583.5 870.5 c 128,-1,37
 554 864 554 864 506 864 c 2,38,-1
 440 864 l 1,39,-1
 440 133 l 2,40,41
 440 52 440 52 404.5 13.5 c 128,-1,42
 369 -25 369 -25 311 -25 c 256,43,44
 253 -25 253 -25 217.5 15 c 128,-1,45
 182 55 182 55 182 133 c 2,46,-1
 182 864 l 1,47,-1
 106 864 l 2,48,49
 -20 864 -20 864 -20 963 c 0,50,51
 -20 1008 -20 1008 13.5 1034.5 c 128,-1,52
 47 1061 47 1061 109 1061 c 2,13,-1
EndSplineSet
Validated: 33
EndChar

StartChar: daggerdbl
Encoding: 8225 8225 194
Width: 1217
GlyphClass: 1
Flags: W
LayerCount: 2
Fore
SplineSet
485 -242 m 2,0,-1
 485 -12 l 1,1,-1
 207 -12 l 2,2,3
 141 -12 141 -12 108.5 17 c 128,-1,4
 76 46 76 46 76 94 c 0,5,6
 76 143 76 143 108.5 172 c 128,-1,7
 141 201 141 201 207 201 c 2,8,-1
 485 201 l 1,9,-1
 485 883 l 1,10,-1
 207 883 l 2,11,12
 143 883 143 883 109.5 912.5 c 128,-1,13
 76 942 76 942 76 989 c 0,14,15
 76 1037 76 1037 109 1066.5 c 128,-1,16
 142 1096 142 1096 207 1096 c 2,17,-1
 485 1096 l 1,18,-1
 485 1327 l 2,19,20
 485 1403 485 1403 519.5 1441 c 128,-1,21
 554 1479 554 1479 610 1479 c 0,22,23
 667 1479 667 1479 700 1440.5 c 128,-1,24
 733 1402 733 1402 733 1327 c 2,25,-1
 733 1096 l 1,26,-1
 1012 1096 l 2,27,28
 1078 1096 1078 1096 1110.5 1067 c 128,-1,29
 1143 1038 1143 1038 1143 989 c 0,30,31
 1143 941 1143 941 1110.5 912 c 128,-1,32
 1078 883 1078 883 1012 883 c 2,33,-1
 733 883 l 1,34,-1
 733 201 l 1,35,-1
 1012 201 l 2,36,37
 1078 201 1078 201 1110.5 172 c 128,-1,38
 1143 143 1143 143 1143 94 c 0,39,40
 1143 46 1143 46 1110.5 17 c 128,-1,41
 1078 -12 1078 -12 1012 -12 c 2,42,-1
 733 -12 l 1,43,-1
 733 -242 l 2,44,45
 733 -317 733 -317 699 -355 c 128,-1,46
 665 -393 665 -393 610 -393 c 256,47,48
 555 -393 555 -393 520 -355 c 128,-1,49
 485 -317 485 -317 485 -242 c 2,0,-1
EndSplineSet
Validated: 1
EndChar

StartChar: periodcentered
Encoding: 8729 8729 195
Width: 641
GlyphClass: 1
Flags: W
LayerCount: 2
Fore
SplineSet
170 725 m 0,0,1
 170 766 170 766 190.5 800 c 128,-1,2
 211 834 211 834 245 854 c 128,-1,3
 279 874 279 874 319 874 c 0,4,5
 382 874 382 874 426.5 830.5 c 128,-1,6
 471 787 471 787 471 725 c 0,7,8
 471 631 471 631 396 592.5 c 128,-1,9
 321 554 321 554 245.5 592.5 c 128,-1,10
 170 631 170 631 170 725 c 0,0,1
EndSplineSet
Validated: 33
EndChar

StartChar: quotesinglbase
Encoding: 8218 8218 196
Width: 641
GlyphClass: 1
Flags: W
LayerCount: 2
Fore
SplineSet
326 -27 m 1,0,1
 260 -27 260 -27 212 13.5 c 128,-1,2
 164 54 164 54 164 127 c 0,3,4
 164 190 164 190 211 233 c 128,-1,5
 258 276 258 276 322 276 c 0,6,7
 370 276 370 276 409 250 c 128,-1,8
 448 224 448 224 470 173.5 c 128,-1,9
 492 123 492 123 492 49 c 0,10,11
 492 -50 492 -50 450 -136.5 c 128,-1,12
 408 -223 408 -223 347.5 -273.5 c 128,-1,13
 287 -324 287 -324 238 -324 c 0,14,15
 207 -324 207 -324 187.5 -303.5 c 128,-1,16
 168 -283 168 -283 168 -256 c 0,17,18
 168 -215 168 -215 209 -190 c 0,19,20
 326 -125 326 -125 326 -27 c 1,0,1
EndSplineSet
Validated: 1
EndChar

StartChar: quotedblbase
Encoding: 8222 8222 197
Width: 938
GlyphClass: 1
Flags: W
LayerCount: 2
Fore
SplineSet
682 -27 m 1,0,1
 616 -27 616 -27 568 13.5 c 128,-1,2
 520 54 520 54 520 127 c 0,3,4
 520 190 520 190 567 233 c 128,-1,5
 614 276 614 276 678 276 c 0,6,7
 726 276 726 276 765 250 c 128,-1,8
 804 224 804 224 826 173.5 c 128,-1,9
 848 123 848 123 848 49 c 0,10,11
 848 -50 848 -50 806 -136.5 c 128,-1,12
 764 -223 764 -223 703.5 -273.5 c 128,-1,13
 643 -324 643 -324 594 -324 c 0,14,15
 563 -324 563 -324 543.5 -303.5 c 128,-1,16
 524 -283 524 -283 524 -256 c 0,17,18
 524 -216 524 -216 565 -190 c 0,19,20
 682 -126 682 -126 682 -27 c 1,0,1
242 -27 m 1,21,22
 176 -27 176 -27 128 13.5 c 128,-1,23
 80 54 80 54 80 127 c 0,24,25
 80 190 80 190 127 233 c 128,-1,26
 174 276 174 276 238 276 c 0,27,28
 286 276 286 276 325 250 c 128,-1,29
 364 224 364 224 386 173.5 c 128,-1,30
 408 123 408 123 408 49 c 0,31,32
 408 -50 408 -50 366 -136.5 c 128,-1,33
 324 -223 324 -223 263.5 -273.5 c 128,-1,34
 203 -324 203 -324 154 -324 c 0,35,36
 123 -324 123 -324 103.5 -303.5 c 128,-1,37
 84 -283 84 -283 84 -256 c 0,38,39
 84 -215 84 -215 125 -190 c 0,40,41
 242 -125 242 -125 242 -27 c 1,21,22
EndSplineSet
Validated: 1
EndChar

StartChar: perthousand
Encoding: 8240 8240 198
Width: 2474
GlyphClass: 1
Flags: W
LayerCount: 2
Fore
SplineSet
676 1090 m 0,0,1
 676 899 676 899 592 806 c 128,-1,2
 508 713 508 713 362 713 c 0,3,4
 272 713 272 713 200.5 752.5 c 128,-1,5
 129 792 129 792 89 876 c 128,-1,6
 49 960 49 960 49 1081 c 0,7,8
 49 1211 49 1211 80 1298 c 128,-1,9
 111 1385 111 1385 180.5 1430 c 128,-1,10
 250 1475 250 1475 358 1475 c 0,11,12
 436 1475 436 1475 495 1451 c 128,-1,13
 554 1427 554 1427 595 1377.5 c 128,-1,14
 636 1328 636 1328 656 1257 c 128,-1,15
 676 1186 676 1186 676 1090 c 0,0,1
489 1100 m 0,16,17
 489 1231 489 1231 461 1290.5 c 128,-1,18
 433 1350 433 1350 362 1350 c 0,19,20
 314 1350 314 1350 285.5 1321.5 c 128,-1,21
 257 1293 257 1293 246.5 1237.5 c 128,-1,22
 236 1182 236 1182 236 1096 c 0,23,24
 236 1007 236 1007 246.5 951 c 128,-1,25
 257 895 257 895 285 866.5 c 128,-1,26
 313 838 313 838 362 838 c 0,27,28
 436 838 436 838 462.5 901 c 128,-1,29
 489 964 489 964 489 1100 c 0,16,17
1700 367 m 0,30,31
 1700 176 1700 176 1616 83 c 128,-1,32
 1532 -10 1532 -10 1386 -10 c 0,33,34
 1295 -10 1295 -10 1223.5 30 c 128,-1,35
 1152 70 1152 70 1111.5 153 c 128,-1,36
 1071 236 1071 236 1071 358 c 0,37,38
 1071 553 1071 553 1145.5 651.5 c 128,-1,39
 1220 750 1220 750 1382 750 c 0,40,41
 1460 750 1460 750 1518.5 726 c 128,-1,42
 1577 702 1577 702 1618.5 654 c 128,-1,43
 1660 606 1660 606 1680 534.5 c 128,-1,44
 1700 463 1700 463 1700 367 c 0,30,31
1513 377 m 0,45,46
 1513 506 1513 506 1485 565.5 c 128,-1,47
 1457 625 1457 625 1386 625 c 0,48,49
 1336 625 1336 625 1308 597 c 128,-1,50
 1280 569 1280 569 1268.5 514.5 c 128,-1,51
 1257 460 1257 460 1257 373 c 0,52,53
 1257 239 1257 239 1285.5 177 c 128,-1,54
 1314 115 1314 115 1386 115 c 0,55,56
 1459 115 1459 115 1486 178.5 c 128,-1,57
 1513 242 1513 242 1513 377 c 0,45,46
1343 1343 m 2,58,-1
 510 0 l 2,59,60
 478 -55 478 -55 438 -55 c 0,61,62
 415 -55 415 -55 392 -37.5 c 128,-1,63
 369 -20 369 -20 369 8 c 0,64,65
 369 29 369 29 389 59 c 2,66,-1
 1227 1413 l 2,67,68
 1249 1450 1249 1450 1265.5 1468.5 c 128,-1,69
 1282 1487 1282 1487 1313 1487 c 0,70,71
 1343 1487 1343 1487 1361.5 1469.5 c 128,-1,72
 1380 1452 1380 1452 1380 1423 c 0,73,74
 1380 1402 1380 1402 1343 1343 c 2,58,-1
2427 367 m 0,75,76
 2427 239 2427 239 2388 155 c 128,-1,77
 2349 71 2349 71 2277.5 30.5 c 128,-1,78
 2206 -10 2206 -10 2111 -10 c 0,79,80
 2022 -10 2022 -10 1950 30 c 128,-1,81
 1878 70 1878 70 1838 153.5 c 128,-1,82
 1798 237 1798 237 1798 358 c 0,83,84
 1798 552 1798 552 1871 651 c 128,-1,85
 1944 750 1944 750 2107 750 c 0,86,87
 2263 750 2263 750 2345 653.5 c 128,-1,88
 2427 557 2427 557 2427 367 c 0,75,76
2241 377 m 0,89,90
 2241 506 2241 506 2212.5 565.5 c 128,-1,91
 2184 625 2184 625 2111 625 c 0,92,93
 2062 625 2062 625 2034 597 c 128,-1,94
 2006 569 2006 569 1995.5 513.5 c 128,-1,95
 1985 458 1985 458 1985 373 c 0,96,97
 1985 286 1985 286 1995.5 229.5 c 128,-1,98
 2006 173 2006 173 2034.5 144 c 128,-1,99
 2063 115 2063 115 2111 115 c 0,100,101
 2186 115 2186 115 2213.5 179 c 128,-1,102
 2241 243 2241 243 2241 377 c 0,89,90
EndSplineSet
Validated: 1
EndChar

StartChar: dotlessi
Encoding: 305 305 214
Width: 555
GlyphClass: 1
Flags: W
LayerCount: 2
Fore
SplineSet
414 930 m 2,0,-1
 414 141 l 2,1,2
 414 59 414 59 375 17 c 128,-1,3
 336 -25 336 -25 276 -25 c 256,4,5
 216 -25 216 -25 178.5 18 c 128,-1,6
 141 61 141 61 141 141 c 2,7,-1
 141 922 l 2,8,9
 141 1003 141 1003 178.5 1044 c 128,-1,10
 216 1085 216 1085 276 1085 c 256,11,12
 336 1085 336 1085 375 1044 c 128,-1,13
 414 1003 414 1003 414 930 c 2,0,-1
EndSplineSet
Validated: 1
EndChar

StartChar: circumflex
Encoding: 710 710 215
Width: 682
GlyphClass: 1
Flags: W
LayerCount: 2
Fore
SplineSet
442 1272 m 2,0,-1
 342 1389 l 1,1,-1
 242 1272 l 2,2,3
 200 1222 200 1222 185 1211 c 128,-1,4
 170 1200 170 1200 129 1200 c 2,5,-1
 49 1200 l 2,6,7
 8 1200 8 1200 8 1214 c 0,8,9
 8 1225 8 1225 39 1264 c 2,10,-1
 150 1397 l 2,11,12
 164 1414 164 1414 182 1436.5 c 128,-1,13
 200 1459 200 1459 213.5 1468.5 c 128,-1,14
 227 1478 227 1478 253 1483.5 c 128,-1,15
 279 1489 279 1489 313 1489 c 2,16,-1
 369 1489 l 2,17,18
 435 1489 435 1489 459.5 1473 c 128,-1,19
 484 1457 484 1457 532 1397 c 2,20,-1
 647 1262 l 2,21,22
 676 1224 676 1224 676 1217 c 0,23,24
 676 1200 676 1200 631 1200 c 2,25,-1
 555 1200 l 2,26,27
 525 1200 525 1200 507.5 1208.5 c 128,-1,28
 490 1217 490 1217 474 1235 c 128,-1,29
 458 1253 458 1253 442 1272 c 2,0,-1
EndSplineSet
Validated: 1
EndChar

StartChar: tilde
Encoding: 732 732 216
Width: 682
GlyphClass: 1
Flags: W
LayerCount: 2
Fore
SplineSet
182 1311 m 0,0,1
 131 1311 131 1311 113 1243 c 0,2,3
 95 1184 95 1184 59 1184 c 0,4,5
 37 1184 37 1184 19.5 1204.5 c 128,-1,6
 2 1225 2 1225 2 1262 c 0,7,8
 2 1312 2 1312 24 1358.5 c 128,-1,9
 46 1405 46 1405 85.5 1432.5 c 128,-1,10
 125 1460 125 1460 170 1460 c 256,11,12
 215 1460 215 1460 253.5 1447 c 128,-1,13
 292 1434 292 1434 356.5 1404.5 c 128,-1,14
 421 1375 421 1375 445 1366.5 c 128,-1,15
 469 1358 469 1358 498 1358 c 256,16,17
 527 1358 527 1358 543.5 1372.5 c 128,-1,18
 560 1387 560 1387 569 1425 c 0,19,20
 585 1483 585 1483 623 1483 c 0,21,22
 646 1483 646 1483 663 1462 c 128,-1,23
 680 1441 680 1441 680 1405 c 0,24,25
 680 1349 680 1349 637.5 1278.5 c 128,-1,26
 595 1208 595 1208 506 1208 c 0,27,28
 472 1208 472 1208 436 1219.5 c 128,-1,29
 400 1231 400 1231 337 1259 c 128,-1,30
 274 1287 274 1287 243 1299 c 128,-1,31
 212 1311 212 1311 182 1311 c 0,0,1
EndSplineSet
Validated: 1
EndChar

StartChar: macron
Encoding: 713 713 217
Width: 682
GlyphClass: 1
Flags: W
LayerCount: 2
Fore
SplineSet
702 1264 m 1,0,-1
 -23 1264 l 1,1,-1
 -23 1403 l 1,2,-1
 702 1403 l 1,3,-1
 702 1264 l 1,0,-1
EndSplineSet
Validated: 1
EndChar

StartChar: breve
Encoding: 728 728 218
Width: 682
GlyphClass: 1
Flags: W
LayerCount: 2
Fore
SplineSet
344 1341 m 256,0,1
 418 1341 418 1341 468.5 1379 c 128,-1,2
 519 1417 519 1417 532 1483 c 0,3,4
 546 1548 546 1548 592 1548 c 0,5,6
 619 1548 619 1548 636 1528.5 c 128,-1,7
 653 1509 653 1509 653 1481 c 0,8,9
 653 1417 653 1417 615 1353 c 128,-1,10
 577 1289 577 1289 506.5 1247.5 c 128,-1,11
 436 1206 436 1206 346 1206 c 0,12,13
 211 1206 211 1206 120 1293 c 128,-1,14
 29 1380 29 1380 29 1481 c 0,15,16
 29 1506 29 1506 47 1527 c 128,-1,17
 65 1548 65 1548 90 1548 c 0,18,19
 133 1548 133 1548 152 1479 c 0,20,21
 168 1415 168 1415 219 1378 c 128,-1,22
 270 1341 270 1341 344 1341 c 256,0,1
EndSplineSet
Validated: 1
EndChar

StartChar: dotaccent
Encoding: 729 729 219
Width: 682
GlyphClass: 1
Flags: W
LayerCount: 2
Fore
SplineSet
342 1444 m 0,0,1
 371 1444 371 1444 397 1429 c 128,-1,2
 423 1414 423 1414 439 1387.5 c 128,-1,3
 455 1361 455 1361 455 1331 c 0,4,5
 455 1260 455 1260 398.5 1232 c 128,-1,6
 342 1204 342 1204 285.5 1232 c 128,-1,7
 229 1260 229 1260 229 1331 c 0,8,9
 229 1377 229 1377 262.5 1410.5 c 128,-1,10
 296 1444 296 1444 342 1444 c 0,0,1
EndSplineSet
Validated: 33
EndChar

StartChar: ring
Encoding: 730 730 220
Width: 682
GlyphClass: 1
Flags: W
LayerCount: 2
Fore
SplineSet
340 1567 m 256,0,1
 425 1567 425 1567 486 1506 c 128,-1,2
 547 1445 547 1445 547 1360 c 256,3,4
 547 1275 547 1275 486 1214 c 128,-1,5
 425 1153 425 1153 340 1153 c 0,6,7
 283 1153 283 1153 236 1181 c 128,-1,8
 189 1209 189 1209 161 1256 c 128,-1,9
 133 1303 133 1303 133 1360 c 0,10,11
 133 1445 133 1445 194 1506 c 128,-1,12
 255 1567 255 1567 340 1567 c 256,0,1
340 1462 m 0,13,14
 296 1462 296 1462 267 1433 c 128,-1,15
 238 1404 238 1404 238 1360 c 0,16,17
 238 1317 238 1317 267.5 1288.5 c 128,-1,18
 297 1260 297 1260 340 1260 c 0,19,20
 368 1260 368 1260 391.5 1273 c 128,-1,21
 415 1286 415 1286 428.5 1309 c 128,-1,22
 442 1332 442 1332 442 1360 c 0,23,24
 442 1381 442 1381 434 1400.5 c 128,-1,25
 426 1420 426 1420 413 1433 c 128,-1,26
 400 1446 400 1446 380.5 1454 c 128,-1,27
 361 1462 361 1462 340 1462 c 0,13,14
EndSplineSet
Validated: 1
EndChar

StartChar: cedilla
Encoding: 184 184 221
Width: 682
GlyphClass: 1
Flags: W
LayerCount: 2
Fore
SplineSet
215 -96 m 0,0,1
 224 -23 224 -23 358 -23 c 0,2,3
 435 -23 435 -23 496 -53 c 128,-1,4
 557 -83 557 -83 590 -128.5 c 128,-1,5
 623 -174 623 -174 623 -221 c 0,6,7
 623 -275 623 -275 587 -318.5 c 128,-1,8
 551 -362 551 -362 480 -386 c 128,-1,9
 409 -410 409 -410 305 -410 c 0,10,11
 106 -410 106 -410 106 -344 c 0,12,13
 106 -324 106 -324 120.5 -309.5 c 128,-1,14
 135 -295 135 -295 160 -295 c 0,15,16
 163 -295 163 -295 211 -299 c 128,-1,17
 259 -303 259 -303 297 -303 c 0,18,19
 368 -303 368 -303 406 -281 c 128,-1,20
 444 -259 444 -259 444 -221 c 0,21,22
 444 -187 444 -187 416.5 -167 c 128,-1,23
 389 -147 389 -147 332 -147 c 0,24,25
 310 -147 310 -147 283.5 -153.5 c 128,-1,26
 257 -160 257 -160 254 -160 c 0,27,28
 237 -160 237 -160 225 -145 c 128,-1,29
 213 -130 213 -130 213 -111 c 0,30,31
 214 -107 214 -107 214.5 -104 c 128,-1,32
 215 -101 215 -101 215 -96 c 0,0,1
EndSplineSet
Validated: 1
EndChar

StartChar: hungarumlaut
Encoding: 733 733 222
Width: 682
GlyphClass: 1
Flags: W
LayerCount: 2
Fore
SplineSet
313 1477 m 2,0,-1
 449 1477 l 2,1,2
 500 1477 500 1477 500 1462 c 0,3,4
 500 1452 500 1452 438 1390 c 128,-1,5
 376 1328 376 1328 272 1237 c 0,6,7
 255 1223 255 1223 209 1209.5 c 128,-1,8
 163 1196 163 1196 129 1196 c 0,9,10
 86 1196 86 1196 86 1221 c 0,11,12
 86 1241 86 1241 113 1280 c 1,13,-1
 158 1364 l 2,14,15
 199 1437 199 1437 227.5 1457 c 128,-1,16
 256 1477 256 1477 313 1477 c 2,0,-1
670 1477 m 2,17,-1
 805 1477 l 2,18,19
 856 1477 856 1477 856 1462 c 0,20,21
 856 1452 856 1452 790 1386 c 128,-1,22
 724 1320 724 1320 629 1237 c 0,23,24
 613 1223 613 1223 566 1209.5 c 128,-1,25
 519 1196 519 1196 485 1196 c 0,26,27
 442 1196 442 1196 442 1221 c 0,28,29
 442 1229 442 1229 446 1238.5 c 128,-1,30
 450 1248 450 1248 455 1256.5 c 128,-1,31
 460 1265 460 1265 469 1280 c 2,32,-1
 514 1364 l 2,33,34
 541 1413 541 1413 562 1437 c 128,-1,35
 583 1461 583 1461 607.5 1469 c 128,-1,36
 632 1477 632 1477 670 1477 c 2,17,-1
EndSplineSet
Validated: 1
EndChar

StartChar: ogonek
Encoding: 731 731 223
Width: 682
GlyphClass: 1
Flags: W
LayerCount: 2
Fore
SplineSet
94 -190 m 0,0,1
 94 -137 94 -137 131 -79.5 c 128,-1,2
 168 -22 168 -22 217.5 16.5 c 128,-1,3
 267 55 267 55 301 55 c 0,4,5
 331 55 331 55 354 29.5 c 128,-1,6
 377 4 377 4 377 -23 c 0,7,8
 377 -43 377 -43 367 -56.5 c 128,-1,9
 357 -70 357 -70 334 -96 c 0,10,11
 291 -139 291 -139 291 -168 c 0,12,13
 291 -215 291 -215 362 -215 c 0,14,15
 384 -215 384 -215 440.5 -197.5 c 128,-1,16
 497 -180 497 -180 518 -180 c 0,17,18
 549 -180 549 -180 568.5 -201.5 c 128,-1,19
 588 -223 588 -223 588 -250 c 0,20,21
 588 -287 588 -287 548 -314.5 c 128,-1,22
 508 -342 508 -342 444 -356.5 c 128,-1,23
 380 -371 380 -371 326 -371 c 0,24,25
 257 -371 257 -371 204.5 -349.5 c 128,-1,26
 152 -328 152 -328 123 -286.5 c 128,-1,27
 94 -245 94 -245 94 -190 c 0,0,1
EndSplineSet
Validated: 1
EndChar

StartChar: caron
Encoding: 711 711 224
Width: 682
GlyphClass: 1
Flags: W
LayerCount: 2
Fore
SplineSet
242 1417 m 2,0,-1
 342 1300 l 1,1,-1
 440 1417 l 2,2,3
 482 1467 482 1467 497.5 1478 c 128,-1,4
 513 1489 513 1489 555 1489 c 2,5,-1
 635 1489 l 2,6,7
 676 1489 676 1489 676 1475 c 0,8,9
 676 1464 676 1464 645 1425 c 2,10,-1
 535 1292 l 2,11,12
 510 1262 510 1262 497.5 1247 c 128,-1,13
 485 1232 485 1232 468 1220.5 c 128,-1,14
 451 1209 451 1209 427.5 1204.5 c 128,-1,15
 404 1200 404 1200 371 1200 c 2,16,-1
 315 1200 l 2,17,18
 270 1200 270 1200 244.5 1208.5 c 128,-1,19
 219 1217 219 1217 207.5 1229 c 128,-1,20
 196 1241 196 1241 152 1292 c 2,21,-1
 37 1427 l 2,22,23
 8 1465 8 1465 8 1475 c 0,24,25
 8 1487 8 1487 15.5 1488 c 128,-1,26
 23 1489 23 1489 51 1489 c 2,27,-1
 129 1489 l 2,28,29
 171 1489 171 1489 187.5 1476 c 128,-1,30
 204 1463 204 1463 242 1417 c 2,0,-1
EndSplineSet
Validated: 1
EndChar

StartChar: brokenbar
Encoding: 166 166 227
Width: 575
GlyphClass: 1
Flags: W
LayerCount: 2
Fore
SplineSet
399 223 m 2,0,-1
 399 -244 l 2,1,2
 399 -331 399 -331 382 -380.5 c 128,-1,3
 365 -430 365 -430 289 -430 c 0,4,5
 240 -430 240 -430 208 -395 c 128,-1,6
 176 -360 176 -360 176 -293 c 2,7,-1
 176 223 l 2,8,9
 176 290 176 290 208 325 c 128,-1,10
 240 360 240 360 289 360 c 256,11,12
 338 360 338 360 368.5 324.5 c 128,-1,13
 399 289 399 289 399 223 c 2,0,-1
399 1354 m 2,14,-1
 399 838 l 2,15,16
 399 768 399 768 368.5 734 c 128,-1,17
 338 700 338 700 289 700 c 256,18,19
 240 700 240 700 208 735 c 128,-1,20
 176 770 176 770 176 838 c 2,21,-1
 176 1354 l 2,22,23
 176 1421 176 1421 208 1456 c 128,-1,24
 240 1491 240 1491 289 1491 c 256,25,26
 338 1491 338 1491 368.5 1455.5 c 128,-1,27
 399 1420 399 1420 399 1354 c 2,14,-1
EndSplineSet
Validated: 1
EndChar

StartChar: Eth
Encoding: 208 208 228
Width: 1516
GlyphClass: 1
Flags: W
LayerCount: 2
Fore
SplineSet
162 209 m 2,0,-1
 162 639 l 1,1,-1
 119 639 l 2,2,3
 0 639 0 639 0 733 c 256,4,5
 0 827 0 827 119 827 c 2,6,-1
 162 827 l 1,7,-1
 162 1284 l 2,8,9
 162 1380 162 1380 205 1423 c 128,-1,10
 248 1466 248 1466 344 1466 c 2,11,-1
 731 1466 l 2,12,13
 882 1466 882 1466 989 1438 c 128,-1,14
 1096 1410 1096 1410 1186 1333 c 0,15,16
 1415 1137 1415 1137 1415 737 c 0,17,18
 1415 536 1415 536 1363 391 c 128,-1,19
 1311 246 1311 246 1196 143 c 0,20,21
 1109 65 1109 65 999 32.5 c 128,-1,22
 889 0 889 0 735 0 c 2,23,-1
 350 0 l 2,24,25
 269 0 269 0 228 24.5 c 128,-1,26
 187 49 187 49 174.5 93.5 c 128,-1,27
 162 138 162 138 162 209 c 2,0,-1
686 639 m 2,28,-1
 459 639 l 1,29,-1
 459 236 l 1,30,-1
 682 236 l 2,31,32
 814 236 814 236 888.5 261 c 128,-1,33
 963 286 963 286 1024 371 c 0,34,35
 1114 497 1114 497 1114 739 c 0,36,37
 1114 906 1114 906 1074.5 1007 c 128,-1,38
 1035 1108 1035 1108 970 1156 c 128,-1,39
 905 1204 905 1204 829 1217.5 c 128,-1,40
 753 1231 753 1231 653 1231 c 2,41,-1
 459 1231 l 1,42,-1
 459 827 l 1,43,-1
 625 827 l 2,44,45
 706 827 706 827 745 812.5 c 128,-1,46
 784 798 784 798 784 733 c 0,47,48
 784 689 784 689 757 664 c 128,-1,49
 730 639 730 639 686 639 c 2,28,-1
EndSplineSet
Validated: 1
EndChar

